%TF.GenerationSoftware,KiCad,Pcbnew,7.0.7*%
%TF.CreationDate,2024-05-21T19:06:17+02:00*%
%TF.ProjectId,PCB_IOT_SysIntel,5043425f-494f-4545-9f53-7973496e7465,rev?*%
%TF.SameCoordinates,Original*%
%TF.FileFunction,Drillmap*%
%TF.FilePolarity,Positive*%
%FSLAX45Y45*%
G04 Gerber Fmt 4.5, Leading zero omitted, Abs format (unit mm)*
G04 Created by KiCad (PCBNEW 7.0.7) date 2024-05-21 19:06:17*
%MOMM*%
%LPD*%
G01*
G04 APERTURE LIST*
%ADD10C,0.100000*%
%ADD11C,0.200000*%
%ADD12C,0.040000*%
%ADD13C,0.101600*%
%ADD14C,0.104000*%
%ADD15C,0.275000*%
G04 APERTURE END LIST*
D10*
X11010900Y-10642600D02*
X11125200Y-10642600D01*
X10960100Y-6019800D02*
X11023600Y-6019800D01*
X20675600Y-12725400D02*
X20675600Y-11404600D01*
X11010900Y-8255000D02*
X11010900Y-7708900D01*
X21386800Y-12725400D02*
X21386800Y-12560300D01*
X11125200Y-12115800D02*
X11125200Y-12661900D01*
X2032000Y-6019800D02*
X2032000Y-13982700D01*
X19240500Y-11988800D02*
X15506700Y-11988800D01*
X21386800Y-7366000D02*
X21386800Y-7289800D01*
X20675600Y-12725400D02*
X21386800Y-12725400D01*
X11010900Y-13436600D02*
X11125200Y-13436600D01*
X19786600Y-11404600D02*
X19786600Y-10388600D01*
X20675600Y-11404600D02*
X20345400Y-11404600D01*
X2032000Y-13982700D02*
X11010900Y-13982700D01*
X11125200Y-12661900D02*
X11010900Y-12661900D01*
X22212300Y-7289800D02*
X22212300Y-6019800D01*
X21386800Y-6019800D02*
X22212300Y-6019800D01*
X11125200Y-7708900D02*
X11125200Y-8255000D01*
X11125200Y-11188700D02*
X11010900Y-11188700D01*
X19672300Y-10388600D02*
X19240500Y-10388600D01*
X11010900Y-6794500D02*
X11010900Y-6248400D01*
X19240500Y-10388600D02*
X19240500Y-11988800D01*
X21386800Y-7366000D02*
X21386800Y-12484100D01*
X16979900Y-8661400D02*
X18580100Y-8661400D01*
X18580100Y-10261600D01*
X16979900Y-10261600D01*
X16979900Y-8661400D01*
X11010900Y-13982700D02*
X11010900Y-13436600D01*
X19939000Y-13982700D02*
X19939000Y-12827000D01*
X11010900Y-6248400D02*
X11125200Y-6248400D01*
X19672300Y-10388600D02*
X19786600Y-10388600D01*
X21386800Y-12560300D02*
X21386800Y-12484100D01*
X10960100Y-6019800D02*
X2032000Y-6019800D01*
X11125200Y-10642600D02*
X11125200Y-11188700D01*
X11125200Y-9182100D02*
X11125200Y-9728200D01*
X11010900Y-9182100D02*
X11125200Y-9182100D01*
X11010900Y-12661900D02*
X11010900Y-12115800D01*
X15506700Y-12827000D02*
X15506700Y-11988800D01*
X19786600Y-11404600D02*
X20345400Y-11404600D01*
X11125200Y-8255000D02*
X11010900Y-8255000D01*
X11125200Y-6248400D02*
X11125200Y-6794500D01*
X11125200Y-13436600D02*
X11125200Y-13982700D01*
X11125200Y-13982700D02*
X19939000Y-13982700D01*
X11010900Y-9728200D02*
X11010900Y-9182100D01*
X14986000Y-8750300D02*
X15417800Y-8750300D01*
X15417800Y-11087100D01*
X14986000Y-11087100D01*
X14986000Y-8750300D01*
X19939000Y-12827000D02*
X15506700Y-12827000D01*
X11010900Y-12115800D02*
X11125200Y-12115800D01*
X11125200Y-6794500D02*
X11010900Y-6794500D01*
X22212300Y-7289800D02*
X21386800Y-7289800D01*
X21386800Y-6019800D02*
X11023600Y-6019800D01*
X11010900Y-7708900D02*
X11125200Y-7708900D01*
X11125200Y-9728200D02*
X11010900Y-9728200D01*
X11010900Y-11188700D02*
X11010900Y-10642600D01*
D11*
D12*
X14737400Y-8082600D02*
X14777400Y-8122600D01*
X14777400Y-8082600D02*
X14737400Y-8122600D01*
X14737400Y-8235000D02*
X14777400Y-8275000D01*
X14777400Y-8235000D02*
X14737400Y-8275000D01*
X14864400Y-8082600D02*
X14904400Y-8122600D01*
X14904400Y-8082600D02*
X14864400Y-8122600D01*
X14864400Y-8235000D02*
X14904400Y-8275000D01*
X14904400Y-8235000D02*
X14864400Y-8275000D01*
X15321600Y-6863400D02*
X15361600Y-6903400D01*
X15361600Y-6863400D02*
X15321600Y-6903400D01*
X15321600Y-6952300D02*
X15361600Y-6992300D01*
X15361600Y-6952300D02*
X15321600Y-6992300D01*
X15410500Y-6863400D02*
X15450500Y-6903400D01*
X15450500Y-6863400D02*
X15410500Y-6903400D01*
X15410500Y-6952300D02*
X15450500Y-6992300D01*
X15450500Y-6952300D02*
X15410500Y-6992300D01*
X16147100Y-6863400D02*
X16187100Y-6903400D01*
X16187100Y-6863400D02*
X16147100Y-6903400D01*
X16147100Y-6952300D02*
X16187100Y-6992300D01*
X16187100Y-6952300D02*
X16147100Y-6992300D01*
X16236000Y-6863400D02*
X16276000Y-6903400D01*
X16276000Y-6863400D02*
X16236000Y-6903400D01*
X16236000Y-6952300D02*
X16276000Y-6992300D01*
X16276000Y-6952300D02*
X16236000Y-6992300D01*
X17201200Y-7803200D02*
X17241200Y-7843200D01*
X17241200Y-7803200D02*
X17201200Y-7843200D01*
X17201200Y-7917500D02*
X17241200Y-7957500D01*
X17241200Y-7917500D02*
X17201200Y-7957500D01*
X17201200Y-8400100D02*
X17241200Y-8440100D01*
X17241200Y-8400100D02*
X17201200Y-8440100D01*
X17201200Y-8539800D02*
X17241200Y-8579800D01*
X17241200Y-8539800D02*
X17201200Y-8579800D01*
X17315500Y-7803200D02*
X17355500Y-7843200D01*
X17355500Y-7803200D02*
X17315500Y-7843200D01*
X17315500Y-7917500D02*
X17355500Y-7957500D01*
X17355500Y-7917500D02*
X17315500Y-7957500D01*
X17315500Y-8400100D02*
X17355500Y-8440100D01*
X17355500Y-8400100D02*
X17315500Y-8440100D01*
X17315500Y-8539800D02*
X17355500Y-8579800D01*
X17355500Y-8539800D02*
X17315500Y-8579800D01*
D10*
X8749500Y-8679100D02*
G75*
G03*
X8749500Y-8679100I-50000J0D01*
G01*
X8749500Y-8933100D02*
G75*
G03*
X8749500Y-8933100I-50000J0D01*
G01*
X8749500Y-9187100D02*
G75*
G03*
X8749500Y-9187100I-50000J0D01*
G01*
X8749500Y-9441100D02*
G75*
G03*
X8749500Y-9441100I-50000J0D01*
G01*
X8749500Y-9695100D02*
G75*
G03*
X8749500Y-9695100I-50000J0D01*
G01*
X8749500Y-9949100D02*
G75*
G03*
X8749500Y-9949100I-50000J0D01*
G01*
X8749500Y-10203100D02*
G75*
G03*
X8749500Y-10203100I-50000J0D01*
G01*
X8749500Y-10457100D02*
G75*
G03*
X8749500Y-10457100I-50000J0D01*
G01*
X8749500Y-10711100D02*
G75*
G03*
X8749500Y-10711100I-50000J0D01*
G01*
X8749500Y-10965100D02*
G75*
G03*
X8749500Y-10965100I-50000J0D01*
G01*
X8749500Y-11219100D02*
G75*
G03*
X8749500Y-11219100I-50000J0D01*
G01*
X8749500Y-11473100D02*
G75*
G03*
X8749500Y-11473100I-50000J0D01*
G01*
X8749500Y-11727100D02*
G75*
G03*
X8749500Y-11727100I-50000J0D01*
G01*
X8749500Y-11981100D02*
G75*
G03*
X8749500Y-11981100I-50000J0D01*
G01*
X8749500Y-12235100D02*
G75*
G03*
X8749500Y-12235100I-50000J0D01*
G01*
X9003500Y-8679100D02*
G75*
G03*
X9003500Y-8679100I-50000J0D01*
G01*
X9003500Y-8933100D02*
G75*
G03*
X9003500Y-8933100I-50000J0D01*
G01*
X9003500Y-9187100D02*
G75*
G03*
X9003500Y-9187100I-50000J0D01*
G01*
X9003500Y-9441100D02*
G75*
G03*
X9003500Y-9441100I-50000J0D01*
G01*
X9003500Y-9695100D02*
G75*
G03*
X9003500Y-9695100I-50000J0D01*
G01*
X9003500Y-9949100D02*
G75*
G03*
X9003500Y-9949100I-50000J0D01*
G01*
X9003500Y-10203100D02*
G75*
G03*
X9003500Y-10203100I-50000J0D01*
G01*
X9003500Y-10457100D02*
G75*
G03*
X9003500Y-10457100I-50000J0D01*
G01*
X9003500Y-10711100D02*
G75*
G03*
X9003500Y-10711100I-50000J0D01*
G01*
X9003500Y-10965100D02*
G75*
G03*
X9003500Y-10965100I-50000J0D01*
G01*
X9003500Y-11219100D02*
G75*
G03*
X9003500Y-11219100I-50000J0D01*
G01*
X9003500Y-11473100D02*
G75*
G03*
X9003500Y-11473100I-50000J0D01*
G01*
X9003500Y-11727100D02*
G75*
G03*
X9003500Y-11727100I-50000J0D01*
G01*
X9003500Y-11981100D02*
G75*
G03*
X9003500Y-11981100I-50000J0D01*
G01*
X9003500Y-12235100D02*
G75*
G03*
X9003500Y-12235100I-50000J0D01*
G01*
D13*
X15701600Y-7289800D02*
X15701600Y-7391400D01*
X15650800Y-7340600D02*
X15752400Y-7340600D01*
X15701600Y-7543800D02*
X15701600Y-7645400D01*
X15650800Y-7594600D02*
X15752400Y-7594600D01*
X15955600Y-7289800D02*
X15955600Y-7391400D01*
X15904800Y-7340600D02*
X16006400Y-7340600D01*
X15955600Y-7543800D02*
X15955600Y-7645400D01*
X15904800Y-7594600D02*
X16006400Y-7594600D01*
X16209600Y-7289800D02*
X16209600Y-7391400D01*
X16158800Y-7340600D02*
X16260400Y-7340600D01*
X16209600Y-7543800D02*
X16209600Y-7645400D01*
X16158800Y-7594600D02*
X16260400Y-7594600D01*
X16463600Y-7289800D02*
X16463600Y-7391400D01*
X16412800Y-7340600D02*
X16514400Y-7340600D01*
X16463600Y-7543800D02*
X16463600Y-7645400D01*
X16412800Y-7594600D02*
X16514400Y-7594600D01*
X16717600Y-7289800D02*
X16717600Y-7391400D01*
X16666800Y-7340600D02*
X16768400Y-7340600D01*
X16717600Y-7543800D02*
X16717600Y-7645400D01*
X16666800Y-7594600D02*
X16768400Y-7594600D01*
X16971600Y-7289800D02*
X16971600Y-7391400D01*
X16920800Y-7340600D02*
X17022400Y-7340600D01*
X16971600Y-7543800D02*
X16971600Y-7645400D01*
X16920800Y-7594600D02*
X17022400Y-7594600D01*
X17225600Y-7289800D02*
X17225600Y-7391400D01*
X17174800Y-7340600D02*
X17276400Y-7340600D01*
X17225600Y-7543800D02*
X17225600Y-7645400D01*
X17174800Y-7594600D02*
X17276400Y-7594600D01*
X17479600Y-7289800D02*
X17479600Y-7391400D01*
X17428800Y-7340600D02*
X17530400Y-7340600D01*
X17479600Y-7543800D02*
X17479600Y-7645400D01*
X17428800Y-7594600D02*
X17530400Y-7594600D01*
X17733600Y-7289800D02*
X17733600Y-7391400D01*
X17682800Y-7340600D02*
X17784400Y-7340600D01*
X17733600Y-7543800D02*
X17733600Y-7645400D01*
X17682800Y-7594600D02*
X17784400Y-7594600D01*
X17987600Y-7289800D02*
X17987600Y-7391400D01*
X17936800Y-7340600D02*
X18038400Y-7340600D01*
X17987600Y-7543800D02*
X17987600Y-7645400D01*
X17936800Y-7594600D02*
X18038400Y-7594600D01*
X18241600Y-7289800D02*
X18241600Y-7391400D01*
X18190800Y-7340600D02*
X18292400Y-7340600D01*
X18241600Y-7543800D02*
X18241600Y-7645400D01*
X18190800Y-7594600D02*
X18292400Y-7594600D01*
X18495600Y-7289800D02*
X18495600Y-7391400D01*
X18444800Y-7340600D02*
X18546400Y-7340600D01*
X18495600Y-7543800D02*
X18495600Y-7645400D01*
X18444800Y-7594600D02*
X18546400Y-7594600D01*
X18749600Y-7289800D02*
X18749600Y-7391400D01*
X18698800Y-7340600D02*
X18800400Y-7340600D01*
X18749600Y-7543800D02*
X18749600Y-7645400D01*
X18698800Y-7594600D02*
X18800400Y-7594600D01*
X19003600Y-7289800D02*
X19003600Y-7391400D01*
X18952800Y-7340600D02*
X19054400Y-7340600D01*
X19003600Y-7543800D02*
X19003600Y-7645400D01*
X18952800Y-7594600D02*
X19054400Y-7594600D01*
X19257600Y-7289800D02*
X19257600Y-7391400D01*
X19206800Y-7340600D02*
X19308400Y-7340600D01*
X19257600Y-7543800D02*
X19257600Y-7645400D01*
X19206800Y-7594600D02*
X19308400Y-7594600D01*
X19511600Y-7289800D02*
X19511600Y-7391400D01*
X19460800Y-7340600D02*
X19562400Y-7340600D01*
X19511600Y-7543800D02*
X19511600Y-7645400D01*
X19460800Y-7594600D02*
X19562400Y-7594600D01*
X19765600Y-7289800D02*
X19765600Y-7391400D01*
X19714800Y-7340600D02*
X19816400Y-7340600D01*
X19765600Y-7543800D02*
X19765600Y-7645400D01*
X19714800Y-7594600D02*
X19816400Y-7594600D01*
X20019600Y-7289800D02*
X20019600Y-7391400D01*
X19968800Y-7340600D02*
X20070400Y-7340600D01*
X20019600Y-7543800D02*
X20019600Y-7645400D01*
X19968800Y-7594600D02*
X20070400Y-7594600D01*
X20273600Y-7289800D02*
X20273600Y-7391400D01*
X20222800Y-7340600D02*
X20324400Y-7340600D01*
X20273600Y-7543800D02*
X20273600Y-7645400D01*
X20222800Y-7594600D02*
X20324400Y-7594600D01*
X20527600Y-7289800D02*
X20527600Y-7391400D01*
X20476800Y-7340600D02*
X20578400Y-7340600D01*
X20527600Y-7543800D02*
X20527600Y-7645400D01*
X20476800Y-7594600D02*
X20578400Y-7594600D01*
X20883600Y-7902100D02*
X20883600Y-8003700D01*
X20832800Y-7952900D02*
X20934400Y-7952900D01*
X20883600Y-8156100D02*
X20883600Y-8257700D01*
X20832800Y-8206900D02*
X20934400Y-8206900D01*
X21137600Y-7902100D02*
X21137600Y-8003700D01*
X21086800Y-7952900D02*
X21188400Y-7952900D01*
X21137600Y-8156100D02*
X21137600Y-8257700D01*
X21086800Y-8206900D02*
X21188400Y-8206900D01*
D14*
X2246570Y-6853320D02*
X2246570Y-6779780D01*
X2173030Y-6779780D01*
X2173030Y-6853320D01*
X2246570Y-6853320D01*
X2246570Y-7107320D02*
X2246570Y-7033780D01*
X2173030Y-7033780D01*
X2173030Y-7107320D01*
X2246570Y-7107320D01*
X2271970Y-7707570D02*
X2271970Y-7634030D01*
X2198430Y-7634030D01*
X2198430Y-7707570D01*
X2271970Y-7707570D01*
X2271970Y-7961570D02*
X2271970Y-7888030D01*
X2198430Y-7888030D01*
X2198430Y-7961570D01*
X2271970Y-7961570D01*
X2271970Y-8215570D02*
X2271970Y-8142030D01*
X2198430Y-8142030D01*
X2198430Y-8215570D01*
X2271970Y-8215570D01*
X2271970Y-8469570D02*
X2271970Y-8396030D01*
X2198430Y-8396030D01*
X2198430Y-8469570D01*
X2271970Y-8469570D01*
X2271970Y-8723570D02*
X2271970Y-8650030D01*
X2198430Y-8650030D01*
X2198430Y-8723570D01*
X2271970Y-8723570D01*
X2271970Y-8977570D02*
X2271970Y-8904030D01*
X2198430Y-8904030D01*
X2198430Y-8977570D01*
X2271970Y-8977570D01*
X2271970Y-9231570D02*
X2271970Y-9158030D01*
X2198430Y-9158030D01*
X2198430Y-9231570D01*
X2271970Y-9231570D01*
X2271970Y-9485570D02*
X2271970Y-9412030D01*
X2198430Y-9412030D01*
X2198430Y-9485570D01*
X2271970Y-9485570D01*
X2271970Y-9739570D02*
X2271970Y-9666030D01*
X2198430Y-9666030D01*
X2198430Y-9739570D01*
X2271970Y-9739570D01*
X2271970Y-9993570D02*
X2271970Y-9920030D01*
X2198430Y-9920030D01*
X2198430Y-9993570D01*
X2271970Y-9993570D01*
X2271970Y-10247570D02*
X2271970Y-10174030D01*
X2198430Y-10174030D01*
X2198430Y-10247570D01*
X2271970Y-10247570D01*
X2271970Y-10501570D02*
X2271970Y-10428030D01*
X2198430Y-10428030D01*
X2198430Y-10501570D01*
X2271970Y-10501570D01*
X2271970Y-10755570D02*
X2271970Y-10682030D01*
X2198430Y-10682030D01*
X2198430Y-10755570D01*
X2271970Y-10755570D01*
X2271970Y-11009570D02*
X2271970Y-10936030D01*
X2198430Y-10936030D01*
X2198430Y-11009570D01*
X2271970Y-11009570D01*
X2271970Y-11263570D02*
X2271970Y-11190030D01*
X2198430Y-11190030D01*
X2198430Y-11263570D01*
X2271970Y-11263570D01*
X2271970Y-11517570D02*
X2271970Y-11444030D01*
X2198430Y-11444030D01*
X2198430Y-11517570D01*
X2271970Y-11517570D01*
X2271970Y-11771570D02*
X2271970Y-11698030D01*
X2198430Y-11698030D01*
X2198430Y-11771570D01*
X2271970Y-11771570D01*
X2271970Y-12025570D02*
X2271970Y-11952030D01*
X2198430Y-11952030D01*
X2198430Y-12025570D01*
X2271970Y-12025570D01*
X2271970Y-12279570D02*
X2271970Y-12206030D01*
X2198430Y-12206030D01*
X2198430Y-12279570D01*
X2271970Y-12279570D01*
X2271970Y-12533570D02*
X2271970Y-12460030D01*
X2198430Y-12460030D01*
X2198430Y-12533570D01*
X2271970Y-12533570D01*
X2271970Y-12787570D02*
X2271970Y-12714030D01*
X2198430Y-12714030D01*
X2198430Y-12787570D01*
X2271970Y-12787570D01*
X2271970Y-13041570D02*
X2271970Y-12968030D01*
X2198430Y-12968030D01*
X2198430Y-13041570D01*
X2271970Y-13041570D01*
X2271970Y-13295570D02*
X2271970Y-13222030D01*
X2198430Y-13222030D01*
X2198430Y-13295570D01*
X2271970Y-13295570D01*
X2271970Y-13549570D02*
X2271970Y-13476030D01*
X2198430Y-13476030D01*
X2198430Y-13549570D01*
X2271970Y-13549570D01*
X2271970Y-13803570D02*
X2271970Y-13730030D01*
X2198430Y-13730030D01*
X2198430Y-13803570D01*
X2271970Y-13803570D01*
X2525970Y-7707570D02*
X2525970Y-7634030D01*
X2452430Y-7634030D01*
X2452430Y-7707570D01*
X2525970Y-7707570D01*
X2525970Y-7961570D02*
X2525970Y-7888030D01*
X2452430Y-7888030D01*
X2452430Y-7961570D01*
X2525970Y-7961570D01*
X2525970Y-8215570D02*
X2525970Y-8142030D01*
X2452430Y-8142030D01*
X2452430Y-8215570D01*
X2525970Y-8215570D01*
X2525970Y-8469570D02*
X2525970Y-8396030D01*
X2452430Y-8396030D01*
X2452430Y-8469570D01*
X2525970Y-8469570D01*
X2525970Y-8723570D02*
X2525970Y-8650030D01*
X2452430Y-8650030D01*
X2452430Y-8723570D01*
X2525970Y-8723570D01*
X2525970Y-8977570D02*
X2525970Y-8904030D01*
X2452430Y-8904030D01*
X2452430Y-8977570D01*
X2525970Y-8977570D01*
X2525970Y-9231570D02*
X2525970Y-9158030D01*
X2452430Y-9158030D01*
X2452430Y-9231570D01*
X2525970Y-9231570D01*
X2525970Y-9485570D02*
X2525970Y-9412030D01*
X2452430Y-9412030D01*
X2452430Y-9485570D01*
X2525970Y-9485570D01*
X2525970Y-9739570D02*
X2525970Y-9666030D01*
X2452430Y-9666030D01*
X2452430Y-9739570D01*
X2525970Y-9739570D01*
X2525970Y-9993570D02*
X2525970Y-9920030D01*
X2452430Y-9920030D01*
X2452430Y-9993570D01*
X2525970Y-9993570D01*
X2525970Y-10247570D02*
X2525970Y-10174030D01*
X2452430Y-10174030D01*
X2452430Y-10247570D01*
X2525970Y-10247570D01*
X2525970Y-10501570D02*
X2525970Y-10428030D01*
X2452430Y-10428030D01*
X2452430Y-10501570D01*
X2525970Y-10501570D01*
X2525970Y-10755570D02*
X2525970Y-10682030D01*
X2452430Y-10682030D01*
X2452430Y-10755570D01*
X2525970Y-10755570D01*
X2525970Y-11009570D02*
X2525970Y-10936030D01*
X2452430Y-10936030D01*
X2452430Y-11009570D01*
X2525970Y-11009570D01*
X2525970Y-11263570D02*
X2525970Y-11190030D01*
X2452430Y-11190030D01*
X2452430Y-11263570D01*
X2525970Y-11263570D01*
X2525970Y-11517570D02*
X2525970Y-11444030D01*
X2452430Y-11444030D01*
X2452430Y-11517570D01*
X2525970Y-11517570D01*
X2525970Y-11771570D02*
X2525970Y-11698030D01*
X2452430Y-11698030D01*
X2452430Y-11771570D01*
X2525970Y-11771570D01*
X2525970Y-12025570D02*
X2525970Y-11952030D01*
X2452430Y-11952030D01*
X2452430Y-12025570D01*
X2525970Y-12025570D01*
X2525970Y-12279570D02*
X2525970Y-12206030D01*
X2452430Y-12206030D01*
X2452430Y-12279570D01*
X2525970Y-12279570D01*
X2525970Y-12533570D02*
X2525970Y-12460030D01*
X2452430Y-12460030D01*
X2452430Y-12533570D01*
X2525970Y-12533570D01*
X2525970Y-12787570D02*
X2525970Y-12714030D01*
X2452430Y-12714030D01*
X2452430Y-12787570D01*
X2525970Y-12787570D01*
X2525970Y-13041570D02*
X2525970Y-12968030D01*
X2452430Y-12968030D01*
X2452430Y-13041570D01*
X2525970Y-13041570D01*
X2525970Y-13295570D02*
X2525970Y-13222030D01*
X2452430Y-13222030D01*
X2452430Y-13295570D01*
X2525970Y-13295570D01*
X2525970Y-13549570D02*
X2525970Y-13476030D01*
X2452430Y-13476030D01*
X2452430Y-13549570D01*
X2525970Y-13549570D01*
X2525970Y-13803570D02*
X2525970Y-13730030D01*
X2452430Y-13730030D01*
X2452430Y-13803570D01*
X2525970Y-13803570D01*
X2602170Y-6856670D02*
X2602170Y-6783130D01*
X2528630Y-6783130D01*
X2528630Y-6856670D01*
X2602170Y-6856670D01*
X2602170Y-7110670D02*
X2602170Y-7037130D01*
X2528630Y-7037130D01*
X2528630Y-7110670D01*
X2602170Y-7110670D01*
X2957770Y-6856670D02*
X2957770Y-6783130D01*
X2884230Y-6783130D01*
X2884230Y-6856670D01*
X2957770Y-6856670D01*
X2957770Y-7110670D02*
X2957770Y-7037130D01*
X2884230Y-7037130D01*
X2884230Y-7110670D01*
X2957770Y-7110670D01*
X3313370Y-6856670D02*
X3313370Y-6783130D01*
X3239830Y-6783130D01*
X3239830Y-6856670D01*
X3313370Y-6856670D01*
X3313370Y-7110670D02*
X3313370Y-7037130D01*
X3239830Y-7037130D01*
X3239830Y-7110670D01*
X3313370Y-7110670D01*
X3313370Y-13574970D02*
X3313370Y-13501430D01*
X3239830Y-13501430D01*
X3239830Y-13574970D01*
X3313370Y-13574970D01*
X3313370Y-13828970D02*
X3313370Y-13755430D01*
X3239830Y-13755430D01*
X3239830Y-13828970D01*
X3313370Y-13828970D01*
X3567370Y-13574970D02*
X3567370Y-13501430D01*
X3493830Y-13501430D01*
X3493830Y-13574970D01*
X3567370Y-13574970D01*
X3567370Y-13828970D02*
X3567370Y-13755430D01*
X3493830Y-13755430D01*
X3493830Y-13828970D01*
X3567370Y-13828970D01*
X3668970Y-6856670D02*
X3668970Y-6783130D01*
X3595430Y-6783130D01*
X3595430Y-6856670D01*
X3668970Y-6856670D01*
X3668970Y-7110670D02*
X3668970Y-7037130D01*
X3595430Y-7037130D01*
X3595430Y-7110670D01*
X3668970Y-7110670D01*
X3821370Y-13574970D02*
X3821370Y-13501430D01*
X3747830Y-13501430D01*
X3747830Y-13574970D01*
X3821370Y-13574970D01*
X3821370Y-13828970D02*
X3821370Y-13755430D01*
X3747830Y-13755430D01*
X3747830Y-13828970D01*
X3821370Y-13828970D01*
X4024570Y-6856670D02*
X4024570Y-6783130D01*
X3951030Y-6783130D01*
X3951030Y-6856670D01*
X4024570Y-6856670D01*
X4024570Y-7110670D02*
X4024570Y-7037130D01*
X3951030Y-7037130D01*
X3951030Y-7110670D01*
X4024570Y-7110670D01*
X4075370Y-13574970D02*
X4075370Y-13501430D01*
X4001830Y-13501430D01*
X4001830Y-13574970D01*
X4075370Y-13574970D01*
X4075370Y-13828970D02*
X4075370Y-13755430D01*
X4001830Y-13755430D01*
X4001830Y-13828970D01*
X4075370Y-13828970D01*
X4329370Y-13574970D02*
X4329370Y-13501430D01*
X4255830Y-13501430D01*
X4255830Y-13574970D01*
X4329370Y-13574970D01*
X4329370Y-13828970D02*
X4329370Y-13755430D01*
X4255830Y-13755430D01*
X4255830Y-13828970D01*
X4329370Y-13828970D01*
X4380170Y-6853320D02*
X4380170Y-6779780D01*
X4306630Y-6779780D01*
X4306630Y-6853320D01*
X4380170Y-6853320D01*
X4380170Y-7107320D02*
X4380170Y-7033780D01*
X4306630Y-7033780D01*
X4306630Y-7107320D01*
X4380170Y-7107320D01*
X4583370Y-13574970D02*
X4583370Y-13501430D01*
X4509830Y-13501430D01*
X4509830Y-13574970D01*
X4583370Y-13574970D01*
X4583370Y-13828970D02*
X4583370Y-13755430D01*
X4509830Y-13755430D01*
X4509830Y-13828970D01*
X4583370Y-13828970D01*
X4735770Y-6856670D02*
X4735770Y-6783130D01*
X4662230Y-6783130D01*
X4662230Y-6856670D01*
X4735770Y-6856670D01*
X4735770Y-7110670D02*
X4735770Y-7037130D01*
X4662230Y-7037130D01*
X4662230Y-7110670D01*
X4735770Y-7110670D01*
X4837370Y-13574970D02*
X4837370Y-13501430D01*
X4763830Y-13501430D01*
X4763830Y-13574970D01*
X4837370Y-13574970D01*
X4837370Y-13828970D02*
X4837370Y-13755430D01*
X4763830Y-13755430D01*
X4763830Y-13828970D01*
X4837370Y-13828970D01*
X5091370Y-6856670D02*
X5091370Y-6783130D01*
X5017830Y-6783130D01*
X5017830Y-6856670D01*
X5091370Y-6856670D01*
X5091370Y-7110670D02*
X5091370Y-7037130D01*
X5017830Y-7037130D01*
X5017830Y-7110670D01*
X5091370Y-7110670D01*
X5091370Y-13574970D02*
X5091370Y-13501430D01*
X5017830Y-13501430D01*
X5017830Y-13574970D01*
X5091370Y-13574970D01*
X5091370Y-13828970D02*
X5091370Y-13755430D01*
X5017830Y-13755430D01*
X5017830Y-13828970D01*
X5091370Y-13828970D01*
X5345370Y-13574970D02*
X5345370Y-13501430D01*
X5271830Y-13501430D01*
X5271830Y-13574970D01*
X5345370Y-13574970D01*
X5345370Y-13828970D02*
X5345370Y-13755430D01*
X5271830Y-13755430D01*
X5271830Y-13828970D01*
X5345370Y-13828970D01*
X5446970Y-6856670D02*
X5446970Y-6783130D01*
X5373430Y-6783130D01*
X5373430Y-6856670D01*
X5446970Y-6856670D01*
X5446970Y-7110670D02*
X5446970Y-7037130D01*
X5373430Y-7037130D01*
X5373430Y-7110670D01*
X5446970Y-7110670D01*
X5599370Y-13574970D02*
X5599370Y-13501430D01*
X5525830Y-13501430D01*
X5525830Y-13574970D01*
X5599370Y-13574970D01*
X5599370Y-13828970D02*
X5599370Y-13755430D01*
X5525830Y-13755430D01*
X5525830Y-13828970D01*
X5599370Y-13828970D01*
X5802570Y-6853320D02*
X5802570Y-6779780D01*
X5729030Y-6779780D01*
X5729030Y-6853320D01*
X5802570Y-6853320D01*
X5802570Y-7107320D02*
X5802570Y-7033780D01*
X5729030Y-7033780D01*
X5729030Y-7107320D01*
X5802570Y-7107320D01*
X5853370Y-13574970D02*
X5853370Y-13501430D01*
X5779830Y-13501430D01*
X5779830Y-13574970D01*
X5853370Y-13574970D01*
X5853370Y-13828970D02*
X5853370Y-13755430D01*
X5779830Y-13755430D01*
X5779830Y-13828970D01*
X5853370Y-13828970D01*
X6107370Y-13574970D02*
X6107370Y-13501430D01*
X6033830Y-13501430D01*
X6033830Y-13574970D01*
X6107370Y-13574970D01*
X6107370Y-13828970D02*
X6107370Y-13755430D01*
X6033830Y-13755430D01*
X6033830Y-13828970D01*
X6107370Y-13828970D01*
X6158170Y-6856670D02*
X6158170Y-6783130D01*
X6084630Y-6783130D01*
X6084630Y-6856670D01*
X6158170Y-6856670D01*
X6158170Y-7110670D02*
X6158170Y-7037130D01*
X6084630Y-7037130D01*
X6084630Y-7110670D01*
X6158170Y-7110670D01*
X6361370Y-13574970D02*
X6361370Y-13501430D01*
X6287830Y-13501430D01*
X6287830Y-13574970D01*
X6361370Y-13574970D01*
X6361370Y-13828970D02*
X6361370Y-13755430D01*
X6287830Y-13755430D01*
X6287830Y-13828970D01*
X6361370Y-13828970D01*
X6513770Y-6856670D02*
X6513770Y-6783130D01*
X6440230Y-6783130D01*
X6440230Y-6856670D01*
X6513770Y-6856670D01*
X6513770Y-7110670D02*
X6513770Y-7037130D01*
X6440230Y-7037130D01*
X6440230Y-7110670D01*
X6513770Y-7110670D01*
X6615370Y-13574970D02*
X6615370Y-13501430D01*
X6541830Y-13501430D01*
X6541830Y-13574970D01*
X6615370Y-13574970D01*
X6615370Y-13828970D02*
X6615370Y-13755430D01*
X6541830Y-13755430D01*
X6541830Y-13828970D01*
X6615370Y-13828970D01*
X6869370Y-6856670D02*
X6869370Y-6783130D01*
X6795830Y-6783130D01*
X6795830Y-6856670D01*
X6869370Y-6856670D01*
X6869370Y-7110670D02*
X6869370Y-7037130D01*
X6795830Y-7037130D01*
X6795830Y-7110670D01*
X6869370Y-7110670D01*
X6869370Y-13574970D02*
X6869370Y-13501430D01*
X6795830Y-13501430D01*
X6795830Y-13574970D01*
X6869370Y-13574970D01*
X6869370Y-13828970D02*
X6869370Y-13755430D01*
X6795830Y-13755430D01*
X6795830Y-13828970D01*
X6869370Y-13828970D01*
X7123370Y-13574970D02*
X7123370Y-13501430D01*
X7049830Y-13501430D01*
X7049830Y-13574970D01*
X7123370Y-13574970D01*
X7123370Y-13828970D02*
X7123370Y-13755430D01*
X7049830Y-13755430D01*
X7049830Y-13828970D01*
X7123370Y-13828970D01*
X7224970Y-6853320D02*
X7224970Y-6779780D01*
X7151430Y-6779780D01*
X7151430Y-6853320D01*
X7224970Y-6853320D01*
X7224970Y-7107320D02*
X7224970Y-7033780D01*
X7151430Y-7033780D01*
X7151430Y-7107320D01*
X7224970Y-7107320D01*
X7377370Y-13574970D02*
X7377370Y-13501430D01*
X7303830Y-13501430D01*
X7303830Y-13574970D01*
X7377370Y-13574970D01*
X7377370Y-13828970D02*
X7377370Y-13755430D01*
X7303830Y-13755430D01*
X7303830Y-13828970D01*
X7377370Y-13828970D01*
X7580570Y-6856670D02*
X7580570Y-6783130D01*
X7507030Y-6783130D01*
X7507030Y-6856670D01*
X7580570Y-6856670D01*
X7580570Y-7110670D02*
X7580570Y-7037130D01*
X7507030Y-7037130D01*
X7507030Y-7110670D01*
X7580570Y-7110670D01*
X7631370Y-13574970D02*
X7631370Y-13501430D01*
X7557830Y-13501430D01*
X7557830Y-13574970D01*
X7631370Y-13574970D01*
X7631370Y-13828970D02*
X7631370Y-13755430D01*
X7557830Y-13755430D01*
X7557830Y-13828970D01*
X7631370Y-13828970D01*
X7885370Y-13574970D02*
X7885370Y-13501430D01*
X7811830Y-13501430D01*
X7811830Y-13574970D01*
X7885370Y-13574970D01*
X7885370Y-13828970D02*
X7885370Y-13755430D01*
X7811830Y-13755430D01*
X7811830Y-13828970D01*
X7885370Y-13828970D01*
X7936170Y-6856670D02*
X7936170Y-6783130D01*
X7862630Y-6783130D01*
X7862630Y-6856670D01*
X7936170Y-6856670D01*
X7936170Y-7110670D02*
X7936170Y-7037130D01*
X7862630Y-7037130D01*
X7862630Y-7110670D01*
X7936170Y-7110670D01*
X8139370Y-13574970D02*
X8139370Y-13501430D01*
X8065830Y-13501430D01*
X8065830Y-13574970D01*
X8139370Y-13574970D01*
X8139370Y-13828970D02*
X8139370Y-13755430D01*
X8065830Y-13755430D01*
X8065830Y-13828970D01*
X8139370Y-13828970D01*
X8291770Y-6853320D02*
X8291770Y-6779780D01*
X8218230Y-6779780D01*
X8218230Y-6853320D01*
X8291770Y-6853320D01*
X8291770Y-7107320D02*
X8291770Y-7033780D01*
X8218230Y-7033780D01*
X8218230Y-7107320D01*
X8291770Y-7107320D01*
X8393370Y-13574970D02*
X8393370Y-13501430D01*
X8319830Y-13501430D01*
X8319830Y-13574970D01*
X8393370Y-13574970D01*
X8393370Y-13828970D02*
X8393370Y-13755430D01*
X8319830Y-13755430D01*
X8319830Y-13828970D01*
X8393370Y-13828970D01*
X8647370Y-6853320D02*
X8647370Y-6779780D01*
X8573830Y-6779780D01*
X8573830Y-6853320D01*
X8647370Y-6853320D01*
X8647370Y-7107320D02*
X8647370Y-7033780D01*
X8573830Y-7033780D01*
X8573830Y-7107320D01*
X8647370Y-7107320D01*
X8647370Y-13574970D02*
X8647370Y-13501430D01*
X8573830Y-13501430D01*
X8573830Y-13574970D01*
X8647370Y-13574970D01*
X8647370Y-13828970D02*
X8647370Y-13755430D01*
X8573830Y-13755430D01*
X8573830Y-13828970D01*
X8647370Y-13828970D01*
X8901370Y-13574970D02*
X8901370Y-13501430D01*
X8827830Y-13501430D01*
X8827830Y-13574970D01*
X8901370Y-13574970D01*
X8901370Y-13828970D02*
X8901370Y-13755430D01*
X8827830Y-13755430D01*
X8827830Y-13828970D01*
X8901370Y-13828970D01*
X9002970Y-6856670D02*
X9002970Y-6783130D01*
X8929430Y-6783130D01*
X8929430Y-6856670D01*
X9002970Y-6856670D01*
X9002970Y-7110670D02*
X9002970Y-7037130D01*
X8929430Y-7037130D01*
X8929430Y-7110670D01*
X9002970Y-7110670D01*
X9155370Y-13574970D02*
X9155370Y-13501430D01*
X9081830Y-13501430D01*
X9081830Y-13574970D01*
X9155370Y-13574970D01*
X9155370Y-13828970D02*
X9155370Y-13755430D01*
X9081830Y-13755430D01*
X9081830Y-13828970D01*
X9155370Y-13828970D01*
X9358570Y-6856670D02*
X9358570Y-6783130D01*
X9285030Y-6783130D01*
X9285030Y-6856670D01*
X9358570Y-6856670D01*
X9358570Y-7110670D02*
X9358570Y-7037130D01*
X9285030Y-7037130D01*
X9285030Y-7110670D01*
X9358570Y-7110670D01*
X9409370Y-13574970D02*
X9409370Y-13501430D01*
X9335830Y-13501430D01*
X9335830Y-13574970D01*
X9409370Y-13574970D01*
X9409370Y-13828970D02*
X9409370Y-13755430D01*
X9335830Y-13755430D01*
X9335830Y-13828970D01*
X9409370Y-13828970D01*
X9714170Y-6853320D02*
X9714170Y-6779780D01*
X9640630Y-6779780D01*
X9640630Y-6853320D01*
X9714170Y-6853320D01*
X9714170Y-7107320D02*
X9714170Y-7033780D01*
X9640630Y-7033780D01*
X9640630Y-7107320D01*
X9714170Y-7107320D01*
X9980870Y-7707570D02*
X9980870Y-7634030D01*
X9907330Y-7634030D01*
X9907330Y-7707570D01*
X9980870Y-7707570D01*
X9980870Y-7961570D02*
X9980870Y-7888030D01*
X9907330Y-7888030D01*
X9907330Y-7961570D01*
X9980870Y-7961570D01*
X9980870Y-8215570D02*
X9980870Y-8142030D01*
X9907330Y-8142030D01*
X9907330Y-8215570D01*
X9980870Y-8215570D01*
X9980870Y-8469570D02*
X9980870Y-8396030D01*
X9907330Y-8396030D01*
X9907330Y-8469570D01*
X9980870Y-8469570D01*
X9980870Y-8723570D02*
X9980870Y-8650030D01*
X9907330Y-8650030D01*
X9907330Y-8723570D01*
X9980870Y-8723570D01*
X9980870Y-8977570D02*
X9980870Y-8904030D01*
X9907330Y-8904030D01*
X9907330Y-8977570D01*
X9980870Y-8977570D01*
X9980870Y-9231570D02*
X9980870Y-9158030D01*
X9907330Y-9158030D01*
X9907330Y-9231570D01*
X9980870Y-9231570D01*
X9980870Y-9485570D02*
X9980870Y-9412030D01*
X9907330Y-9412030D01*
X9907330Y-9485570D01*
X9980870Y-9485570D01*
X9980870Y-9739570D02*
X9980870Y-9666030D01*
X9907330Y-9666030D01*
X9907330Y-9739570D01*
X9980870Y-9739570D01*
X9980870Y-9993570D02*
X9980870Y-9920030D01*
X9907330Y-9920030D01*
X9907330Y-9993570D01*
X9980870Y-9993570D01*
X9980870Y-10247570D02*
X9980870Y-10174030D01*
X9907330Y-10174030D01*
X9907330Y-10247570D01*
X9980870Y-10247570D01*
X9980870Y-10501570D02*
X9980870Y-10428030D01*
X9907330Y-10428030D01*
X9907330Y-10501570D01*
X9980870Y-10501570D01*
X9980870Y-10755570D02*
X9980870Y-10682030D01*
X9907330Y-10682030D01*
X9907330Y-10755570D01*
X9980870Y-10755570D01*
X9980870Y-11009570D02*
X9980870Y-10936030D01*
X9907330Y-10936030D01*
X9907330Y-11009570D01*
X9980870Y-11009570D01*
X9980870Y-11263570D02*
X9980870Y-11190030D01*
X9907330Y-11190030D01*
X9907330Y-11263570D01*
X9980870Y-11263570D01*
X9980870Y-11517570D02*
X9980870Y-11444030D01*
X9907330Y-11444030D01*
X9907330Y-11517570D01*
X9980870Y-11517570D01*
X9980870Y-11771570D02*
X9980870Y-11698030D01*
X9907330Y-11698030D01*
X9907330Y-11771570D01*
X9980870Y-11771570D01*
X9980870Y-12025570D02*
X9980870Y-11952030D01*
X9907330Y-11952030D01*
X9907330Y-12025570D01*
X9980870Y-12025570D01*
X9980870Y-12279570D02*
X9980870Y-12206030D01*
X9907330Y-12206030D01*
X9907330Y-12279570D01*
X9980870Y-12279570D01*
X9980870Y-12533570D02*
X9980870Y-12460030D01*
X9907330Y-12460030D01*
X9907330Y-12533570D01*
X9980870Y-12533570D01*
X9980870Y-12787570D02*
X9980870Y-12714030D01*
X9907330Y-12714030D01*
X9907330Y-12787570D01*
X9980870Y-12787570D01*
X9980870Y-13041570D02*
X9980870Y-12968030D01*
X9907330Y-12968030D01*
X9907330Y-13041570D01*
X9980870Y-13041570D01*
X9980870Y-13295570D02*
X9980870Y-13222030D01*
X9907330Y-13222030D01*
X9907330Y-13295570D01*
X9980870Y-13295570D01*
X9980870Y-13549570D02*
X9980870Y-13476030D01*
X9907330Y-13476030D01*
X9907330Y-13549570D01*
X9980870Y-13549570D01*
X9980870Y-13803570D02*
X9980870Y-13730030D01*
X9907330Y-13730030D01*
X9907330Y-13803570D01*
X9980870Y-13803570D01*
X10069770Y-6856670D02*
X10069770Y-6783130D01*
X9996230Y-6783130D01*
X9996230Y-6856670D01*
X10069770Y-6856670D01*
X10069770Y-7110670D02*
X10069770Y-7037130D01*
X9996230Y-7037130D01*
X9996230Y-7110670D01*
X10069770Y-7110670D01*
X10234870Y-7707570D02*
X10234870Y-7634030D01*
X10161330Y-7634030D01*
X10161330Y-7707570D01*
X10234870Y-7707570D01*
X10234870Y-7961570D02*
X10234870Y-7888030D01*
X10161330Y-7888030D01*
X10161330Y-7961570D01*
X10234870Y-7961570D01*
X10234870Y-8215570D02*
X10234870Y-8142030D01*
X10161330Y-8142030D01*
X10161330Y-8215570D01*
X10234870Y-8215570D01*
X10234870Y-8469570D02*
X10234870Y-8396030D01*
X10161330Y-8396030D01*
X10161330Y-8469570D01*
X10234870Y-8469570D01*
X10234870Y-8723570D02*
X10234870Y-8650030D01*
X10161330Y-8650030D01*
X10161330Y-8723570D01*
X10234870Y-8723570D01*
X10234870Y-8977570D02*
X10234870Y-8904030D01*
X10161330Y-8904030D01*
X10161330Y-8977570D01*
X10234870Y-8977570D01*
X10234870Y-9231570D02*
X10234870Y-9158030D01*
X10161330Y-9158030D01*
X10161330Y-9231570D01*
X10234870Y-9231570D01*
X10234870Y-9485570D02*
X10234870Y-9412030D01*
X10161330Y-9412030D01*
X10161330Y-9485570D01*
X10234870Y-9485570D01*
X10234870Y-9739570D02*
X10234870Y-9666030D01*
X10161330Y-9666030D01*
X10161330Y-9739570D01*
X10234870Y-9739570D01*
X10234870Y-9993570D02*
X10234870Y-9920030D01*
X10161330Y-9920030D01*
X10161330Y-9993570D01*
X10234870Y-9993570D01*
X10234870Y-10247570D02*
X10234870Y-10174030D01*
X10161330Y-10174030D01*
X10161330Y-10247570D01*
X10234870Y-10247570D01*
X10234870Y-10501570D02*
X10234870Y-10428030D01*
X10161330Y-10428030D01*
X10161330Y-10501570D01*
X10234870Y-10501570D01*
X10234870Y-10755570D02*
X10234870Y-10682030D01*
X10161330Y-10682030D01*
X10161330Y-10755570D01*
X10234870Y-10755570D01*
X10234870Y-11009570D02*
X10234870Y-10936030D01*
X10161330Y-10936030D01*
X10161330Y-11009570D01*
X10234870Y-11009570D01*
X10234870Y-11263570D02*
X10234870Y-11190030D01*
X10161330Y-11190030D01*
X10161330Y-11263570D01*
X10234870Y-11263570D01*
X10234870Y-11517570D02*
X10234870Y-11444030D01*
X10161330Y-11444030D01*
X10161330Y-11517570D01*
X10234870Y-11517570D01*
X10234870Y-11771570D02*
X10234870Y-11698030D01*
X10161330Y-11698030D01*
X10161330Y-11771570D01*
X10234870Y-11771570D01*
X10234870Y-12025570D02*
X10234870Y-11952030D01*
X10161330Y-11952030D01*
X10161330Y-12025570D01*
X10234870Y-12025570D01*
X10234870Y-12279570D02*
X10234870Y-12206030D01*
X10161330Y-12206030D01*
X10161330Y-12279570D01*
X10234870Y-12279570D01*
X10234870Y-12533570D02*
X10234870Y-12460030D01*
X10161330Y-12460030D01*
X10161330Y-12533570D01*
X10234870Y-12533570D01*
X10234870Y-12787570D02*
X10234870Y-12714030D01*
X10161330Y-12714030D01*
X10161330Y-12787570D01*
X10234870Y-12787570D01*
X10234870Y-13041570D02*
X10234870Y-12968030D01*
X10161330Y-12968030D01*
X10161330Y-13041570D01*
X10234870Y-13041570D01*
X10234870Y-13295570D02*
X10234870Y-13222030D01*
X10161330Y-13222030D01*
X10161330Y-13295570D01*
X10234870Y-13295570D01*
X10234870Y-13549570D02*
X10234870Y-13476030D01*
X10161330Y-13476030D01*
X10161330Y-13549570D01*
X10234870Y-13549570D01*
X10234870Y-13803570D02*
X10234870Y-13730030D01*
X10161330Y-13730030D01*
X10161330Y-13803570D01*
X10234870Y-13803570D01*
X10425370Y-6856670D02*
X10425370Y-6783130D01*
X10351830Y-6783130D01*
X10351830Y-6856670D01*
X10425370Y-6856670D01*
X10425370Y-7110670D02*
X10425370Y-7037130D01*
X10351830Y-7037130D01*
X10351830Y-7110670D01*
X10425370Y-7110670D01*
X10526970Y-7707570D02*
X10526970Y-7634030D01*
X10453430Y-7634030D01*
X10453430Y-7707570D01*
X10526970Y-7707570D01*
X10526970Y-7961570D02*
X10526970Y-7888030D01*
X10453430Y-7888030D01*
X10453430Y-7961570D01*
X10526970Y-7961570D01*
X10526970Y-8215570D02*
X10526970Y-8142030D01*
X10453430Y-8142030D01*
X10453430Y-8215570D01*
X10526970Y-8215570D01*
X10526970Y-8469570D02*
X10526970Y-8396030D01*
X10453430Y-8396030D01*
X10453430Y-8469570D01*
X10526970Y-8469570D01*
X10526970Y-8723570D02*
X10526970Y-8650030D01*
X10453430Y-8650030D01*
X10453430Y-8723570D01*
X10526970Y-8723570D01*
X10526970Y-8977570D02*
X10526970Y-8904030D01*
X10453430Y-8904030D01*
X10453430Y-8977570D01*
X10526970Y-8977570D01*
X10526970Y-9231570D02*
X10526970Y-9158030D01*
X10453430Y-9158030D01*
X10453430Y-9231570D01*
X10526970Y-9231570D01*
X10526970Y-9485570D02*
X10526970Y-9412030D01*
X10453430Y-9412030D01*
X10453430Y-9485570D01*
X10526970Y-9485570D01*
X10526970Y-9739570D02*
X10526970Y-9666030D01*
X10453430Y-9666030D01*
X10453430Y-9739570D01*
X10526970Y-9739570D01*
X10526970Y-9993570D02*
X10526970Y-9920030D01*
X10453430Y-9920030D01*
X10453430Y-9993570D01*
X10526970Y-9993570D01*
X10526970Y-10247570D02*
X10526970Y-10174030D01*
X10453430Y-10174030D01*
X10453430Y-10247570D01*
X10526970Y-10247570D01*
X10526970Y-10501570D02*
X10526970Y-10428030D01*
X10453430Y-10428030D01*
X10453430Y-10501570D01*
X10526970Y-10501570D01*
X10526970Y-10755570D02*
X10526970Y-10682030D01*
X10453430Y-10682030D01*
X10453430Y-10755570D01*
X10526970Y-10755570D01*
X10526970Y-11009570D02*
X10526970Y-10936030D01*
X10453430Y-10936030D01*
X10453430Y-11009570D01*
X10526970Y-11009570D01*
X10526970Y-11263570D02*
X10526970Y-11190030D01*
X10453430Y-11190030D01*
X10453430Y-11263570D01*
X10526970Y-11263570D01*
X10526970Y-11517570D02*
X10526970Y-11444030D01*
X10453430Y-11444030D01*
X10453430Y-11517570D01*
X10526970Y-11517570D01*
X10526970Y-11771570D02*
X10526970Y-11698030D01*
X10453430Y-11698030D01*
X10453430Y-11771570D01*
X10526970Y-11771570D01*
X10526970Y-12025570D02*
X10526970Y-11952030D01*
X10453430Y-11952030D01*
X10453430Y-12025570D01*
X10526970Y-12025570D01*
X10526970Y-12279570D02*
X10526970Y-12206030D01*
X10453430Y-12206030D01*
X10453430Y-12279570D01*
X10526970Y-12279570D01*
X10526970Y-12533570D02*
X10526970Y-12460030D01*
X10453430Y-12460030D01*
X10453430Y-12533570D01*
X10526970Y-12533570D01*
X10526970Y-12787570D02*
X10526970Y-12714030D01*
X10453430Y-12714030D01*
X10453430Y-12787570D01*
X10526970Y-12787570D01*
X10526970Y-13041570D02*
X10526970Y-12968030D01*
X10453430Y-12968030D01*
X10453430Y-13041570D01*
X10526970Y-13041570D01*
X10526970Y-13295570D02*
X10526970Y-13222030D01*
X10453430Y-13222030D01*
X10453430Y-13295570D01*
X10526970Y-13295570D01*
X10526970Y-13549570D02*
X10526970Y-13476030D01*
X10453430Y-13476030D01*
X10453430Y-13549570D01*
X10526970Y-13549570D01*
X10526970Y-13803570D02*
X10526970Y-13730030D01*
X10453430Y-13730030D01*
X10453430Y-13803570D01*
X10526970Y-13803570D01*
X10780970Y-6853320D02*
X10780970Y-6779780D01*
X10707430Y-6779780D01*
X10707430Y-6853320D01*
X10780970Y-6853320D01*
X10780970Y-7107320D02*
X10780970Y-7033780D01*
X10707430Y-7033780D01*
X10707430Y-7107320D01*
X10780970Y-7107320D01*
X10780970Y-7707570D02*
X10780970Y-7634030D01*
X10707430Y-7634030D01*
X10707430Y-7707570D01*
X10780970Y-7707570D01*
X10780970Y-7961570D02*
X10780970Y-7888030D01*
X10707430Y-7888030D01*
X10707430Y-7961570D01*
X10780970Y-7961570D01*
X10780970Y-8215570D02*
X10780970Y-8142030D01*
X10707430Y-8142030D01*
X10707430Y-8215570D01*
X10780970Y-8215570D01*
X10780970Y-8469570D02*
X10780970Y-8396030D01*
X10707430Y-8396030D01*
X10707430Y-8469570D01*
X10780970Y-8469570D01*
X10780970Y-8723570D02*
X10780970Y-8650030D01*
X10707430Y-8650030D01*
X10707430Y-8723570D01*
X10780970Y-8723570D01*
X10780970Y-8977570D02*
X10780970Y-8904030D01*
X10707430Y-8904030D01*
X10707430Y-8977570D01*
X10780970Y-8977570D01*
X10780970Y-9231570D02*
X10780970Y-9158030D01*
X10707430Y-9158030D01*
X10707430Y-9231570D01*
X10780970Y-9231570D01*
X10780970Y-9485570D02*
X10780970Y-9412030D01*
X10707430Y-9412030D01*
X10707430Y-9485570D01*
X10780970Y-9485570D01*
X10780970Y-9739570D02*
X10780970Y-9666030D01*
X10707430Y-9666030D01*
X10707430Y-9739570D01*
X10780970Y-9739570D01*
X10780970Y-9993570D02*
X10780970Y-9920030D01*
X10707430Y-9920030D01*
X10707430Y-9993570D01*
X10780970Y-9993570D01*
X10780970Y-10247570D02*
X10780970Y-10174030D01*
X10707430Y-10174030D01*
X10707430Y-10247570D01*
X10780970Y-10247570D01*
X10780970Y-10501570D02*
X10780970Y-10428030D01*
X10707430Y-10428030D01*
X10707430Y-10501570D01*
X10780970Y-10501570D01*
X10780970Y-10755570D02*
X10780970Y-10682030D01*
X10707430Y-10682030D01*
X10707430Y-10755570D01*
X10780970Y-10755570D01*
X10780970Y-11009570D02*
X10780970Y-10936030D01*
X10707430Y-10936030D01*
X10707430Y-11009570D01*
X10780970Y-11009570D01*
X10780970Y-11263570D02*
X10780970Y-11190030D01*
X10707430Y-11190030D01*
X10707430Y-11263570D01*
X10780970Y-11263570D01*
X10780970Y-11517570D02*
X10780970Y-11444030D01*
X10707430Y-11444030D01*
X10707430Y-11517570D01*
X10780970Y-11517570D01*
X10780970Y-11771570D02*
X10780970Y-11698030D01*
X10707430Y-11698030D01*
X10707430Y-11771570D01*
X10780970Y-11771570D01*
X10780970Y-12025570D02*
X10780970Y-11952030D01*
X10707430Y-11952030D01*
X10707430Y-12025570D01*
X10780970Y-12025570D01*
X10780970Y-12279570D02*
X10780970Y-12206030D01*
X10707430Y-12206030D01*
X10707430Y-12279570D01*
X10780970Y-12279570D01*
X10780970Y-12533570D02*
X10780970Y-12460030D01*
X10707430Y-12460030D01*
X10707430Y-12533570D01*
X10780970Y-12533570D01*
X10780970Y-12787570D02*
X10780970Y-12714030D01*
X10707430Y-12714030D01*
X10707430Y-12787570D01*
X10780970Y-12787570D01*
X10780970Y-13041570D02*
X10780970Y-12968030D01*
X10707430Y-12968030D01*
X10707430Y-13041570D01*
X10780970Y-13041570D01*
X10780970Y-13295570D02*
X10780970Y-13222030D01*
X10707430Y-13222030D01*
X10707430Y-13295570D01*
X10780970Y-13295570D01*
X10780970Y-13549570D02*
X10780970Y-13476030D01*
X10707430Y-13476030D01*
X10707430Y-13549570D01*
X10780970Y-13549570D01*
X10780970Y-13803570D02*
X10780970Y-13730030D01*
X10707430Y-13730030D01*
X10707430Y-13803570D01*
X10780970Y-13803570D01*
X11415970Y-6475670D02*
X11415970Y-6402130D01*
X11342430Y-6402130D01*
X11342430Y-6475670D01*
X11415970Y-6475670D01*
X11415970Y-6729670D02*
X11415970Y-6656130D01*
X11342430Y-6656130D01*
X11342430Y-6729670D01*
X11415970Y-6729670D01*
X11415970Y-6983670D02*
X11415970Y-6910130D01*
X11342430Y-6910130D01*
X11342430Y-6983670D01*
X11415970Y-6983670D01*
X11415970Y-7237670D02*
X11415970Y-7164130D01*
X11342430Y-7164130D01*
X11342430Y-7237670D01*
X11415970Y-7237670D01*
X11415970Y-7491670D02*
X11415970Y-7418130D01*
X11342430Y-7418130D01*
X11342430Y-7491670D01*
X11415970Y-7491670D01*
X11415970Y-7745670D02*
X11415970Y-7672130D01*
X11342430Y-7672130D01*
X11342430Y-7745670D01*
X11415970Y-7745670D01*
X11415970Y-7999670D02*
X11415970Y-7926130D01*
X11342430Y-7926130D01*
X11342430Y-7999670D01*
X11415970Y-7999670D01*
X11415970Y-8253670D02*
X11415970Y-8180130D01*
X11342430Y-8180130D01*
X11342430Y-8253670D01*
X11415970Y-8253670D01*
X11415970Y-8507670D02*
X11415970Y-8434130D01*
X11342430Y-8434130D01*
X11342430Y-8507670D01*
X11415970Y-8507670D01*
X11415970Y-8761670D02*
X11415970Y-8688130D01*
X11342430Y-8688130D01*
X11342430Y-8761670D01*
X11415970Y-8761670D01*
X11415970Y-9015670D02*
X11415970Y-8942130D01*
X11342430Y-8942130D01*
X11342430Y-9015670D01*
X11415970Y-9015670D01*
X11415970Y-9269670D02*
X11415970Y-9196130D01*
X11342430Y-9196130D01*
X11342430Y-9269670D01*
X11415970Y-9269670D01*
X11415970Y-9523670D02*
X11415970Y-9450130D01*
X11342430Y-9450130D01*
X11342430Y-9523670D01*
X11415970Y-9523670D01*
X11415970Y-9777670D02*
X11415970Y-9704130D01*
X11342430Y-9704130D01*
X11342430Y-9777670D01*
X11415970Y-9777670D01*
X11415970Y-10031670D02*
X11415970Y-9958130D01*
X11342430Y-9958130D01*
X11342430Y-10031670D01*
X11415970Y-10031670D01*
X11415970Y-10285670D02*
X11415970Y-10212130D01*
X11342430Y-10212130D01*
X11342430Y-10285670D01*
X11415970Y-10285670D01*
X11415970Y-10539670D02*
X11415970Y-10466130D01*
X11342430Y-10466130D01*
X11342430Y-10539670D01*
X11415970Y-10539670D01*
X11415970Y-10793670D02*
X11415970Y-10720130D01*
X11342430Y-10720130D01*
X11342430Y-10793670D01*
X11415970Y-10793670D01*
X11415970Y-11047670D02*
X11415970Y-10974130D01*
X11342430Y-10974130D01*
X11342430Y-11047670D01*
X11415970Y-11047670D01*
X11415970Y-11301670D02*
X11415970Y-11228130D01*
X11342430Y-11228130D01*
X11342430Y-11301670D01*
X11415970Y-11301670D01*
X11415970Y-11555670D02*
X11415970Y-11482130D01*
X11342430Y-11482130D01*
X11342430Y-11555670D01*
X11415970Y-11555670D01*
X11415970Y-11809670D02*
X11415970Y-11736130D01*
X11342430Y-11736130D01*
X11342430Y-11809670D01*
X11415970Y-11809670D01*
X11415970Y-12063670D02*
X11415970Y-11990130D01*
X11342430Y-11990130D01*
X11342430Y-12063670D01*
X11415970Y-12063670D01*
X11415970Y-12317670D02*
X11415970Y-12244130D01*
X11342430Y-12244130D01*
X11342430Y-12317670D01*
X11415970Y-12317670D01*
X11415970Y-12571670D02*
X11415970Y-12498130D01*
X11342430Y-12498130D01*
X11342430Y-12571670D01*
X11415970Y-12571670D01*
X11415970Y-12825670D02*
X11415970Y-12752130D01*
X11342430Y-12752130D01*
X11342430Y-12825670D01*
X11415970Y-12825670D01*
X11415970Y-13079670D02*
X11415970Y-13006130D01*
X11342430Y-13006130D01*
X11342430Y-13079670D01*
X11415970Y-13079670D01*
X11415970Y-13333670D02*
X11415970Y-13260130D01*
X11342430Y-13260130D01*
X11342430Y-13333670D01*
X11415970Y-13333670D01*
X11415970Y-13587670D02*
X11415970Y-13514130D01*
X11342430Y-13514130D01*
X11342430Y-13587670D01*
X11415970Y-13587670D01*
X11415970Y-13841670D02*
X11415970Y-13768130D01*
X11342430Y-13768130D01*
X11342430Y-13841670D01*
X11415970Y-13841670D01*
X11669970Y-6475670D02*
X11669970Y-6402130D01*
X11596430Y-6402130D01*
X11596430Y-6475670D01*
X11669970Y-6475670D01*
X11669970Y-6729670D02*
X11669970Y-6656130D01*
X11596430Y-6656130D01*
X11596430Y-6729670D01*
X11669970Y-6729670D01*
X11669970Y-6983670D02*
X11669970Y-6910130D01*
X11596430Y-6910130D01*
X11596430Y-6983670D01*
X11669970Y-6983670D01*
X11669970Y-7237670D02*
X11669970Y-7164130D01*
X11596430Y-7164130D01*
X11596430Y-7237670D01*
X11669970Y-7237670D01*
X11669970Y-7491670D02*
X11669970Y-7418130D01*
X11596430Y-7418130D01*
X11596430Y-7491670D01*
X11669970Y-7491670D01*
X11669970Y-7745670D02*
X11669970Y-7672130D01*
X11596430Y-7672130D01*
X11596430Y-7745670D01*
X11669970Y-7745670D01*
X11669970Y-7999670D02*
X11669970Y-7926130D01*
X11596430Y-7926130D01*
X11596430Y-7999670D01*
X11669970Y-7999670D01*
X11669970Y-8253670D02*
X11669970Y-8180130D01*
X11596430Y-8180130D01*
X11596430Y-8253670D01*
X11669970Y-8253670D01*
X11669970Y-8507670D02*
X11669970Y-8434130D01*
X11596430Y-8434130D01*
X11596430Y-8507670D01*
X11669970Y-8507670D01*
X11669970Y-8761670D02*
X11669970Y-8688130D01*
X11596430Y-8688130D01*
X11596430Y-8761670D01*
X11669970Y-8761670D01*
X11669970Y-9015670D02*
X11669970Y-8942130D01*
X11596430Y-8942130D01*
X11596430Y-9015670D01*
X11669970Y-9015670D01*
X11669970Y-9269670D02*
X11669970Y-9196130D01*
X11596430Y-9196130D01*
X11596430Y-9269670D01*
X11669970Y-9269670D01*
X11669970Y-9523670D02*
X11669970Y-9450130D01*
X11596430Y-9450130D01*
X11596430Y-9523670D01*
X11669970Y-9523670D01*
X11669970Y-9777670D02*
X11669970Y-9704130D01*
X11596430Y-9704130D01*
X11596430Y-9777670D01*
X11669970Y-9777670D01*
X11669970Y-10031670D02*
X11669970Y-9958130D01*
X11596430Y-9958130D01*
X11596430Y-10031670D01*
X11669970Y-10031670D01*
X11669970Y-10285670D02*
X11669970Y-10212130D01*
X11596430Y-10212130D01*
X11596430Y-10285670D01*
X11669970Y-10285670D01*
X11669970Y-10539670D02*
X11669970Y-10466130D01*
X11596430Y-10466130D01*
X11596430Y-10539670D01*
X11669970Y-10539670D01*
X11669970Y-10793670D02*
X11669970Y-10720130D01*
X11596430Y-10720130D01*
X11596430Y-10793670D01*
X11669970Y-10793670D01*
X11669970Y-11047670D02*
X11669970Y-10974130D01*
X11596430Y-10974130D01*
X11596430Y-11047670D01*
X11669970Y-11047670D01*
X11669970Y-11301670D02*
X11669970Y-11228130D01*
X11596430Y-11228130D01*
X11596430Y-11301670D01*
X11669970Y-11301670D01*
X11669970Y-11555670D02*
X11669970Y-11482130D01*
X11596430Y-11482130D01*
X11596430Y-11555670D01*
X11669970Y-11555670D01*
X11669970Y-11809670D02*
X11669970Y-11736130D01*
X11596430Y-11736130D01*
X11596430Y-11809670D01*
X11669970Y-11809670D01*
X11669970Y-12063670D02*
X11669970Y-11990130D01*
X11596430Y-11990130D01*
X11596430Y-12063670D01*
X11669970Y-12063670D01*
X11669970Y-12317670D02*
X11669970Y-12244130D01*
X11596430Y-12244130D01*
X11596430Y-12317670D01*
X11669970Y-12317670D01*
X11669970Y-12571670D02*
X11669970Y-12498130D01*
X11596430Y-12498130D01*
X11596430Y-12571670D01*
X11669970Y-12571670D01*
X11669970Y-12825670D02*
X11669970Y-12752130D01*
X11596430Y-12752130D01*
X11596430Y-12825670D01*
X11669970Y-12825670D01*
X11669970Y-13079670D02*
X11669970Y-13006130D01*
X11596430Y-13006130D01*
X11596430Y-13079670D01*
X11669970Y-13079670D01*
X11669970Y-13333670D02*
X11669970Y-13260130D01*
X11596430Y-13260130D01*
X11596430Y-13333670D01*
X11669970Y-13333670D01*
X11669970Y-13587670D02*
X11669970Y-13514130D01*
X11596430Y-13514130D01*
X11596430Y-13587670D01*
X11669970Y-13587670D01*
X11669970Y-13841670D02*
X11669970Y-13768130D01*
X11596430Y-13768130D01*
X11596430Y-13841670D01*
X11669970Y-13841670D01*
X12622470Y-6475670D02*
X12622470Y-6402130D01*
X12548930Y-6402130D01*
X12548930Y-6475670D01*
X12622470Y-6475670D01*
X12622470Y-6729670D02*
X12622470Y-6656130D01*
X12548930Y-6656130D01*
X12548930Y-6729670D01*
X12622470Y-6729670D01*
X12622470Y-6983670D02*
X12622470Y-6910130D01*
X12548930Y-6910130D01*
X12548930Y-6983670D01*
X12622470Y-6983670D01*
X12622470Y-7237670D02*
X12622470Y-7164130D01*
X12548930Y-7164130D01*
X12548930Y-7237670D01*
X12622470Y-7237670D01*
X12622470Y-7491670D02*
X12622470Y-7418130D01*
X12548930Y-7418130D01*
X12548930Y-7491670D01*
X12622470Y-7491670D01*
X12622470Y-7745670D02*
X12622470Y-7672130D01*
X12548930Y-7672130D01*
X12548930Y-7745670D01*
X12622470Y-7745670D01*
X12622470Y-7999670D02*
X12622470Y-7926130D01*
X12548930Y-7926130D01*
X12548930Y-7999670D01*
X12622470Y-7999670D01*
X12622470Y-8253670D02*
X12622470Y-8180130D01*
X12548930Y-8180130D01*
X12548930Y-8253670D01*
X12622470Y-8253670D01*
X12622470Y-8507670D02*
X12622470Y-8434130D01*
X12548930Y-8434130D01*
X12548930Y-8507670D01*
X12622470Y-8507670D01*
X12622470Y-8761670D02*
X12622470Y-8688130D01*
X12548930Y-8688130D01*
X12548930Y-8761670D01*
X12622470Y-8761670D01*
X12622470Y-9015670D02*
X12622470Y-8942130D01*
X12548930Y-8942130D01*
X12548930Y-9015670D01*
X12622470Y-9015670D01*
X12622470Y-9269670D02*
X12622470Y-9196130D01*
X12548930Y-9196130D01*
X12548930Y-9269670D01*
X12622470Y-9269670D01*
X12622470Y-9523670D02*
X12622470Y-9450130D01*
X12548930Y-9450130D01*
X12548930Y-9523670D01*
X12622470Y-9523670D01*
X12622470Y-9777670D02*
X12622470Y-9704130D01*
X12548930Y-9704130D01*
X12548930Y-9777670D01*
X12622470Y-9777670D01*
X12622470Y-10031670D02*
X12622470Y-9958130D01*
X12548930Y-9958130D01*
X12548930Y-10031670D01*
X12622470Y-10031670D01*
X12622470Y-10285670D02*
X12622470Y-10212130D01*
X12548930Y-10212130D01*
X12548930Y-10285670D01*
X12622470Y-10285670D01*
X12622470Y-10539670D02*
X12622470Y-10466130D01*
X12548930Y-10466130D01*
X12548930Y-10539670D01*
X12622470Y-10539670D01*
X12622470Y-10793670D02*
X12622470Y-10720130D01*
X12548930Y-10720130D01*
X12548930Y-10793670D01*
X12622470Y-10793670D01*
X12622470Y-11047670D02*
X12622470Y-10974130D01*
X12548930Y-10974130D01*
X12548930Y-11047670D01*
X12622470Y-11047670D01*
X12622470Y-11301670D02*
X12622470Y-11228130D01*
X12548930Y-11228130D01*
X12548930Y-11301670D01*
X12622470Y-11301670D01*
X12622470Y-11555670D02*
X12622470Y-11482130D01*
X12548930Y-11482130D01*
X12548930Y-11555670D01*
X12622470Y-11555670D01*
X12622470Y-11809670D02*
X12622470Y-11736130D01*
X12548930Y-11736130D01*
X12548930Y-11809670D01*
X12622470Y-11809670D01*
X12622470Y-12063670D02*
X12622470Y-11990130D01*
X12548930Y-11990130D01*
X12548930Y-12063670D01*
X12622470Y-12063670D01*
X12622470Y-12317670D02*
X12622470Y-12244130D01*
X12548930Y-12244130D01*
X12548930Y-12317670D01*
X12622470Y-12317670D01*
X12622470Y-12571670D02*
X12622470Y-12498130D01*
X12548930Y-12498130D01*
X12548930Y-12571670D01*
X12622470Y-12571670D01*
X12622470Y-12825670D02*
X12622470Y-12752130D01*
X12548930Y-12752130D01*
X12548930Y-12825670D01*
X12622470Y-12825670D01*
X12622470Y-13079670D02*
X12622470Y-13006130D01*
X12548930Y-13006130D01*
X12548930Y-13079670D01*
X12622470Y-13079670D01*
X12622470Y-13333670D02*
X12622470Y-13260130D01*
X12548930Y-13260130D01*
X12548930Y-13333670D01*
X12622470Y-13333670D01*
X12622470Y-13587670D02*
X12622470Y-13514130D01*
X12548930Y-13514130D01*
X12548930Y-13587670D01*
X12622470Y-13587670D01*
X12622470Y-13841670D02*
X12622470Y-13768130D01*
X12548930Y-13768130D01*
X12548930Y-13841670D01*
X12622470Y-13841670D01*
X12876470Y-6475670D02*
X12876470Y-6402130D01*
X12802930Y-6402130D01*
X12802930Y-6475670D01*
X12876470Y-6475670D01*
X12876470Y-6729670D02*
X12876470Y-6656130D01*
X12802930Y-6656130D01*
X12802930Y-6729670D01*
X12876470Y-6729670D01*
X12876470Y-6983670D02*
X12876470Y-6910130D01*
X12802930Y-6910130D01*
X12802930Y-6983670D01*
X12876470Y-6983670D01*
X12876470Y-7237670D02*
X12876470Y-7164130D01*
X12802930Y-7164130D01*
X12802930Y-7237670D01*
X12876470Y-7237670D01*
X12876470Y-7491670D02*
X12876470Y-7418130D01*
X12802930Y-7418130D01*
X12802930Y-7491670D01*
X12876470Y-7491670D01*
X12876470Y-7745670D02*
X12876470Y-7672130D01*
X12802930Y-7672130D01*
X12802930Y-7745670D01*
X12876470Y-7745670D01*
X12876470Y-7999670D02*
X12876470Y-7926130D01*
X12802930Y-7926130D01*
X12802930Y-7999670D01*
X12876470Y-7999670D01*
X12876470Y-8253670D02*
X12876470Y-8180130D01*
X12802930Y-8180130D01*
X12802930Y-8253670D01*
X12876470Y-8253670D01*
X12876470Y-8507670D02*
X12876470Y-8434130D01*
X12802930Y-8434130D01*
X12802930Y-8507670D01*
X12876470Y-8507670D01*
X12876470Y-8761670D02*
X12876470Y-8688130D01*
X12802930Y-8688130D01*
X12802930Y-8761670D01*
X12876470Y-8761670D01*
X12876470Y-9015670D02*
X12876470Y-8942130D01*
X12802930Y-8942130D01*
X12802930Y-9015670D01*
X12876470Y-9015670D01*
X12876470Y-9269670D02*
X12876470Y-9196130D01*
X12802930Y-9196130D01*
X12802930Y-9269670D01*
X12876470Y-9269670D01*
X12876470Y-9523670D02*
X12876470Y-9450130D01*
X12802930Y-9450130D01*
X12802930Y-9523670D01*
X12876470Y-9523670D01*
X12876470Y-9777670D02*
X12876470Y-9704130D01*
X12802930Y-9704130D01*
X12802930Y-9777670D01*
X12876470Y-9777670D01*
X12876470Y-10031670D02*
X12876470Y-9958130D01*
X12802930Y-9958130D01*
X12802930Y-10031670D01*
X12876470Y-10031670D01*
X12876470Y-10285670D02*
X12876470Y-10212130D01*
X12802930Y-10212130D01*
X12802930Y-10285670D01*
X12876470Y-10285670D01*
X12876470Y-10539670D02*
X12876470Y-10466130D01*
X12802930Y-10466130D01*
X12802930Y-10539670D01*
X12876470Y-10539670D01*
X12876470Y-10793670D02*
X12876470Y-10720130D01*
X12802930Y-10720130D01*
X12802930Y-10793670D01*
X12876470Y-10793670D01*
X12876470Y-11047670D02*
X12876470Y-10974130D01*
X12802930Y-10974130D01*
X12802930Y-11047670D01*
X12876470Y-11047670D01*
X12876470Y-11301670D02*
X12876470Y-11228130D01*
X12802930Y-11228130D01*
X12802930Y-11301670D01*
X12876470Y-11301670D01*
X12876470Y-11555670D02*
X12876470Y-11482130D01*
X12802930Y-11482130D01*
X12802930Y-11555670D01*
X12876470Y-11555670D01*
X12876470Y-11809670D02*
X12876470Y-11736130D01*
X12802930Y-11736130D01*
X12802930Y-11809670D01*
X12876470Y-11809670D01*
X12876470Y-12063670D02*
X12876470Y-11990130D01*
X12802930Y-11990130D01*
X12802930Y-12063670D01*
X12876470Y-12063670D01*
X12876470Y-12317670D02*
X12876470Y-12244130D01*
X12802930Y-12244130D01*
X12802930Y-12317670D01*
X12876470Y-12317670D01*
X12876470Y-12571670D02*
X12876470Y-12498130D01*
X12802930Y-12498130D01*
X12802930Y-12571670D01*
X12876470Y-12571670D01*
X12876470Y-12825670D02*
X12876470Y-12752130D01*
X12802930Y-12752130D01*
X12802930Y-12825670D01*
X12876470Y-12825670D01*
X12876470Y-13079670D02*
X12876470Y-13006130D01*
X12802930Y-13006130D01*
X12802930Y-13079670D01*
X12876470Y-13079670D01*
X12876470Y-13333670D02*
X12876470Y-13260130D01*
X12802930Y-13260130D01*
X12802930Y-13333670D01*
X12876470Y-13333670D01*
X12876470Y-13587670D02*
X12876470Y-13514130D01*
X12802930Y-13514130D01*
X12802930Y-13587670D01*
X12876470Y-13587670D01*
X12876470Y-13841670D02*
X12876470Y-13768130D01*
X12802930Y-13768130D01*
X12802930Y-13841670D01*
X12876470Y-13841670D01*
X13828970Y-6475670D02*
X13828970Y-6402130D01*
X13755430Y-6402130D01*
X13755430Y-6475670D01*
X13828970Y-6475670D01*
X13828970Y-6729670D02*
X13828970Y-6656130D01*
X13755430Y-6656130D01*
X13755430Y-6729670D01*
X13828970Y-6729670D01*
X13828970Y-6983670D02*
X13828970Y-6910130D01*
X13755430Y-6910130D01*
X13755430Y-6983670D01*
X13828970Y-6983670D01*
X13828970Y-7237670D02*
X13828970Y-7164130D01*
X13755430Y-7164130D01*
X13755430Y-7237670D01*
X13828970Y-7237670D01*
X13828970Y-7491670D02*
X13828970Y-7418130D01*
X13755430Y-7418130D01*
X13755430Y-7491670D01*
X13828970Y-7491670D01*
X13828970Y-7745670D02*
X13828970Y-7672130D01*
X13755430Y-7672130D01*
X13755430Y-7745670D01*
X13828970Y-7745670D01*
X13828970Y-7999670D02*
X13828970Y-7926130D01*
X13755430Y-7926130D01*
X13755430Y-7999670D01*
X13828970Y-7999670D01*
X13828970Y-8253670D02*
X13828970Y-8180130D01*
X13755430Y-8180130D01*
X13755430Y-8253670D01*
X13828970Y-8253670D01*
X13828970Y-8507670D02*
X13828970Y-8434130D01*
X13755430Y-8434130D01*
X13755430Y-8507670D01*
X13828970Y-8507670D01*
X13828970Y-8761670D02*
X13828970Y-8688130D01*
X13755430Y-8688130D01*
X13755430Y-8761670D01*
X13828970Y-8761670D01*
X13828970Y-9015670D02*
X13828970Y-8942130D01*
X13755430Y-8942130D01*
X13755430Y-9015670D01*
X13828970Y-9015670D01*
X13828970Y-9269670D02*
X13828970Y-9196130D01*
X13755430Y-9196130D01*
X13755430Y-9269670D01*
X13828970Y-9269670D01*
X13828970Y-9523670D02*
X13828970Y-9450130D01*
X13755430Y-9450130D01*
X13755430Y-9523670D01*
X13828970Y-9523670D01*
X13828970Y-9777670D02*
X13828970Y-9704130D01*
X13755430Y-9704130D01*
X13755430Y-9777670D01*
X13828970Y-9777670D01*
X13828970Y-10031670D02*
X13828970Y-9958130D01*
X13755430Y-9958130D01*
X13755430Y-10031670D01*
X13828970Y-10031670D01*
X13828970Y-10285670D02*
X13828970Y-10212130D01*
X13755430Y-10212130D01*
X13755430Y-10285670D01*
X13828970Y-10285670D01*
X13828970Y-10539670D02*
X13828970Y-10466130D01*
X13755430Y-10466130D01*
X13755430Y-10539670D01*
X13828970Y-10539670D01*
X13828970Y-10793670D02*
X13828970Y-10720130D01*
X13755430Y-10720130D01*
X13755430Y-10793670D01*
X13828970Y-10793670D01*
X13828970Y-11047670D02*
X13828970Y-10974130D01*
X13755430Y-10974130D01*
X13755430Y-11047670D01*
X13828970Y-11047670D01*
X13828970Y-11301670D02*
X13828970Y-11228130D01*
X13755430Y-11228130D01*
X13755430Y-11301670D01*
X13828970Y-11301670D01*
X13828970Y-11555670D02*
X13828970Y-11482130D01*
X13755430Y-11482130D01*
X13755430Y-11555670D01*
X13828970Y-11555670D01*
X13828970Y-11809670D02*
X13828970Y-11736130D01*
X13755430Y-11736130D01*
X13755430Y-11809670D01*
X13828970Y-11809670D01*
X13828970Y-12063670D02*
X13828970Y-11990130D01*
X13755430Y-11990130D01*
X13755430Y-12063670D01*
X13828970Y-12063670D01*
X13828970Y-12317670D02*
X13828970Y-12244130D01*
X13755430Y-12244130D01*
X13755430Y-12317670D01*
X13828970Y-12317670D01*
X13828970Y-12571670D02*
X13828970Y-12498130D01*
X13755430Y-12498130D01*
X13755430Y-12571670D01*
X13828970Y-12571670D01*
X13828970Y-12825670D02*
X13828970Y-12752130D01*
X13755430Y-12752130D01*
X13755430Y-12825670D01*
X13828970Y-12825670D01*
X13828970Y-13079670D02*
X13828970Y-13006130D01*
X13755430Y-13006130D01*
X13755430Y-13079670D01*
X13828970Y-13079670D01*
X13828970Y-13333670D02*
X13828970Y-13260130D01*
X13755430Y-13260130D01*
X13755430Y-13333670D01*
X13828970Y-13333670D01*
X13828970Y-13587670D02*
X13828970Y-13514130D01*
X13755430Y-13514130D01*
X13755430Y-13587670D01*
X13828970Y-13587670D01*
X13828970Y-13841670D02*
X13828970Y-13768130D01*
X13755430Y-13768130D01*
X13755430Y-13841670D01*
X13828970Y-13841670D01*
X14082970Y-6475670D02*
X14082970Y-6402130D01*
X14009430Y-6402130D01*
X14009430Y-6475670D01*
X14082970Y-6475670D01*
X14082970Y-6729670D02*
X14082970Y-6656130D01*
X14009430Y-6656130D01*
X14009430Y-6729670D01*
X14082970Y-6729670D01*
X14082970Y-6983670D02*
X14082970Y-6910130D01*
X14009430Y-6910130D01*
X14009430Y-6983670D01*
X14082970Y-6983670D01*
X14082970Y-7237670D02*
X14082970Y-7164130D01*
X14009430Y-7164130D01*
X14009430Y-7237670D01*
X14082970Y-7237670D01*
X14082970Y-7491670D02*
X14082970Y-7418130D01*
X14009430Y-7418130D01*
X14009430Y-7491670D01*
X14082970Y-7491670D01*
X14082970Y-7745670D02*
X14082970Y-7672130D01*
X14009430Y-7672130D01*
X14009430Y-7745670D01*
X14082970Y-7745670D01*
X14082970Y-7999670D02*
X14082970Y-7926130D01*
X14009430Y-7926130D01*
X14009430Y-7999670D01*
X14082970Y-7999670D01*
X14082970Y-8253670D02*
X14082970Y-8180130D01*
X14009430Y-8180130D01*
X14009430Y-8253670D01*
X14082970Y-8253670D01*
X14082970Y-8507670D02*
X14082970Y-8434130D01*
X14009430Y-8434130D01*
X14009430Y-8507670D01*
X14082970Y-8507670D01*
X14082970Y-8761670D02*
X14082970Y-8688130D01*
X14009430Y-8688130D01*
X14009430Y-8761670D01*
X14082970Y-8761670D01*
X14082970Y-9015670D02*
X14082970Y-8942130D01*
X14009430Y-8942130D01*
X14009430Y-9015670D01*
X14082970Y-9015670D01*
X14082970Y-9269670D02*
X14082970Y-9196130D01*
X14009430Y-9196130D01*
X14009430Y-9269670D01*
X14082970Y-9269670D01*
X14082970Y-9523670D02*
X14082970Y-9450130D01*
X14009430Y-9450130D01*
X14009430Y-9523670D01*
X14082970Y-9523670D01*
X14082970Y-9777670D02*
X14082970Y-9704130D01*
X14009430Y-9704130D01*
X14009430Y-9777670D01*
X14082970Y-9777670D01*
X14082970Y-10031670D02*
X14082970Y-9958130D01*
X14009430Y-9958130D01*
X14009430Y-10031670D01*
X14082970Y-10031670D01*
X14082970Y-10285670D02*
X14082970Y-10212130D01*
X14009430Y-10212130D01*
X14009430Y-10285670D01*
X14082970Y-10285670D01*
X14082970Y-10539670D02*
X14082970Y-10466130D01*
X14009430Y-10466130D01*
X14009430Y-10539670D01*
X14082970Y-10539670D01*
X14082970Y-10793670D02*
X14082970Y-10720130D01*
X14009430Y-10720130D01*
X14009430Y-10793670D01*
X14082970Y-10793670D01*
X14082970Y-11047670D02*
X14082970Y-10974130D01*
X14009430Y-10974130D01*
X14009430Y-11047670D01*
X14082970Y-11047670D01*
X14082970Y-11301670D02*
X14082970Y-11228130D01*
X14009430Y-11228130D01*
X14009430Y-11301670D01*
X14082970Y-11301670D01*
X14082970Y-11555670D02*
X14082970Y-11482130D01*
X14009430Y-11482130D01*
X14009430Y-11555670D01*
X14082970Y-11555670D01*
X14082970Y-11809670D02*
X14082970Y-11736130D01*
X14009430Y-11736130D01*
X14009430Y-11809670D01*
X14082970Y-11809670D01*
X14082970Y-12063670D02*
X14082970Y-11990130D01*
X14009430Y-11990130D01*
X14009430Y-12063670D01*
X14082970Y-12063670D01*
X14082970Y-12317670D02*
X14082970Y-12244130D01*
X14009430Y-12244130D01*
X14009430Y-12317670D01*
X14082970Y-12317670D01*
X14082970Y-12571670D02*
X14082970Y-12498130D01*
X14009430Y-12498130D01*
X14009430Y-12571670D01*
X14082970Y-12571670D01*
X14082970Y-12825670D02*
X14082970Y-12752130D01*
X14009430Y-12752130D01*
X14009430Y-12825670D01*
X14082970Y-12825670D01*
X14082970Y-13079670D02*
X14082970Y-13006130D01*
X14009430Y-13006130D01*
X14009430Y-13079670D01*
X14082970Y-13079670D01*
X14082970Y-13333670D02*
X14082970Y-13260130D01*
X14009430Y-13260130D01*
X14009430Y-13333670D01*
X14082970Y-13333670D01*
X14082970Y-13587670D02*
X14082970Y-13514130D01*
X14009430Y-13514130D01*
X14009430Y-13587670D01*
X14082970Y-13587670D01*
X14082970Y-13841670D02*
X14082970Y-13768130D01*
X14009430Y-13768130D01*
X14009430Y-13841670D01*
X14082970Y-13841670D01*
X14527470Y-13578320D02*
X14527470Y-13504780D01*
X14453930Y-13504780D01*
X14453930Y-13578320D01*
X14527470Y-13578320D01*
X14527470Y-13832320D02*
X14527470Y-13758780D01*
X14453930Y-13758780D01*
X14453930Y-13832320D01*
X14527470Y-13832320D01*
X14883070Y-13578320D02*
X14883070Y-13504780D01*
X14809530Y-13504780D01*
X14809530Y-13578320D01*
X14883070Y-13578320D01*
X14883070Y-13832320D02*
X14883070Y-13758780D01*
X14809530Y-13758780D01*
X14809530Y-13832320D01*
X14883070Y-13832320D01*
X15238670Y-13578320D02*
X15238670Y-13504780D01*
X15165130Y-13504780D01*
X15165130Y-13578320D01*
X15238670Y-13578320D01*
X15238670Y-13832320D02*
X15238670Y-13758780D01*
X15165130Y-13758780D01*
X15165130Y-13832320D01*
X15238670Y-13832320D01*
X15594270Y-13578320D02*
X15594270Y-13504780D01*
X15520730Y-13504780D01*
X15520730Y-13578320D01*
X15594270Y-13578320D01*
X15594270Y-13832320D02*
X15594270Y-13758780D01*
X15520730Y-13758780D01*
X15520730Y-13832320D01*
X15594270Y-13832320D01*
X15949870Y-13574970D02*
X15949870Y-13501430D01*
X15876330Y-13501430D01*
X15876330Y-13574970D01*
X15949870Y-13574970D01*
X15949870Y-13828970D02*
X15949870Y-13755430D01*
X15876330Y-13755430D01*
X15876330Y-13828970D01*
X15949870Y-13828970D01*
X16305470Y-13578320D02*
X16305470Y-13504780D01*
X16231930Y-13504780D01*
X16231930Y-13578320D01*
X16305470Y-13578320D01*
X16305470Y-13832320D02*
X16305470Y-13758780D01*
X16231930Y-13758780D01*
X16231930Y-13832320D01*
X16305470Y-13832320D01*
X16508670Y-6243720D02*
X16508670Y-6170180D01*
X16435130Y-6170180D01*
X16435130Y-6243720D01*
X16508670Y-6243720D01*
X16508670Y-6497720D02*
X16508670Y-6424180D01*
X16435130Y-6424180D01*
X16435130Y-6497720D01*
X16508670Y-6497720D01*
X16661070Y-13578320D02*
X16661070Y-13504780D01*
X16587530Y-13504780D01*
X16587530Y-13578320D01*
X16661070Y-13578320D01*
X16661070Y-13832320D02*
X16661070Y-13758780D01*
X16587530Y-13758780D01*
X16587530Y-13832320D01*
X16661070Y-13832320D01*
X16864270Y-6243720D02*
X16864270Y-6170180D01*
X16790730Y-6170180D01*
X16790730Y-6243720D01*
X16864270Y-6243720D01*
X16864270Y-6497720D02*
X16864270Y-6424180D01*
X16790730Y-6424180D01*
X16790730Y-6497720D01*
X16864270Y-6497720D01*
X17016670Y-13574970D02*
X17016670Y-13501430D01*
X16943130Y-13501430D01*
X16943130Y-13574970D01*
X17016670Y-13574970D01*
X17016670Y-13828970D02*
X17016670Y-13755430D01*
X16943130Y-13755430D01*
X16943130Y-13828970D01*
X17016670Y-13828970D01*
X17219870Y-6243720D02*
X17219870Y-6170180D01*
X17146330Y-6170180D01*
X17146330Y-6243720D01*
X17219870Y-6243720D01*
X17219870Y-6497720D02*
X17219870Y-6424180D01*
X17146330Y-6424180D01*
X17146330Y-6497720D01*
X17219870Y-6497720D01*
X17372270Y-13578320D02*
X17372270Y-13504780D01*
X17298730Y-13504780D01*
X17298730Y-13578320D01*
X17372270Y-13578320D01*
X17372270Y-13832320D02*
X17372270Y-13758780D01*
X17298730Y-13758780D01*
X17298730Y-13832320D01*
X17372270Y-13832320D01*
X17575470Y-6243720D02*
X17575470Y-6170180D01*
X17501930Y-6170180D01*
X17501930Y-6243720D01*
X17575470Y-6243720D01*
X17575470Y-6497720D02*
X17575470Y-6424180D01*
X17501930Y-6424180D01*
X17501930Y-6497720D01*
X17575470Y-6497720D01*
X17727870Y-13578320D02*
X17727870Y-13504780D01*
X17654330Y-13504780D01*
X17654330Y-13578320D01*
X17727870Y-13578320D01*
X17727870Y-13832320D02*
X17727870Y-13758780D01*
X17654330Y-13758780D01*
X17654330Y-13832320D01*
X17727870Y-13832320D01*
X17931070Y-6243720D02*
X17931070Y-6170180D01*
X17857530Y-6170180D01*
X17857530Y-6243720D01*
X17931070Y-6243720D01*
X17931070Y-6497720D02*
X17931070Y-6424180D01*
X17857530Y-6424180D01*
X17857530Y-6497720D01*
X17931070Y-6497720D01*
X18083470Y-13578320D02*
X18083470Y-13504780D01*
X18009930Y-13504780D01*
X18009930Y-13578320D01*
X18083470Y-13578320D01*
X18083470Y-13832320D02*
X18083470Y-13758780D01*
X18009930Y-13758780D01*
X18009930Y-13832320D01*
X18083470Y-13832320D01*
X18286670Y-6243720D02*
X18286670Y-6170180D01*
X18213130Y-6170180D01*
X18213130Y-6243720D01*
X18286670Y-6243720D01*
X18286670Y-6497720D02*
X18286670Y-6424180D01*
X18213130Y-6424180D01*
X18213130Y-6497720D01*
X18286670Y-6497720D01*
X18439070Y-13578320D02*
X18439070Y-13504780D01*
X18365530Y-13504780D01*
X18365530Y-13578320D01*
X18439070Y-13578320D01*
X18439070Y-13832320D02*
X18439070Y-13758780D01*
X18365530Y-13758780D01*
X18365530Y-13832320D01*
X18439070Y-13832320D01*
X18642270Y-6243720D02*
X18642270Y-6170180D01*
X18568730Y-6170180D01*
X18568730Y-6243720D01*
X18642270Y-6243720D01*
X18642270Y-6497720D02*
X18642270Y-6424180D01*
X18568730Y-6424180D01*
X18568730Y-6497720D01*
X18642270Y-6497720D01*
X18794670Y-13574970D02*
X18794670Y-13501430D01*
X18721130Y-13501430D01*
X18721130Y-13574970D01*
X18794670Y-13574970D01*
X18794670Y-13828970D02*
X18794670Y-13755430D01*
X18721130Y-13755430D01*
X18721130Y-13828970D01*
X18794670Y-13828970D01*
X18997870Y-6243720D02*
X18997870Y-6170180D01*
X18924330Y-6170180D01*
X18924330Y-6243720D01*
X18997870Y-6243720D01*
X18997870Y-6497720D02*
X18997870Y-6424180D01*
X18924330Y-6424180D01*
X18924330Y-6497720D01*
X18997870Y-6497720D01*
X19150270Y-13574970D02*
X19150270Y-13501430D01*
X19076730Y-13501430D01*
X19076730Y-13574970D01*
X19150270Y-13574970D01*
X19150270Y-13828970D02*
X19150270Y-13755430D01*
X19076730Y-13755430D01*
X19076730Y-13828970D01*
X19150270Y-13828970D01*
X19353470Y-6247070D02*
X19353470Y-6173530D01*
X19279930Y-6173530D01*
X19279930Y-6247070D01*
X19353470Y-6247070D01*
X19353470Y-6501070D02*
X19353470Y-6427530D01*
X19279930Y-6427530D01*
X19279930Y-6501070D01*
X19353470Y-6501070D01*
X19505870Y-13578320D02*
X19505870Y-13504780D01*
X19432330Y-13504780D01*
X19432330Y-13578320D01*
X19505870Y-13578320D01*
X19505870Y-13832320D02*
X19505870Y-13758780D01*
X19432330Y-13758780D01*
X19432330Y-13832320D01*
X19505870Y-13832320D01*
X19709070Y-6247070D02*
X19709070Y-6173530D01*
X19635530Y-6173530D01*
X19635530Y-6247070D01*
X19709070Y-6247070D01*
X19709070Y-6501070D02*
X19709070Y-6427530D01*
X19635530Y-6427530D01*
X19635530Y-6501070D01*
X19709070Y-6501070D01*
X20064670Y-6247070D02*
X20064670Y-6173530D01*
X19991130Y-6173530D01*
X19991130Y-6247070D01*
X20064670Y-6247070D01*
X20064670Y-6501070D02*
X20064670Y-6427530D01*
X19991130Y-6427530D01*
X19991130Y-6501070D01*
X20064670Y-6501070D01*
X20420270Y-6243720D02*
X20420270Y-6170180D01*
X20346730Y-6170180D01*
X20346730Y-6243720D01*
X20420270Y-6243720D01*
X20420270Y-6497720D02*
X20420270Y-6424180D01*
X20346730Y-6424180D01*
X20346730Y-6497720D01*
X20420270Y-6497720D01*
X20775870Y-6247070D02*
X20775870Y-6173530D01*
X20702330Y-6173530D01*
X20702330Y-6247070D01*
X20775870Y-6247070D01*
X20775870Y-6501070D02*
X20775870Y-6427530D01*
X20702330Y-6427530D01*
X20702330Y-6501070D01*
X20775870Y-6501070D01*
X21220370Y-6243720D02*
X21220370Y-6170180D01*
X21146830Y-6170180D01*
X21146830Y-6243720D01*
X21220370Y-6243720D01*
X21220370Y-6497720D02*
X21220370Y-6424180D01*
X21146830Y-6424180D01*
X21146830Y-6497720D01*
X21220370Y-6497720D01*
X21512470Y-6243720D02*
X21512470Y-6170180D01*
X21438930Y-6170180D01*
X21438930Y-6243720D01*
X21512470Y-6243720D01*
X21512470Y-6497720D02*
X21512470Y-6424180D01*
X21438930Y-6424180D01*
X21438930Y-6497720D01*
X21512470Y-6497720D01*
X21804570Y-6243720D02*
X21804570Y-6170180D01*
X21731030Y-6170180D01*
X21731030Y-6243720D01*
X21804570Y-6243720D01*
X21804570Y-6497720D02*
X21804570Y-6424180D01*
X21731030Y-6424180D01*
X21731030Y-6497720D01*
X21804570Y-6497720D01*
X22096670Y-6243720D02*
X22096670Y-6170180D01*
X22023130Y-6170180D01*
X22023130Y-6243720D01*
X22096670Y-6243720D01*
X22096670Y-6497720D02*
X22096670Y-6424180D01*
X22023130Y-6424180D01*
X22023130Y-6497720D01*
X22096670Y-6497720D01*
D15*
X15214600Y-7605100D02*
X15352100Y-7467600D01*
X15214600Y-7330100D01*
X15077100Y-7467600D01*
X15214600Y-7605100D01*
X21014600Y-12505100D02*
X21152100Y-12367600D01*
X21014600Y-12230100D01*
X20877100Y-12367600D01*
X21014600Y-12505100D01*
D11*
X2287777Y-14299184D02*
X2287777Y-14099184D01*
X2287777Y-14099184D02*
X2335396Y-14099184D01*
X2335396Y-14099184D02*
X2363967Y-14108708D01*
X2363967Y-14108708D02*
X2383015Y-14127755D01*
X2383015Y-14127755D02*
X2392539Y-14146803D01*
X2392539Y-14146803D02*
X2402063Y-14184898D01*
X2402063Y-14184898D02*
X2402063Y-14213469D01*
X2402063Y-14213469D02*
X2392539Y-14251565D01*
X2392539Y-14251565D02*
X2383015Y-14270612D01*
X2383015Y-14270612D02*
X2363967Y-14289660D01*
X2363967Y-14289660D02*
X2335396Y-14299184D01*
X2335396Y-14299184D02*
X2287777Y-14299184D01*
X2487777Y-14299184D02*
X2487777Y-14165850D01*
X2487777Y-14203946D02*
X2497301Y-14184898D01*
X2497301Y-14184898D02*
X2506824Y-14175374D01*
X2506824Y-14175374D02*
X2525872Y-14165850D01*
X2525872Y-14165850D02*
X2544920Y-14165850D01*
X2611586Y-14299184D02*
X2611586Y-14165850D01*
X2611586Y-14099184D02*
X2602063Y-14108708D01*
X2602063Y-14108708D02*
X2611586Y-14118231D01*
X2611586Y-14118231D02*
X2621110Y-14108708D01*
X2621110Y-14108708D02*
X2611586Y-14099184D01*
X2611586Y-14099184D02*
X2611586Y-14118231D01*
X2735396Y-14299184D02*
X2716348Y-14289660D01*
X2716348Y-14289660D02*
X2706824Y-14270612D01*
X2706824Y-14270612D02*
X2706824Y-14099184D01*
X2840158Y-14299184D02*
X2821110Y-14289660D01*
X2821110Y-14289660D02*
X2811586Y-14270612D01*
X2811586Y-14270612D02*
X2811586Y-14099184D01*
X3068729Y-14299184D02*
X3068729Y-14099184D01*
X3068729Y-14099184D02*
X3135396Y-14242041D01*
X3135396Y-14242041D02*
X3202062Y-14099184D01*
X3202062Y-14099184D02*
X3202062Y-14299184D01*
X3383015Y-14299184D02*
X3383015Y-14194422D01*
X3383015Y-14194422D02*
X3373491Y-14175374D01*
X3373491Y-14175374D02*
X3354443Y-14165850D01*
X3354443Y-14165850D02*
X3316348Y-14165850D01*
X3316348Y-14165850D02*
X3297301Y-14175374D01*
X3383015Y-14289660D02*
X3363967Y-14299184D01*
X3363967Y-14299184D02*
X3316348Y-14299184D01*
X3316348Y-14299184D02*
X3297301Y-14289660D01*
X3297301Y-14289660D02*
X3287777Y-14270612D01*
X3287777Y-14270612D02*
X3287777Y-14251565D01*
X3287777Y-14251565D02*
X3297301Y-14232517D01*
X3297301Y-14232517D02*
X3316348Y-14222993D01*
X3316348Y-14222993D02*
X3363967Y-14222993D01*
X3363967Y-14222993D02*
X3383015Y-14213469D01*
X3478253Y-14165850D02*
X3478253Y-14365850D01*
X3478253Y-14175374D02*
X3497301Y-14165850D01*
X3497301Y-14165850D02*
X3535396Y-14165850D01*
X3535396Y-14165850D02*
X3554443Y-14175374D01*
X3554443Y-14175374D02*
X3563967Y-14184898D01*
X3563967Y-14184898D02*
X3573491Y-14203946D01*
X3573491Y-14203946D02*
X3573491Y-14261088D01*
X3573491Y-14261088D02*
X3563967Y-14280136D01*
X3563967Y-14280136D02*
X3554443Y-14289660D01*
X3554443Y-14289660D02*
X3535396Y-14299184D01*
X3535396Y-14299184D02*
X3497301Y-14299184D01*
X3497301Y-14299184D02*
X3478253Y-14289660D01*
X3659205Y-14280136D02*
X3668729Y-14289660D01*
X3668729Y-14289660D02*
X3659205Y-14299184D01*
X3659205Y-14299184D02*
X3649682Y-14289660D01*
X3649682Y-14289660D02*
X3659205Y-14280136D01*
X3659205Y-14280136D02*
X3659205Y-14299184D01*
X3659205Y-14175374D02*
X3668729Y-14184898D01*
X3668729Y-14184898D02*
X3659205Y-14194422D01*
X3659205Y-14194422D02*
X3649682Y-14184898D01*
X3649682Y-14184898D02*
X3659205Y-14175374D01*
X3659205Y-14175374D02*
X3659205Y-14194422D01*
D12*
X1987000Y-14607700D02*
X2027000Y-14647700D01*
X2027000Y-14607700D02*
X1987000Y-14647700D01*
D11*
X2325872Y-14519184D02*
X2344920Y-14519184D01*
X2344920Y-14519184D02*
X2363967Y-14528708D01*
X2363967Y-14528708D02*
X2373491Y-14538231D01*
X2373491Y-14538231D02*
X2383015Y-14557279D01*
X2383015Y-14557279D02*
X2392539Y-14595374D01*
X2392539Y-14595374D02*
X2392539Y-14642993D01*
X2392539Y-14642993D02*
X2383015Y-14681088D01*
X2383015Y-14681088D02*
X2373491Y-14700136D01*
X2373491Y-14700136D02*
X2363967Y-14709660D01*
X2363967Y-14709660D02*
X2344920Y-14719184D01*
X2344920Y-14719184D02*
X2325872Y-14719184D01*
X2325872Y-14719184D02*
X2306824Y-14709660D01*
X2306824Y-14709660D02*
X2297301Y-14700136D01*
X2297301Y-14700136D02*
X2287777Y-14681088D01*
X2287777Y-14681088D02*
X2278253Y-14642993D01*
X2278253Y-14642993D02*
X2278253Y-14595374D01*
X2278253Y-14595374D02*
X2287777Y-14557279D01*
X2287777Y-14557279D02*
X2297301Y-14538231D01*
X2297301Y-14538231D02*
X2306824Y-14528708D01*
X2306824Y-14528708D02*
X2325872Y-14519184D01*
X2478253Y-14700136D02*
X2487777Y-14709660D01*
X2487777Y-14709660D02*
X2478253Y-14719184D01*
X2478253Y-14719184D02*
X2468729Y-14709660D01*
X2468729Y-14709660D02*
X2478253Y-14700136D01*
X2478253Y-14700136D02*
X2478253Y-14719184D01*
X2659205Y-14585850D02*
X2659205Y-14719184D01*
X2611586Y-14509660D02*
X2563967Y-14652517D01*
X2563967Y-14652517D02*
X2687777Y-14652517D01*
X2802062Y-14519184D02*
X2821110Y-14519184D01*
X2821110Y-14519184D02*
X2840158Y-14528708D01*
X2840158Y-14528708D02*
X2849682Y-14538231D01*
X2849682Y-14538231D02*
X2859205Y-14557279D01*
X2859205Y-14557279D02*
X2868729Y-14595374D01*
X2868729Y-14595374D02*
X2868729Y-14642993D01*
X2868729Y-14642993D02*
X2859205Y-14681088D01*
X2859205Y-14681088D02*
X2849682Y-14700136D01*
X2849682Y-14700136D02*
X2840158Y-14709660D01*
X2840158Y-14709660D02*
X2821110Y-14719184D01*
X2821110Y-14719184D02*
X2802062Y-14719184D01*
X2802062Y-14719184D02*
X2783015Y-14709660D01*
X2783015Y-14709660D02*
X2773491Y-14700136D01*
X2773491Y-14700136D02*
X2763967Y-14681088D01*
X2763967Y-14681088D02*
X2754444Y-14642993D01*
X2754444Y-14642993D02*
X2754444Y-14595374D01*
X2754444Y-14595374D02*
X2763967Y-14557279D01*
X2763967Y-14557279D02*
X2773491Y-14538231D01*
X2773491Y-14538231D02*
X2783015Y-14528708D01*
X2783015Y-14528708D02*
X2802062Y-14519184D01*
X2992539Y-14519184D02*
X3011586Y-14519184D01*
X3011586Y-14519184D02*
X3030634Y-14528708D01*
X3030634Y-14528708D02*
X3040158Y-14538231D01*
X3040158Y-14538231D02*
X3049682Y-14557279D01*
X3049682Y-14557279D02*
X3059205Y-14595374D01*
X3059205Y-14595374D02*
X3059205Y-14642993D01*
X3059205Y-14642993D02*
X3049682Y-14681088D01*
X3049682Y-14681088D02*
X3040158Y-14700136D01*
X3040158Y-14700136D02*
X3030634Y-14709660D01*
X3030634Y-14709660D02*
X3011586Y-14719184D01*
X3011586Y-14719184D02*
X2992539Y-14719184D01*
X2992539Y-14719184D02*
X2973491Y-14709660D01*
X2973491Y-14709660D02*
X2963967Y-14700136D01*
X2963967Y-14700136D02*
X2954443Y-14681088D01*
X2954443Y-14681088D02*
X2944920Y-14642993D01*
X2944920Y-14642993D02*
X2944920Y-14595374D01*
X2944920Y-14595374D02*
X2954443Y-14557279D01*
X2954443Y-14557279D02*
X2963967Y-14538231D01*
X2963967Y-14538231D02*
X2973491Y-14528708D01*
X2973491Y-14528708D02*
X2992539Y-14519184D01*
X3144920Y-14719184D02*
X3144920Y-14585850D01*
X3144920Y-14604898D02*
X3154443Y-14595374D01*
X3154443Y-14595374D02*
X3173491Y-14585850D01*
X3173491Y-14585850D02*
X3202063Y-14585850D01*
X3202063Y-14585850D02*
X3221110Y-14595374D01*
X3221110Y-14595374D02*
X3230634Y-14614422D01*
X3230634Y-14614422D02*
X3230634Y-14719184D01*
X3230634Y-14614422D02*
X3240158Y-14595374D01*
X3240158Y-14595374D02*
X3259205Y-14585850D01*
X3259205Y-14585850D02*
X3287777Y-14585850D01*
X3287777Y-14585850D02*
X3306824Y-14595374D01*
X3306824Y-14595374D02*
X3316348Y-14614422D01*
X3316348Y-14614422D02*
X3316348Y-14719184D01*
X3411586Y-14719184D02*
X3411586Y-14585850D01*
X3411586Y-14604898D02*
X3421110Y-14595374D01*
X3421110Y-14595374D02*
X3440158Y-14585850D01*
X3440158Y-14585850D02*
X3468729Y-14585850D01*
X3468729Y-14585850D02*
X3487777Y-14595374D01*
X3487777Y-14595374D02*
X3497301Y-14614422D01*
X3497301Y-14614422D02*
X3497301Y-14719184D01*
X3497301Y-14614422D02*
X3506824Y-14595374D01*
X3506824Y-14595374D02*
X3525872Y-14585850D01*
X3525872Y-14585850D02*
X3554443Y-14585850D01*
X3554443Y-14585850D02*
X3573491Y-14595374D01*
X3573491Y-14595374D02*
X3583015Y-14614422D01*
X3583015Y-14614422D02*
X3583015Y-14719184D01*
X3973491Y-14509660D02*
X3802063Y-14766803D01*
X4230634Y-14519184D02*
X4249682Y-14519184D01*
X4249682Y-14519184D02*
X4268729Y-14528708D01*
X4268729Y-14528708D02*
X4278253Y-14538231D01*
X4278253Y-14538231D02*
X4287777Y-14557279D01*
X4287777Y-14557279D02*
X4297301Y-14595374D01*
X4297301Y-14595374D02*
X4297301Y-14642993D01*
X4297301Y-14642993D02*
X4287777Y-14681088D01*
X4287777Y-14681088D02*
X4278253Y-14700136D01*
X4278253Y-14700136D02*
X4268729Y-14709660D01*
X4268729Y-14709660D02*
X4249682Y-14719184D01*
X4249682Y-14719184D02*
X4230634Y-14719184D01*
X4230634Y-14719184D02*
X4211587Y-14709660D01*
X4211587Y-14709660D02*
X4202063Y-14700136D01*
X4202063Y-14700136D02*
X4192539Y-14681088D01*
X4192539Y-14681088D02*
X4183015Y-14642993D01*
X4183015Y-14642993D02*
X4183015Y-14595374D01*
X4183015Y-14595374D02*
X4192539Y-14557279D01*
X4192539Y-14557279D02*
X4202063Y-14538231D01*
X4202063Y-14538231D02*
X4211587Y-14528708D01*
X4211587Y-14528708D02*
X4230634Y-14519184D01*
X4383015Y-14700136D02*
X4392539Y-14709660D01*
X4392539Y-14709660D02*
X4383015Y-14719184D01*
X4383015Y-14719184D02*
X4373491Y-14709660D01*
X4373491Y-14709660D02*
X4383015Y-14700136D01*
X4383015Y-14700136D02*
X4383015Y-14719184D01*
X4516348Y-14519184D02*
X4535396Y-14519184D01*
X4535396Y-14519184D02*
X4554444Y-14528708D01*
X4554444Y-14528708D02*
X4563968Y-14538231D01*
X4563968Y-14538231D02*
X4573491Y-14557279D01*
X4573491Y-14557279D02*
X4583015Y-14595374D01*
X4583015Y-14595374D02*
X4583015Y-14642993D01*
X4583015Y-14642993D02*
X4573491Y-14681088D01*
X4573491Y-14681088D02*
X4563968Y-14700136D01*
X4563968Y-14700136D02*
X4554444Y-14709660D01*
X4554444Y-14709660D02*
X4535396Y-14719184D01*
X4535396Y-14719184D02*
X4516348Y-14719184D01*
X4516348Y-14719184D02*
X4497301Y-14709660D01*
X4497301Y-14709660D02*
X4487777Y-14700136D01*
X4487777Y-14700136D02*
X4478253Y-14681088D01*
X4478253Y-14681088D02*
X4468729Y-14642993D01*
X4468729Y-14642993D02*
X4468729Y-14595374D01*
X4468729Y-14595374D02*
X4478253Y-14557279D01*
X4478253Y-14557279D02*
X4487777Y-14538231D01*
X4487777Y-14538231D02*
X4497301Y-14528708D01*
X4497301Y-14528708D02*
X4516348Y-14519184D01*
X4773491Y-14719184D02*
X4659206Y-14719184D01*
X4716348Y-14719184D02*
X4716348Y-14519184D01*
X4716348Y-14519184D02*
X4697301Y-14547755D01*
X4697301Y-14547755D02*
X4678253Y-14566803D01*
X4678253Y-14566803D02*
X4659206Y-14576327D01*
X4954444Y-14519184D02*
X4859206Y-14519184D01*
X4859206Y-14519184D02*
X4849682Y-14614422D01*
X4849682Y-14614422D02*
X4859206Y-14604898D01*
X4859206Y-14604898D02*
X4878253Y-14595374D01*
X4878253Y-14595374D02*
X4925872Y-14595374D01*
X4925872Y-14595374D02*
X4944920Y-14604898D01*
X4944920Y-14604898D02*
X4954444Y-14614422D01*
X4954444Y-14614422D02*
X4963968Y-14633469D01*
X4963968Y-14633469D02*
X4963968Y-14681088D01*
X4963968Y-14681088D02*
X4954444Y-14700136D01*
X4954444Y-14700136D02*
X4944920Y-14709660D01*
X4944920Y-14709660D02*
X4925872Y-14719184D01*
X4925872Y-14719184D02*
X4878253Y-14719184D01*
X4878253Y-14719184D02*
X4859206Y-14709660D01*
X4859206Y-14709660D02*
X4849682Y-14700136D01*
X5030634Y-14519184D02*
X5163968Y-14519184D01*
X5163968Y-14519184D02*
X5078253Y-14719184D01*
X5230634Y-14519184D02*
X5230634Y-14557279D01*
X5306825Y-14519184D02*
X5306825Y-14557279D01*
X5602063Y-14795374D02*
X5592539Y-14785850D01*
X5592539Y-14785850D02*
X5573491Y-14757279D01*
X5573491Y-14757279D02*
X5563968Y-14738231D01*
X5563968Y-14738231D02*
X5554444Y-14709660D01*
X5554444Y-14709660D02*
X5544920Y-14662041D01*
X5544920Y-14662041D02*
X5544920Y-14623946D01*
X5544920Y-14623946D02*
X5554444Y-14576327D01*
X5554444Y-14576327D02*
X5563968Y-14547755D01*
X5563968Y-14547755D02*
X5573491Y-14528708D01*
X5573491Y-14528708D02*
X5592539Y-14500136D01*
X5592539Y-14500136D02*
X5602063Y-14490612D01*
X5668729Y-14538231D02*
X5678253Y-14528708D01*
X5678253Y-14528708D02*
X5697301Y-14519184D01*
X5697301Y-14519184D02*
X5744920Y-14519184D01*
X5744920Y-14519184D02*
X5763968Y-14528708D01*
X5763968Y-14528708D02*
X5773491Y-14538231D01*
X5773491Y-14538231D02*
X5783015Y-14557279D01*
X5783015Y-14557279D02*
X5783015Y-14576327D01*
X5783015Y-14576327D02*
X5773491Y-14604898D01*
X5773491Y-14604898D02*
X5659206Y-14719184D01*
X5659206Y-14719184D02*
X5783015Y-14719184D01*
X5906825Y-14519184D02*
X5925872Y-14519184D01*
X5925872Y-14519184D02*
X5944920Y-14528708D01*
X5944920Y-14528708D02*
X5954444Y-14538231D01*
X5954444Y-14538231D02*
X5963968Y-14557279D01*
X5963968Y-14557279D02*
X5973491Y-14595374D01*
X5973491Y-14595374D02*
X5973491Y-14642993D01*
X5973491Y-14642993D02*
X5963968Y-14681088D01*
X5963968Y-14681088D02*
X5954444Y-14700136D01*
X5954444Y-14700136D02*
X5944920Y-14709660D01*
X5944920Y-14709660D02*
X5925872Y-14719184D01*
X5925872Y-14719184D02*
X5906825Y-14719184D01*
X5906825Y-14719184D02*
X5887777Y-14709660D01*
X5887777Y-14709660D02*
X5878253Y-14700136D01*
X5878253Y-14700136D02*
X5868729Y-14681088D01*
X5868729Y-14681088D02*
X5859206Y-14642993D01*
X5859206Y-14642993D02*
X5859206Y-14595374D01*
X5859206Y-14595374D02*
X5868729Y-14557279D01*
X5868729Y-14557279D02*
X5878253Y-14538231D01*
X5878253Y-14538231D02*
X5887777Y-14528708D01*
X5887777Y-14528708D02*
X5906825Y-14519184D01*
X6211587Y-14719184D02*
X6211587Y-14519184D01*
X6297301Y-14719184D02*
X6297301Y-14614422D01*
X6297301Y-14614422D02*
X6287777Y-14595374D01*
X6287777Y-14595374D02*
X6268730Y-14585850D01*
X6268730Y-14585850D02*
X6240158Y-14585850D01*
X6240158Y-14585850D02*
X6221110Y-14595374D01*
X6221110Y-14595374D02*
X6211587Y-14604898D01*
X6421110Y-14719184D02*
X6402063Y-14709660D01*
X6402063Y-14709660D02*
X6392539Y-14700136D01*
X6392539Y-14700136D02*
X6383015Y-14681088D01*
X6383015Y-14681088D02*
X6383015Y-14623946D01*
X6383015Y-14623946D02*
X6392539Y-14604898D01*
X6392539Y-14604898D02*
X6402063Y-14595374D01*
X6402063Y-14595374D02*
X6421110Y-14585850D01*
X6421110Y-14585850D02*
X6449682Y-14585850D01*
X6449682Y-14585850D02*
X6468730Y-14595374D01*
X6468730Y-14595374D02*
X6478253Y-14604898D01*
X6478253Y-14604898D02*
X6487777Y-14623946D01*
X6487777Y-14623946D02*
X6487777Y-14681088D01*
X6487777Y-14681088D02*
X6478253Y-14700136D01*
X6478253Y-14700136D02*
X6468730Y-14709660D01*
X6468730Y-14709660D02*
X6449682Y-14719184D01*
X6449682Y-14719184D02*
X6421110Y-14719184D01*
X6602063Y-14719184D02*
X6583015Y-14709660D01*
X6583015Y-14709660D02*
X6573491Y-14690612D01*
X6573491Y-14690612D02*
X6573491Y-14519184D01*
X6754444Y-14709660D02*
X6735396Y-14719184D01*
X6735396Y-14719184D02*
X6697301Y-14719184D01*
X6697301Y-14719184D02*
X6678253Y-14709660D01*
X6678253Y-14709660D02*
X6668730Y-14690612D01*
X6668730Y-14690612D02*
X6668730Y-14614422D01*
X6668730Y-14614422D02*
X6678253Y-14595374D01*
X6678253Y-14595374D02*
X6697301Y-14585850D01*
X6697301Y-14585850D02*
X6735396Y-14585850D01*
X6735396Y-14585850D02*
X6754444Y-14595374D01*
X6754444Y-14595374D02*
X6763968Y-14614422D01*
X6763968Y-14614422D02*
X6763968Y-14633469D01*
X6763968Y-14633469D02*
X6668730Y-14652517D01*
X6840158Y-14709660D02*
X6859206Y-14719184D01*
X6859206Y-14719184D02*
X6897301Y-14719184D01*
X6897301Y-14719184D02*
X6916349Y-14709660D01*
X6916349Y-14709660D02*
X6925872Y-14690612D01*
X6925872Y-14690612D02*
X6925872Y-14681088D01*
X6925872Y-14681088D02*
X6916349Y-14662041D01*
X6916349Y-14662041D02*
X6897301Y-14652517D01*
X6897301Y-14652517D02*
X6868730Y-14652517D01*
X6868730Y-14652517D02*
X6849682Y-14642993D01*
X6849682Y-14642993D02*
X6840158Y-14623946D01*
X6840158Y-14623946D02*
X6840158Y-14614422D01*
X6840158Y-14614422D02*
X6849682Y-14595374D01*
X6849682Y-14595374D02*
X6868730Y-14585850D01*
X6868730Y-14585850D02*
X6897301Y-14585850D01*
X6897301Y-14585850D02*
X6916349Y-14595374D01*
X6992539Y-14795374D02*
X7002063Y-14785850D01*
X7002063Y-14785850D02*
X7021111Y-14757279D01*
X7021111Y-14757279D02*
X7030634Y-14738231D01*
X7030634Y-14738231D02*
X7040158Y-14709660D01*
X7040158Y-14709660D02*
X7049682Y-14662041D01*
X7049682Y-14662041D02*
X7049682Y-14623946D01*
X7049682Y-14623946D02*
X7040158Y-14576327D01*
X7040158Y-14576327D02*
X7030634Y-14547755D01*
X7030634Y-14547755D02*
X7021111Y-14528708D01*
X7021111Y-14528708D02*
X7002063Y-14500136D01*
X7002063Y-14500136D02*
X6992539Y-14490612D01*
D10*
X2027000Y-14891700D02*
G75*
G03*
X2027000Y-14891700I-50000J0D01*
G01*
D11*
X2392539Y-14983184D02*
X2278253Y-14983184D01*
X2335396Y-14983184D02*
X2335396Y-14783184D01*
X2335396Y-14783184D02*
X2316348Y-14811755D01*
X2316348Y-14811755D02*
X2297301Y-14830803D01*
X2297301Y-14830803D02*
X2278253Y-14840327D01*
X2478253Y-14964136D02*
X2487777Y-14973660D01*
X2487777Y-14973660D02*
X2478253Y-14983184D01*
X2478253Y-14983184D02*
X2468729Y-14973660D01*
X2468729Y-14973660D02*
X2478253Y-14964136D01*
X2478253Y-14964136D02*
X2478253Y-14983184D01*
X2611586Y-14783184D02*
X2630634Y-14783184D01*
X2630634Y-14783184D02*
X2649682Y-14792708D01*
X2649682Y-14792708D02*
X2659205Y-14802231D01*
X2659205Y-14802231D02*
X2668729Y-14821279D01*
X2668729Y-14821279D02*
X2678253Y-14859374D01*
X2678253Y-14859374D02*
X2678253Y-14906993D01*
X2678253Y-14906993D02*
X2668729Y-14945088D01*
X2668729Y-14945088D02*
X2659205Y-14964136D01*
X2659205Y-14964136D02*
X2649682Y-14973660D01*
X2649682Y-14973660D02*
X2630634Y-14983184D01*
X2630634Y-14983184D02*
X2611586Y-14983184D01*
X2611586Y-14983184D02*
X2592539Y-14973660D01*
X2592539Y-14973660D02*
X2583015Y-14964136D01*
X2583015Y-14964136D02*
X2573491Y-14945088D01*
X2573491Y-14945088D02*
X2563967Y-14906993D01*
X2563967Y-14906993D02*
X2563967Y-14859374D01*
X2563967Y-14859374D02*
X2573491Y-14821279D01*
X2573491Y-14821279D02*
X2583015Y-14802231D01*
X2583015Y-14802231D02*
X2592539Y-14792708D01*
X2592539Y-14792708D02*
X2611586Y-14783184D01*
X2802062Y-14783184D02*
X2821110Y-14783184D01*
X2821110Y-14783184D02*
X2840158Y-14792708D01*
X2840158Y-14792708D02*
X2849682Y-14802231D01*
X2849682Y-14802231D02*
X2859205Y-14821279D01*
X2859205Y-14821279D02*
X2868729Y-14859374D01*
X2868729Y-14859374D02*
X2868729Y-14906993D01*
X2868729Y-14906993D02*
X2859205Y-14945088D01*
X2859205Y-14945088D02*
X2849682Y-14964136D01*
X2849682Y-14964136D02*
X2840158Y-14973660D01*
X2840158Y-14973660D02*
X2821110Y-14983184D01*
X2821110Y-14983184D02*
X2802062Y-14983184D01*
X2802062Y-14983184D02*
X2783015Y-14973660D01*
X2783015Y-14973660D02*
X2773491Y-14964136D01*
X2773491Y-14964136D02*
X2763967Y-14945088D01*
X2763967Y-14945088D02*
X2754444Y-14906993D01*
X2754444Y-14906993D02*
X2754444Y-14859374D01*
X2754444Y-14859374D02*
X2763967Y-14821279D01*
X2763967Y-14821279D02*
X2773491Y-14802231D01*
X2773491Y-14802231D02*
X2783015Y-14792708D01*
X2783015Y-14792708D02*
X2802062Y-14783184D01*
X2992539Y-14783184D02*
X3011586Y-14783184D01*
X3011586Y-14783184D02*
X3030634Y-14792708D01*
X3030634Y-14792708D02*
X3040158Y-14802231D01*
X3040158Y-14802231D02*
X3049682Y-14821279D01*
X3049682Y-14821279D02*
X3059205Y-14859374D01*
X3059205Y-14859374D02*
X3059205Y-14906993D01*
X3059205Y-14906993D02*
X3049682Y-14945088D01*
X3049682Y-14945088D02*
X3040158Y-14964136D01*
X3040158Y-14964136D02*
X3030634Y-14973660D01*
X3030634Y-14973660D02*
X3011586Y-14983184D01*
X3011586Y-14983184D02*
X2992539Y-14983184D01*
X2992539Y-14983184D02*
X2973491Y-14973660D01*
X2973491Y-14973660D02*
X2963967Y-14964136D01*
X2963967Y-14964136D02*
X2954443Y-14945088D01*
X2954443Y-14945088D02*
X2944920Y-14906993D01*
X2944920Y-14906993D02*
X2944920Y-14859374D01*
X2944920Y-14859374D02*
X2954443Y-14821279D01*
X2954443Y-14821279D02*
X2963967Y-14802231D01*
X2963967Y-14802231D02*
X2973491Y-14792708D01*
X2973491Y-14792708D02*
X2992539Y-14783184D01*
X3144920Y-14983184D02*
X3144920Y-14849850D01*
X3144920Y-14868898D02*
X3154443Y-14859374D01*
X3154443Y-14859374D02*
X3173491Y-14849850D01*
X3173491Y-14849850D02*
X3202063Y-14849850D01*
X3202063Y-14849850D02*
X3221110Y-14859374D01*
X3221110Y-14859374D02*
X3230634Y-14878422D01*
X3230634Y-14878422D02*
X3230634Y-14983184D01*
X3230634Y-14878422D02*
X3240158Y-14859374D01*
X3240158Y-14859374D02*
X3259205Y-14849850D01*
X3259205Y-14849850D02*
X3287777Y-14849850D01*
X3287777Y-14849850D02*
X3306824Y-14859374D01*
X3306824Y-14859374D02*
X3316348Y-14878422D01*
X3316348Y-14878422D02*
X3316348Y-14983184D01*
X3411586Y-14983184D02*
X3411586Y-14849850D01*
X3411586Y-14868898D02*
X3421110Y-14859374D01*
X3421110Y-14859374D02*
X3440158Y-14849850D01*
X3440158Y-14849850D02*
X3468729Y-14849850D01*
X3468729Y-14849850D02*
X3487777Y-14859374D01*
X3487777Y-14859374D02*
X3497301Y-14878422D01*
X3497301Y-14878422D02*
X3497301Y-14983184D01*
X3497301Y-14878422D02*
X3506824Y-14859374D01*
X3506824Y-14859374D02*
X3525872Y-14849850D01*
X3525872Y-14849850D02*
X3554443Y-14849850D01*
X3554443Y-14849850D02*
X3573491Y-14859374D01*
X3573491Y-14859374D02*
X3583015Y-14878422D01*
X3583015Y-14878422D02*
X3583015Y-14983184D01*
X3973491Y-14773660D02*
X3802063Y-15030803D01*
X4230634Y-14783184D02*
X4249682Y-14783184D01*
X4249682Y-14783184D02*
X4268729Y-14792708D01*
X4268729Y-14792708D02*
X4278253Y-14802231D01*
X4278253Y-14802231D02*
X4287777Y-14821279D01*
X4287777Y-14821279D02*
X4297301Y-14859374D01*
X4297301Y-14859374D02*
X4297301Y-14906993D01*
X4297301Y-14906993D02*
X4287777Y-14945088D01*
X4287777Y-14945088D02*
X4278253Y-14964136D01*
X4278253Y-14964136D02*
X4268729Y-14973660D01*
X4268729Y-14973660D02*
X4249682Y-14983184D01*
X4249682Y-14983184D02*
X4230634Y-14983184D01*
X4230634Y-14983184D02*
X4211587Y-14973660D01*
X4211587Y-14973660D02*
X4202063Y-14964136D01*
X4202063Y-14964136D02*
X4192539Y-14945088D01*
X4192539Y-14945088D02*
X4183015Y-14906993D01*
X4183015Y-14906993D02*
X4183015Y-14859374D01*
X4183015Y-14859374D02*
X4192539Y-14821279D01*
X4192539Y-14821279D02*
X4202063Y-14802231D01*
X4202063Y-14802231D02*
X4211587Y-14792708D01*
X4211587Y-14792708D02*
X4230634Y-14783184D01*
X4383015Y-14964136D02*
X4392539Y-14973660D01*
X4392539Y-14973660D02*
X4383015Y-14983184D01*
X4383015Y-14983184D02*
X4373491Y-14973660D01*
X4373491Y-14973660D02*
X4383015Y-14964136D01*
X4383015Y-14964136D02*
X4383015Y-14983184D01*
X4516348Y-14783184D02*
X4535396Y-14783184D01*
X4535396Y-14783184D02*
X4554444Y-14792708D01*
X4554444Y-14792708D02*
X4563968Y-14802231D01*
X4563968Y-14802231D02*
X4573491Y-14821279D01*
X4573491Y-14821279D02*
X4583015Y-14859374D01*
X4583015Y-14859374D02*
X4583015Y-14906993D01*
X4583015Y-14906993D02*
X4573491Y-14945088D01*
X4573491Y-14945088D02*
X4563968Y-14964136D01*
X4563968Y-14964136D02*
X4554444Y-14973660D01*
X4554444Y-14973660D02*
X4535396Y-14983184D01*
X4535396Y-14983184D02*
X4516348Y-14983184D01*
X4516348Y-14983184D02*
X4497301Y-14973660D01*
X4497301Y-14973660D02*
X4487777Y-14964136D01*
X4487777Y-14964136D02*
X4478253Y-14945088D01*
X4478253Y-14945088D02*
X4468729Y-14906993D01*
X4468729Y-14906993D02*
X4468729Y-14859374D01*
X4468729Y-14859374D02*
X4478253Y-14821279D01*
X4478253Y-14821279D02*
X4487777Y-14802231D01*
X4487777Y-14802231D02*
X4497301Y-14792708D01*
X4497301Y-14792708D02*
X4516348Y-14783184D01*
X4649682Y-14783184D02*
X4773491Y-14783184D01*
X4773491Y-14783184D02*
X4706825Y-14859374D01*
X4706825Y-14859374D02*
X4735396Y-14859374D01*
X4735396Y-14859374D02*
X4754444Y-14868898D01*
X4754444Y-14868898D02*
X4763968Y-14878422D01*
X4763968Y-14878422D02*
X4773491Y-14897469D01*
X4773491Y-14897469D02*
X4773491Y-14945088D01*
X4773491Y-14945088D02*
X4763968Y-14964136D01*
X4763968Y-14964136D02*
X4754444Y-14973660D01*
X4754444Y-14973660D02*
X4735396Y-14983184D01*
X4735396Y-14983184D02*
X4678253Y-14983184D01*
X4678253Y-14983184D02*
X4659206Y-14973660D01*
X4659206Y-14973660D02*
X4649682Y-14964136D01*
X4868729Y-14983184D02*
X4906825Y-14983184D01*
X4906825Y-14983184D02*
X4925872Y-14973660D01*
X4925872Y-14973660D02*
X4935396Y-14964136D01*
X4935396Y-14964136D02*
X4954444Y-14935565D01*
X4954444Y-14935565D02*
X4963968Y-14897469D01*
X4963968Y-14897469D02*
X4963968Y-14821279D01*
X4963968Y-14821279D02*
X4954444Y-14802231D01*
X4954444Y-14802231D02*
X4944920Y-14792708D01*
X4944920Y-14792708D02*
X4925872Y-14783184D01*
X4925872Y-14783184D02*
X4887777Y-14783184D01*
X4887777Y-14783184D02*
X4868729Y-14792708D01*
X4868729Y-14792708D02*
X4859206Y-14802231D01*
X4859206Y-14802231D02*
X4849682Y-14821279D01*
X4849682Y-14821279D02*
X4849682Y-14868898D01*
X4849682Y-14868898D02*
X4859206Y-14887946D01*
X4859206Y-14887946D02*
X4868729Y-14897469D01*
X4868729Y-14897469D02*
X4887777Y-14906993D01*
X4887777Y-14906993D02*
X4925872Y-14906993D01*
X4925872Y-14906993D02*
X4944920Y-14897469D01*
X4944920Y-14897469D02*
X4954444Y-14887946D01*
X4954444Y-14887946D02*
X4963968Y-14868898D01*
X5135396Y-14849850D02*
X5135396Y-14983184D01*
X5087777Y-14773660D02*
X5040158Y-14916517D01*
X5040158Y-14916517D02*
X5163968Y-14916517D01*
X5230634Y-14783184D02*
X5230634Y-14821279D01*
X5306825Y-14783184D02*
X5306825Y-14821279D01*
X5602063Y-15059374D02*
X5592539Y-15049850D01*
X5592539Y-15049850D02*
X5573491Y-15021279D01*
X5573491Y-15021279D02*
X5563968Y-15002231D01*
X5563968Y-15002231D02*
X5554444Y-14973660D01*
X5554444Y-14973660D02*
X5544920Y-14926041D01*
X5544920Y-14926041D02*
X5544920Y-14887946D01*
X5544920Y-14887946D02*
X5554444Y-14840327D01*
X5554444Y-14840327D02*
X5563968Y-14811755D01*
X5563968Y-14811755D02*
X5573491Y-14792708D01*
X5573491Y-14792708D02*
X5592539Y-14764136D01*
X5592539Y-14764136D02*
X5602063Y-14754612D01*
X5659206Y-14783184D02*
X5783015Y-14783184D01*
X5783015Y-14783184D02*
X5716348Y-14859374D01*
X5716348Y-14859374D02*
X5744920Y-14859374D01*
X5744920Y-14859374D02*
X5763968Y-14868898D01*
X5763968Y-14868898D02*
X5773491Y-14878422D01*
X5773491Y-14878422D02*
X5783015Y-14897469D01*
X5783015Y-14897469D02*
X5783015Y-14945088D01*
X5783015Y-14945088D02*
X5773491Y-14964136D01*
X5773491Y-14964136D02*
X5763968Y-14973660D01*
X5763968Y-14973660D02*
X5744920Y-14983184D01*
X5744920Y-14983184D02*
X5687777Y-14983184D01*
X5687777Y-14983184D02*
X5668729Y-14973660D01*
X5668729Y-14973660D02*
X5659206Y-14964136D01*
X5906825Y-14783184D02*
X5925872Y-14783184D01*
X5925872Y-14783184D02*
X5944920Y-14792708D01*
X5944920Y-14792708D02*
X5954444Y-14802231D01*
X5954444Y-14802231D02*
X5963968Y-14821279D01*
X5963968Y-14821279D02*
X5973491Y-14859374D01*
X5973491Y-14859374D02*
X5973491Y-14906993D01*
X5973491Y-14906993D02*
X5963968Y-14945088D01*
X5963968Y-14945088D02*
X5954444Y-14964136D01*
X5954444Y-14964136D02*
X5944920Y-14973660D01*
X5944920Y-14973660D02*
X5925872Y-14983184D01*
X5925872Y-14983184D02*
X5906825Y-14983184D01*
X5906825Y-14983184D02*
X5887777Y-14973660D01*
X5887777Y-14973660D02*
X5878253Y-14964136D01*
X5878253Y-14964136D02*
X5868729Y-14945088D01*
X5868729Y-14945088D02*
X5859206Y-14906993D01*
X5859206Y-14906993D02*
X5859206Y-14859374D01*
X5859206Y-14859374D02*
X5868729Y-14821279D01*
X5868729Y-14821279D02*
X5878253Y-14802231D01*
X5878253Y-14802231D02*
X5887777Y-14792708D01*
X5887777Y-14792708D02*
X5906825Y-14783184D01*
X6211587Y-14983184D02*
X6211587Y-14783184D01*
X6297301Y-14983184D02*
X6297301Y-14878422D01*
X6297301Y-14878422D02*
X6287777Y-14859374D01*
X6287777Y-14859374D02*
X6268730Y-14849850D01*
X6268730Y-14849850D02*
X6240158Y-14849850D01*
X6240158Y-14849850D02*
X6221110Y-14859374D01*
X6221110Y-14859374D02*
X6211587Y-14868898D01*
X6421110Y-14983184D02*
X6402063Y-14973660D01*
X6402063Y-14973660D02*
X6392539Y-14964136D01*
X6392539Y-14964136D02*
X6383015Y-14945088D01*
X6383015Y-14945088D02*
X6383015Y-14887946D01*
X6383015Y-14887946D02*
X6392539Y-14868898D01*
X6392539Y-14868898D02*
X6402063Y-14859374D01*
X6402063Y-14859374D02*
X6421110Y-14849850D01*
X6421110Y-14849850D02*
X6449682Y-14849850D01*
X6449682Y-14849850D02*
X6468730Y-14859374D01*
X6468730Y-14859374D02*
X6478253Y-14868898D01*
X6478253Y-14868898D02*
X6487777Y-14887946D01*
X6487777Y-14887946D02*
X6487777Y-14945088D01*
X6487777Y-14945088D02*
X6478253Y-14964136D01*
X6478253Y-14964136D02*
X6468730Y-14973660D01*
X6468730Y-14973660D02*
X6449682Y-14983184D01*
X6449682Y-14983184D02*
X6421110Y-14983184D01*
X6602063Y-14983184D02*
X6583015Y-14973660D01*
X6583015Y-14973660D02*
X6573491Y-14954612D01*
X6573491Y-14954612D02*
X6573491Y-14783184D01*
X6754444Y-14973660D02*
X6735396Y-14983184D01*
X6735396Y-14983184D02*
X6697301Y-14983184D01*
X6697301Y-14983184D02*
X6678253Y-14973660D01*
X6678253Y-14973660D02*
X6668730Y-14954612D01*
X6668730Y-14954612D02*
X6668730Y-14878422D01*
X6668730Y-14878422D02*
X6678253Y-14859374D01*
X6678253Y-14859374D02*
X6697301Y-14849850D01*
X6697301Y-14849850D02*
X6735396Y-14849850D01*
X6735396Y-14849850D02*
X6754444Y-14859374D01*
X6754444Y-14859374D02*
X6763968Y-14878422D01*
X6763968Y-14878422D02*
X6763968Y-14897469D01*
X6763968Y-14897469D02*
X6668730Y-14916517D01*
X6840158Y-14973660D02*
X6859206Y-14983184D01*
X6859206Y-14983184D02*
X6897301Y-14983184D01*
X6897301Y-14983184D02*
X6916349Y-14973660D01*
X6916349Y-14973660D02*
X6925872Y-14954612D01*
X6925872Y-14954612D02*
X6925872Y-14945088D01*
X6925872Y-14945088D02*
X6916349Y-14926041D01*
X6916349Y-14926041D02*
X6897301Y-14916517D01*
X6897301Y-14916517D02*
X6868730Y-14916517D01*
X6868730Y-14916517D02*
X6849682Y-14906993D01*
X6849682Y-14906993D02*
X6840158Y-14887946D01*
X6840158Y-14887946D02*
X6840158Y-14878422D01*
X6840158Y-14878422D02*
X6849682Y-14859374D01*
X6849682Y-14859374D02*
X6868730Y-14849850D01*
X6868730Y-14849850D02*
X6897301Y-14849850D01*
X6897301Y-14849850D02*
X6916349Y-14859374D01*
X6992539Y-15059374D02*
X7002063Y-15049850D01*
X7002063Y-15049850D02*
X7021111Y-15021279D01*
X7021111Y-15021279D02*
X7030634Y-15002231D01*
X7030634Y-15002231D02*
X7040158Y-14973660D01*
X7040158Y-14973660D02*
X7049682Y-14926041D01*
X7049682Y-14926041D02*
X7049682Y-14887946D01*
X7049682Y-14887946D02*
X7040158Y-14840327D01*
X7040158Y-14840327D02*
X7030634Y-14811755D01*
X7030634Y-14811755D02*
X7021111Y-14792708D01*
X7021111Y-14792708D02*
X7002063Y-14764136D01*
X7002063Y-14764136D02*
X6992539Y-14754612D01*
D13*
X1976200Y-15104900D02*
X1976200Y-15206500D01*
X1925400Y-15155700D02*
X2027000Y-15155700D01*
D11*
X2392539Y-15247184D02*
X2278253Y-15247184D01*
X2335396Y-15247184D02*
X2335396Y-15047184D01*
X2335396Y-15047184D02*
X2316348Y-15075755D01*
X2316348Y-15075755D02*
X2297301Y-15094803D01*
X2297301Y-15094803D02*
X2278253Y-15104327D01*
X2478253Y-15228136D02*
X2487777Y-15237660D01*
X2487777Y-15237660D02*
X2478253Y-15247184D01*
X2478253Y-15247184D02*
X2468729Y-15237660D01*
X2468729Y-15237660D02*
X2478253Y-15228136D01*
X2478253Y-15228136D02*
X2478253Y-15247184D01*
X2611586Y-15047184D02*
X2630634Y-15047184D01*
X2630634Y-15047184D02*
X2649682Y-15056708D01*
X2649682Y-15056708D02*
X2659205Y-15066231D01*
X2659205Y-15066231D02*
X2668729Y-15085279D01*
X2668729Y-15085279D02*
X2678253Y-15123374D01*
X2678253Y-15123374D02*
X2678253Y-15170993D01*
X2678253Y-15170993D02*
X2668729Y-15209088D01*
X2668729Y-15209088D02*
X2659205Y-15228136D01*
X2659205Y-15228136D02*
X2649682Y-15237660D01*
X2649682Y-15237660D02*
X2630634Y-15247184D01*
X2630634Y-15247184D02*
X2611586Y-15247184D01*
X2611586Y-15247184D02*
X2592539Y-15237660D01*
X2592539Y-15237660D02*
X2583015Y-15228136D01*
X2583015Y-15228136D02*
X2573491Y-15209088D01*
X2573491Y-15209088D02*
X2563967Y-15170993D01*
X2563967Y-15170993D02*
X2563967Y-15123374D01*
X2563967Y-15123374D02*
X2573491Y-15085279D01*
X2573491Y-15085279D02*
X2583015Y-15066231D01*
X2583015Y-15066231D02*
X2592539Y-15056708D01*
X2592539Y-15056708D02*
X2611586Y-15047184D01*
X2868729Y-15247184D02*
X2754444Y-15247184D01*
X2811586Y-15247184D02*
X2811586Y-15047184D01*
X2811586Y-15047184D02*
X2792539Y-15075755D01*
X2792539Y-15075755D02*
X2773491Y-15094803D01*
X2773491Y-15094803D02*
X2754444Y-15104327D01*
X3040158Y-15047184D02*
X3002062Y-15047184D01*
X3002062Y-15047184D02*
X2983015Y-15056708D01*
X2983015Y-15056708D02*
X2973491Y-15066231D01*
X2973491Y-15066231D02*
X2954443Y-15094803D01*
X2954443Y-15094803D02*
X2944920Y-15132898D01*
X2944920Y-15132898D02*
X2944920Y-15209088D01*
X2944920Y-15209088D02*
X2954443Y-15228136D01*
X2954443Y-15228136D02*
X2963967Y-15237660D01*
X2963967Y-15237660D02*
X2983015Y-15247184D01*
X2983015Y-15247184D02*
X3021110Y-15247184D01*
X3021110Y-15247184D02*
X3040158Y-15237660D01*
X3040158Y-15237660D02*
X3049682Y-15228136D01*
X3049682Y-15228136D02*
X3059205Y-15209088D01*
X3059205Y-15209088D02*
X3059205Y-15161469D01*
X3059205Y-15161469D02*
X3049682Y-15142422D01*
X3049682Y-15142422D02*
X3040158Y-15132898D01*
X3040158Y-15132898D02*
X3021110Y-15123374D01*
X3021110Y-15123374D02*
X2983015Y-15123374D01*
X2983015Y-15123374D02*
X2963967Y-15132898D01*
X2963967Y-15132898D02*
X2954443Y-15142422D01*
X2954443Y-15142422D02*
X2944920Y-15161469D01*
X3144920Y-15247184D02*
X3144920Y-15113850D01*
X3144920Y-15132898D02*
X3154443Y-15123374D01*
X3154443Y-15123374D02*
X3173491Y-15113850D01*
X3173491Y-15113850D02*
X3202063Y-15113850D01*
X3202063Y-15113850D02*
X3221110Y-15123374D01*
X3221110Y-15123374D02*
X3230634Y-15142422D01*
X3230634Y-15142422D02*
X3230634Y-15247184D01*
X3230634Y-15142422D02*
X3240158Y-15123374D01*
X3240158Y-15123374D02*
X3259205Y-15113850D01*
X3259205Y-15113850D02*
X3287777Y-15113850D01*
X3287777Y-15113850D02*
X3306824Y-15123374D01*
X3306824Y-15123374D02*
X3316348Y-15142422D01*
X3316348Y-15142422D02*
X3316348Y-15247184D01*
X3411586Y-15247184D02*
X3411586Y-15113850D01*
X3411586Y-15132898D02*
X3421110Y-15123374D01*
X3421110Y-15123374D02*
X3440158Y-15113850D01*
X3440158Y-15113850D02*
X3468729Y-15113850D01*
X3468729Y-15113850D02*
X3487777Y-15123374D01*
X3487777Y-15123374D02*
X3497301Y-15142422D01*
X3497301Y-15142422D02*
X3497301Y-15247184D01*
X3497301Y-15142422D02*
X3506824Y-15123374D01*
X3506824Y-15123374D02*
X3525872Y-15113850D01*
X3525872Y-15113850D02*
X3554443Y-15113850D01*
X3554443Y-15113850D02*
X3573491Y-15123374D01*
X3573491Y-15123374D02*
X3583015Y-15142422D01*
X3583015Y-15142422D02*
X3583015Y-15247184D01*
X3973491Y-15037660D02*
X3802063Y-15294803D01*
X4230634Y-15047184D02*
X4249682Y-15047184D01*
X4249682Y-15047184D02*
X4268729Y-15056708D01*
X4268729Y-15056708D02*
X4278253Y-15066231D01*
X4278253Y-15066231D02*
X4287777Y-15085279D01*
X4287777Y-15085279D02*
X4297301Y-15123374D01*
X4297301Y-15123374D02*
X4297301Y-15170993D01*
X4297301Y-15170993D02*
X4287777Y-15209088D01*
X4287777Y-15209088D02*
X4278253Y-15228136D01*
X4278253Y-15228136D02*
X4268729Y-15237660D01*
X4268729Y-15237660D02*
X4249682Y-15247184D01*
X4249682Y-15247184D02*
X4230634Y-15247184D01*
X4230634Y-15247184D02*
X4211587Y-15237660D01*
X4211587Y-15237660D02*
X4202063Y-15228136D01*
X4202063Y-15228136D02*
X4192539Y-15209088D01*
X4192539Y-15209088D02*
X4183015Y-15170993D01*
X4183015Y-15170993D02*
X4183015Y-15123374D01*
X4183015Y-15123374D02*
X4192539Y-15085279D01*
X4192539Y-15085279D02*
X4202063Y-15066231D01*
X4202063Y-15066231D02*
X4211587Y-15056708D01*
X4211587Y-15056708D02*
X4230634Y-15047184D01*
X4383015Y-15228136D02*
X4392539Y-15237660D01*
X4392539Y-15237660D02*
X4383015Y-15247184D01*
X4383015Y-15247184D02*
X4373491Y-15237660D01*
X4373491Y-15237660D02*
X4383015Y-15228136D01*
X4383015Y-15228136D02*
X4383015Y-15247184D01*
X4516348Y-15047184D02*
X4535396Y-15047184D01*
X4535396Y-15047184D02*
X4554444Y-15056708D01*
X4554444Y-15056708D02*
X4563968Y-15066231D01*
X4563968Y-15066231D02*
X4573491Y-15085279D01*
X4573491Y-15085279D02*
X4583015Y-15123374D01*
X4583015Y-15123374D02*
X4583015Y-15170993D01*
X4583015Y-15170993D02*
X4573491Y-15209088D01*
X4573491Y-15209088D02*
X4563968Y-15228136D01*
X4563968Y-15228136D02*
X4554444Y-15237660D01*
X4554444Y-15237660D02*
X4535396Y-15247184D01*
X4535396Y-15247184D02*
X4516348Y-15247184D01*
X4516348Y-15247184D02*
X4497301Y-15237660D01*
X4497301Y-15237660D02*
X4487777Y-15228136D01*
X4487777Y-15228136D02*
X4478253Y-15209088D01*
X4478253Y-15209088D02*
X4468729Y-15170993D01*
X4468729Y-15170993D02*
X4468729Y-15123374D01*
X4468729Y-15123374D02*
X4478253Y-15085279D01*
X4478253Y-15085279D02*
X4487777Y-15066231D01*
X4487777Y-15066231D02*
X4497301Y-15056708D01*
X4497301Y-15056708D02*
X4516348Y-15047184D01*
X4754444Y-15113850D02*
X4754444Y-15247184D01*
X4706825Y-15037660D02*
X4659206Y-15180517D01*
X4659206Y-15180517D02*
X4783015Y-15180517D01*
X4897301Y-15047184D02*
X4916349Y-15047184D01*
X4916349Y-15047184D02*
X4935396Y-15056708D01*
X4935396Y-15056708D02*
X4944920Y-15066231D01*
X4944920Y-15066231D02*
X4954444Y-15085279D01*
X4954444Y-15085279D02*
X4963968Y-15123374D01*
X4963968Y-15123374D02*
X4963968Y-15170993D01*
X4963968Y-15170993D02*
X4954444Y-15209088D01*
X4954444Y-15209088D02*
X4944920Y-15228136D01*
X4944920Y-15228136D02*
X4935396Y-15237660D01*
X4935396Y-15237660D02*
X4916349Y-15247184D01*
X4916349Y-15247184D02*
X4897301Y-15247184D01*
X4897301Y-15247184D02*
X4878253Y-15237660D01*
X4878253Y-15237660D02*
X4868729Y-15228136D01*
X4868729Y-15228136D02*
X4859206Y-15209088D01*
X4859206Y-15209088D02*
X4849682Y-15170993D01*
X4849682Y-15170993D02*
X4849682Y-15123374D01*
X4849682Y-15123374D02*
X4859206Y-15085279D01*
X4859206Y-15085279D02*
X4868729Y-15066231D01*
X4868729Y-15066231D02*
X4878253Y-15056708D01*
X4878253Y-15056708D02*
X4897301Y-15047184D01*
X5087777Y-15047184D02*
X5106825Y-15047184D01*
X5106825Y-15047184D02*
X5125872Y-15056708D01*
X5125872Y-15056708D02*
X5135396Y-15066231D01*
X5135396Y-15066231D02*
X5144920Y-15085279D01*
X5144920Y-15085279D02*
X5154444Y-15123374D01*
X5154444Y-15123374D02*
X5154444Y-15170993D01*
X5154444Y-15170993D02*
X5144920Y-15209088D01*
X5144920Y-15209088D02*
X5135396Y-15228136D01*
X5135396Y-15228136D02*
X5125872Y-15237660D01*
X5125872Y-15237660D02*
X5106825Y-15247184D01*
X5106825Y-15247184D02*
X5087777Y-15247184D01*
X5087777Y-15247184D02*
X5068729Y-15237660D01*
X5068729Y-15237660D02*
X5059206Y-15228136D01*
X5059206Y-15228136D02*
X5049682Y-15209088D01*
X5049682Y-15209088D02*
X5040158Y-15170993D01*
X5040158Y-15170993D02*
X5040158Y-15123374D01*
X5040158Y-15123374D02*
X5049682Y-15085279D01*
X5049682Y-15085279D02*
X5059206Y-15066231D01*
X5059206Y-15066231D02*
X5068729Y-15056708D01*
X5068729Y-15056708D02*
X5087777Y-15047184D01*
X5230634Y-15047184D02*
X5230634Y-15085279D01*
X5306825Y-15047184D02*
X5306825Y-15085279D01*
X5602063Y-15323374D02*
X5592539Y-15313850D01*
X5592539Y-15313850D02*
X5573491Y-15285279D01*
X5573491Y-15285279D02*
X5563968Y-15266231D01*
X5563968Y-15266231D02*
X5554444Y-15237660D01*
X5554444Y-15237660D02*
X5544920Y-15190041D01*
X5544920Y-15190041D02*
X5544920Y-15151946D01*
X5544920Y-15151946D02*
X5554444Y-15104327D01*
X5554444Y-15104327D02*
X5563968Y-15075755D01*
X5563968Y-15075755D02*
X5573491Y-15056708D01*
X5573491Y-15056708D02*
X5592539Y-15028136D01*
X5592539Y-15028136D02*
X5602063Y-15018612D01*
X5763968Y-15113850D02*
X5763968Y-15247184D01*
X5716348Y-15037660D02*
X5668729Y-15180517D01*
X5668729Y-15180517D02*
X5792539Y-15180517D01*
X5954444Y-15113850D02*
X5954444Y-15247184D01*
X5906825Y-15037660D02*
X5859206Y-15180517D01*
X5859206Y-15180517D02*
X5983015Y-15180517D01*
X6211587Y-15247184D02*
X6211587Y-15047184D01*
X6297301Y-15247184D02*
X6297301Y-15142422D01*
X6297301Y-15142422D02*
X6287777Y-15123374D01*
X6287777Y-15123374D02*
X6268730Y-15113850D01*
X6268730Y-15113850D02*
X6240158Y-15113850D01*
X6240158Y-15113850D02*
X6221110Y-15123374D01*
X6221110Y-15123374D02*
X6211587Y-15132898D01*
X6421110Y-15247184D02*
X6402063Y-15237660D01*
X6402063Y-15237660D02*
X6392539Y-15228136D01*
X6392539Y-15228136D02*
X6383015Y-15209088D01*
X6383015Y-15209088D02*
X6383015Y-15151946D01*
X6383015Y-15151946D02*
X6392539Y-15132898D01*
X6392539Y-15132898D02*
X6402063Y-15123374D01*
X6402063Y-15123374D02*
X6421110Y-15113850D01*
X6421110Y-15113850D02*
X6449682Y-15113850D01*
X6449682Y-15113850D02*
X6468730Y-15123374D01*
X6468730Y-15123374D02*
X6478253Y-15132898D01*
X6478253Y-15132898D02*
X6487777Y-15151946D01*
X6487777Y-15151946D02*
X6487777Y-15209088D01*
X6487777Y-15209088D02*
X6478253Y-15228136D01*
X6478253Y-15228136D02*
X6468730Y-15237660D01*
X6468730Y-15237660D02*
X6449682Y-15247184D01*
X6449682Y-15247184D02*
X6421110Y-15247184D01*
X6602063Y-15247184D02*
X6583015Y-15237660D01*
X6583015Y-15237660D02*
X6573491Y-15218612D01*
X6573491Y-15218612D02*
X6573491Y-15047184D01*
X6754444Y-15237660D02*
X6735396Y-15247184D01*
X6735396Y-15247184D02*
X6697301Y-15247184D01*
X6697301Y-15247184D02*
X6678253Y-15237660D01*
X6678253Y-15237660D02*
X6668730Y-15218612D01*
X6668730Y-15218612D02*
X6668730Y-15142422D01*
X6668730Y-15142422D02*
X6678253Y-15123374D01*
X6678253Y-15123374D02*
X6697301Y-15113850D01*
X6697301Y-15113850D02*
X6735396Y-15113850D01*
X6735396Y-15113850D02*
X6754444Y-15123374D01*
X6754444Y-15123374D02*
X6763968Y-15142422D01*
X6763968Y-15142422D02*
X6763968Y-15161469D01*
X6763968Y-15161469D02*
X6668730Y-15180517D01*
X6840158Y-15237660D02*
X6859206Y-15247184D01*
X6859206Y-15247184D02*
X6897301Y-15247184D01*
X6897301Y-15247184D02*
X6916349Y-15237660D01*
X6916349Y-15237660D02*
X6925872Y-15218612D01*
X6925872Y-15218612D02*
X6925872Y-15209088D01*
X6925872Y-15209088D02*
X6916349Y-15190041D01*
X6916349Y-15190041D02*
X6897301Y-15180517D01*
X6897301Y-15180517D02*
X6868730Y-15180517D01*
X6868730Y-15180517D02*
X6849682Y-15170993D01*
X6849682Y-15170993D02*
X6840158Y-15151946D01*
X6840158Y-15151946D02*
X6840158Y-15142422D01*
X6840158Y-15142422D02*
X6849682Y-15123374D01*
X6849682Y-15123374D02*
X6868730Y-15113850D01*
X6868730Y-15113850D02*
X6897301Y-15113850D01*
X6897301Y-15113850D02*
X6916349Y-15123374D01*
X6992539Y-15323374D02*
X7002063Y-15313850D01*
X7002063Y-15313850D02*
X7021111Y-15285279D01*
X7021111Y-15285279D02*
X7030634Y-15266231D01*
X7030634Y-15266231D02*
X7040158Y-15237660D01*
X7040158Y-15237660D02*
X7049682Y-15190041D01*
X7049682Y-15190041D02*
X7049682Y-15151946D01*
X7049682Y-15151946D02*
X7040158Y-15104327D01*
X7040158Y-15104327D02*
X7030634Y-15075755D01*
X7030634Y-15075755D02*
X7021111Y-15056708D01*
X7021111Y-15056708D02*
X7002063Y-15028136D01*
X7002063Y-15028136D02*
X6992539Y-15018612D01*
D14*
X2011770Y-15456470D02*
X2011770Y-15382930D01*
X1938230Y-15382930D01*
X1938230Y-15456470D01*
X2011770Y-15456470D01*
D11*
X2392539Y-15511184D02*
X2278253Y-15511184D01*
X2335396Y-15511184D02*
X2335396Y-15311184D01*
X2335396Y-15311184D02*
X2316348Y-15339755D01*
X2316348Y-15339755D02*
X2297301Y-15358803D01*
X2297301Y-15358803D02*
X2278253Y-15368327D01*
X2478253Y-15492136D02*
X2487777Y-15501660D01*
X2487777Y-15501660D02*
X2478253Y-15511184D01*
X2478253Y-15511184D02*
X2468729Y-15501660D01*
X2468729Y-15501660D02*
X2478253Y-15492136D01*
X2478253Y-15492136D02*
X2478253Y-15511184D01*
X2611586Y-15311184D02*
X2630634Y-15311184D01*
X2630634Y-15311184D02*
X2649682Y-15320708D01*
X2649682Y-15320708D02*
X2659205Y-15330231D01*
X2659205Y-15330231D02*
X2668729Y-15349279D01*
X2668729Y-15349279D02*
X2678253Y-15387374D01*
X2678253Y-15387374D02*
X2678253Y-15434993D01*
X2678253Y-15434993D02*
X2668729Y-15473088D01*
X2668729Y-15473088D02*
X2659205Y-15492136D01*
X2659205Y-15492136D02*
X2649682Y-15501660D01*
X2649682Y-15501660D02*
X2630634Y-15511184D01*
X2630634Y-15511184D02*
X2611586Y-15511184D01*
X2611586Y-15511184D02*
X2592539Y-15501660D01*
X2592539Y-15501660D02*
X2583015Y-15492136D01*
X2583015Y-15492136D02*
X2573491Y-15473088D01*
X2573491Y-15473088D02*
X2563967Y-15434993D01*
X2563967Y-15434993D02*
X2563967Y-15387374D01*
X2563967Y-15387374D02*
X2573491Y-15349279D01*
X2573491Y-15349279D02*
X2583015Y-15330231D01*
X2583015Y-15330231D02*
X2592539Y-15320708D01*
X2592539Y-15320708D02*
X2611586Y-15311184D01*
X2849682Y-15377850D02*
X2849682Y-15511184D01*
X2802062Y-15301660D02*
X2754444Y-15444517D01*
X2754444Y-15444517D02*
X2878253Y-15444517D01*
X2992539Y-15311184D02*
X3011586Y-15311184D01*
X3011586Y-15311184D02*
X3030634Y-15320708D01*
X3030634Y-15320708D02*
X3040158Y-15330231D01*
X3040158Y-15330231D02*
X3049682Y-15349279D01*
X3049682Y-15349279D02*
X3059205Y-15387374D01*
X3059205Y-15387374D02*
X3059205Y-15434993D01*
X3059205Y-15434993D02*
X3049682Y-15473088D01*
X3049682Y-15473088D02*
X3040158Y-15492136D01*
X3040158Y-15492136D02*
X3030634Y-15501660D01*
X3030634Y-15501660D02*
X3011586Y-15511184D01*
X3011586Y-15511184D02*
X2992539Y-15511184D01*
X2992539Y-15511184D02*
X2973491Y-15501660D01*
X2973491Y-15501660D02*
X2963967Y-15492136D01*
X2963967Y-15492136D02*
X2954443Y-15473088D01*
X2954443Y-15473088D02*
X2944920Y-15434993D01*
X2944920Y-15434993D02*
X2944920Y-15387374D01*
X2944920Y-15387374D02*
X2954443Y-15349279D01*
X2954443Y-15349279D02*
X2963967Y-15330231D01*
X2963967Y-15330231D02*
X2973491Y-15320708D01*
X2973491Y-15320708D02*
X2992539Y-15311184D01*
X3144920Y-15511184D02*
X3144920Y-15377850D01*
X3144920Y-15396898D02*
X3154443Y-15387374D01*
X3154443Y-15387374D02*
X3173491Y-15377850D01*
X3173491Y-15377850D02*
X3202063Y-15377850D01*
X3202063Y-15377850D02*
X3221110Y-15387374D01*
X3221110Y-15387374D02*
X3230634Y-15406422D01*
X3230634Y-15406422D02*
X3230634Y-15511184D01*
X3230634Y-15406422D02*
X3240158Y-15387374D01*
X3240158Y-15387374D02*
X3259205Y-15377850D01*
X3259205Y-15377850D02*
X3287777Y-15377850D01*
X3287777Y-15377850D02*
X3306824Y-15387374D01*
X3306824Y-15387374D02*
X3316348Y-15406422D01*
X3316348Y-15406422D02*
X3316348Y-15511184D01*
X3411586Y-15511184D02*
X3411586Y-15377850D01*
X3411586Y-15396898D02*
X3421110Y-15387374D01*
X3421110Y-15387374D02*
X3440158Y-15377850D01*
X3440158Y-15377850D02*
X3468729Y-15377850D01*
X3468729Y-15377850D02*
X3487777Y-15387374D01*
X3487777Y-15387374D02*
X3497301Y-15406422D01*
X3497301Y-15406422D02*
X3497301Y-15511184D01*
X3497301Y-15406422D02*
X3506824Y-15387374D01*
X3506824Y-15387374D02*
X3525872Y-15377850D01*
X3525872Y-15377850D02*
X3554443Y-15377850D01*
X3554443Y-15377850D02*
X3573491Y-15387374D01*
X3573491Y-15387374D02*
X3583015Y-15406422D01*
X3583015Y-15406422D02*
X3583015Y-15511184D01*
X3973491Y-15301660D02*
X3802063Y-15558803D01*
X4230634Y-15311184D02*
X4249682Y-15311184D01*
X4249682Y-15311184D02*
X4268729Y-15320708D01*
X4268729Y-15320708D02*
X4278253Y-15330231D01*
X4278253Y-15330231D02*
X4287777Y-15349279D01*
X4287777Y-15349279D02*
X4297301Y-15387374D01*
X4297301Y-15387374D02*
X4297301Y-15434993D01*
X4297301Y-15434993D02*
X4287777Y-15473088D01*
X4287777Y-15473088D02*
X4278253Y-15492136D01*
X4278253Y-15492136D02*
X4268729Y-15501660D01*
X4268729Y-15501660D02*
X4249682Y-15511184D01*
X4249682Y-15511184D02*
X4230634Y-15511184D01*
X4230634Y-15511184D02*
X4211587Y-15501660D01*
X4211587Y-15501660D02*
X4202063Y-15492136D01*
X4202063Y-15492136D02*
X4192539Y-15473088D01*
X4192539Y-15473088D02*
X4183015Y-15434993D01*
X4183015Y-15434993D02*
X4183015Y-15387374D01*
X4183015Y-15387374D02*
X4192539Y-15349279D01*
X4192539Y-15349279D02*
X4202063Y-15330231D01*
X4202063Y-15330231D02*
X4211587Y-15320708D01*
X4211587Y-15320708D02*
X4230634Y-15311184D01*
X4383015Y-15492136D02*
X4392539Y-15501660D01*
X4392539Y-15501660D02*
X4383015Y-15511184D01*
X4383015Y-15511184D02*
X4373491Y-15501660D01*
X4373491Y-15501660D02*
X4383015Y-15492136D01*
X4383015Y-15492136D02*
X4383015Y-15511184D01*
X4516348Y-15311184D02*
X4535396Y-15311184D01*
X4535396Y-15311184D02*
X4554444Y-15320708D01*
X4554444Y-15320708D02*
X4563968Y-15330231D01*
X4563968Y-15330231D02*
X4573491Y-15349279D01*
X4573491Y-15349279D02*
X4583015Y-15387374D01*
X4583015Y-15387374D02*
X4583015Y-15434993D01*
X4583015Y-15434993D02*
X4573491Y-15473088D01*
X4573491Y-15473088D02*
X4563968Y-15492136D01*
X4563968Y-15492136D02*
X4554444Y-15501660D01*
X4554444Y-15501660D02*
X4535396Y-15511184D01*
X4535396Y-15511184D02*
X4516348Y-15511184D01*
X4516348Y-15511184D02*
X4497301Y-15501660D01*
X4497301Y-15501660D02*
X4487777Y-15492136D01*
X4487777Y-15492136D02*
X4478253Y-15473088D01*
X4478253Y-15473088D02*
X4468729Y-15434993D01*
X4468729Y-15434993D02*
X4468729Y-15387374D01*
X4468729Y-15387374D02*
X4478253Y-15349279D01*
X4478253Y-15349279D02*
X4487777Y-15330231D01*
X4487777Y-15330231D02*
X4497301Y-15320708D01*
X4497301Y-15320708D02*
X4516348Y-15311184D01*
X4754444Y-15377850D02*
X4754444Y-15511184D01*
X4706825Y-15301660D02*
X4659206Y-15444517D01*
X4659206Y-15444517D02*
X4783015Y-15444517D01*
X4897301Y-15311184D02*
X4916349Y-15311184D01*
X4916349Y-15311184D02*
X4935396Y-15320708D01*
X4935396Y-15320708D02*
X4944920Y-15330231D01*
X4944920Y-15330231D02*
X4954444Y-15349279D01*
X4954444Y-15349279D02*
X4963968Y-15387374D01*
X4963968Y-15387374D02*
X4963968Y-15434993D01*
X4963968Y-15434993D02*
X4954444Y-15473088D01*
X4954444Y-15473088D02*
X4944920Y-15492136D01*
X4944920Y-15492136D02*
X4935396Y-15501660D01*
X4935396Y-15501660D02*
X4916349Y-15511184D01*
X4916349Y-15511184D02*
X4897301Y-15511184D01*
X4897301Y-15511184D02*
X4878253Y-15501660D01*
X4878253Y-15501660D02*
X4868729Y-15492136D01*
X4868729Y-15492136D02*
X4859206Y-15473088D01*
X4859206Y-15473088D02*
X4849682Y-15434993D01*
X4849682Y-15434993D02*
X4849682Y-15387374D01*
X4849682Y-15387374D02*
X4859206Y-15349279D01*
X4859206Y-15349279D02*
X4868729Y-15330231D01*
X4868729Y-15330231D02*
X4878253Y-15320708D01*
X4878253Y-15320708D02*
X4897301Y-15311184D01*
X5059206Y-15511184D02*
X5097301Y-15511184D01*
X5097301Y-15511184D02*
X5116349Y-15501660D01*
X5116349Y-15501660D02*
X5125872Y-15492136D01*
X5125872Y-15492136D02*
X5144920Y-15463565D01*
X5144920Y-15463565D02*
X5154444Y-15425469D01*
X5154444Y-15425469D02*
X5154444Y-15349279D01*
X5154444Y-15349279D02*
X5144920Y-15330231D01*
X5144920Y-15330231D02*
X5135396Y-15320708D01*
X5135396Y-15320708D02*
X5116349Y-15311184D01*
X5116349Y-15311184D02*
X5078253Y-15311184D01*
X5078253Y-15311184D02*
X5059206Y-15320708D01*
X5059206Y-15320708D02*
X5049682Y-15330231D01*
X5049682Y-15330231D02*
X5040158Y-15349279D01*
X5040158Y-15349279D02*
X5040158Y-15396898D01*
X5040158Y-15396898D02*
X5049682Y-15415946D01*
X5049682Y-15415946D02*
X5059206Y-15425469D01*
X5059206Y-15425469D02*
X5078253Y-15434993D01*
X5078253Y-15434993D02*
X5116349Y-15434993D01*
X5116349Y-15434993D02*
X5135396Y-15425469D01*
X5135396Y-15425469D02*
X5144920Y-15415946D01*
X5144920Y-15415946D02*
X5154444Y-15396898D01*
X5230634Y-15311184D02*
X5230634Y-15349279D01*
X5306825Y-15311184D02*
X5306825Y-15349279D01*
X5602063Y-15587374D02*
X5592539Y-15577850D01*
X5592539Y-15577850D02*
X5573491Y-15549279D01*
X5573491Y-15549279D02*
X5563968Y-15530231D01*
X5563968Y-15530231D02*
X5554444Y-15501660D01*
X5554444Y-15501660D02*
X5544920Y-15454041D01*
X5544920Y-15454041D02*
X5544920Y-15415946D01*
X5544920Y-15415946D02*
X5554444Y-15368327D01*
X5554444Y-15368327D02*
X5563968Y-15339755D01*
X5563968Y-15339755D02*
X5573491Y-15320708D01*
X5573491Y-15320708D02*
X5592539Y-15292136D01*
X5592539Y-15292136D02*
X5602063Y-15282612D01*
X5763968Y-15377850D02*
X5763968Y-15511184D01*
X5716348Y-15301660D02*
X5668729Y-15444517D01*
X5668729Y-15444517D02*
X5792539Y-15444517D01*
X5878253Y-15511184D02*
X5916348Y-15511184D01*
X5916348Y-15511184D02*
X5935396Y-15501660D01*
X5935396Y-15501660D02*
X5944920Y-15492136D01*
X5944920Y-15492136D02*
X5963968Y-15463565D01*
X5963968Y-15463565D02*
X5973491Y-15425469D01*
X5973491Y-15425469D02*
X5973491Y-15349279D01*
X5973491Y-15349279D02*
X5963968Y-15330231D01*
X5963968Y-15330231D02*
X5954444Y-15320708D01*
X5954444Y-15320708D02*
X5935396Y-15311184D01*
X5935396Y-15311184D02*
X5897301Y-15311184D01*
X5897301Y-15311184D02*
X5878253Y-15320708D01*
X5878253Y-15320708D02*
X5868729Y-15330231D01*
X5868729Y-15330231D02*
X5859206Y-15349279D01*
X5859206Y-15349279D02*
X5859206Y-15396898D01*
X5859206Y-15396898D02*
X5868729Y-15415946D01*
X5868729Y-15415946D02*
X5878253Y-15425469D01*
X5878253Y-15425469D02*
X5897301Y-15434993D01*
X5897301Y-15434993D02*
X5935396Y-15434993D01*
X5935396Y-15434993D02*
X5954444Y-15425469D01*
X5954444Y-15425469D02*
X5963968Y-15415946D01*
X5963968Y-15415946D02*
X5973491Y-15396898D01*
X6144920Y-15377850D02*
X6144920Y-15511184D01*
X6097301Y-15301660D02*
X6049682Y-15444517D01*
X6049682Y-15444517D02*
X6173491Y-15444517D01*
X6402063Y-15511184D02*
X6402063Y-15311184D01*
X6487777Y-15511184D02*
X6487777Y-15406422D01*
X6487777Y-15406422D02*
X6478253Y-15387374D01*
X6478253Y-15387374D02*
X6459206Y-15377850D01*
X6459206Y-15377850D02*
X6430634Y-15377850D01*
X6430634Y-15377850D02*
X6411587Y-15387374D01*
X6411587Y-15387374D02*
X6402063Y-15396898D01*
X6611587Y-15511184D02*
X6592539Y-15501660D01*
X6592539Y-15501660D02*
X6583015Y-15492136D01*
X6583015Y-15492136D02*
X6573491Y-15473088D01*
X6573491Y-15473088D02*
X6573491Y-15415946D01*
X6573491Y-15415946D02*
X6583015Y-15396898D01*
X6583015Y-15396898D02*
X6592539Y-15387374D01*
X6592539Y-15387374D02*
X6611587Y-15377850D01*
X6611587Y-15377850D02*
X6640158Y-15377850D01*
X6640158Y-15377850D02*
X6659206Y-15387374D01*
X6659206Y-15387374D02*
X6668730Y-15396898D01*
X6668730Y-15396898D02*
X6678253Y-15415946D01*
X6678253Y-15415946D02*
X6678253Y-15473088D01*
X6678253Y-15473088D02*
X6668730Y-15492136D01*
X6668730Y-15492136D02*
X6659206Y-15501660D01*
X6659206Y-15501660D02*
X6640158Y-15511184D01*
X6640158Y-15511184D02*
X6611587Y-15511184D01*
X6792539Y-15511184D02*
X6773491Y-15501660D01*
X6773491Y-15501660D02*
X6763968Y-15482612D01*
X6763968Y-15482612D02*
X6763968Y-15311184D01*
X6944920Y-15501660D02*
X6925872Y-15511184D01*
X6925872Y-15511184D02*
X6887777Y-15511184D01*
X6887777Y-15511184D02*
X6868730Y-15501660D01*
X6868730Y-15501660D02*
X6859206Y-15482612D01*
X6859206Y-15482612D02*
X6859206Y-15406422D01*
X6859206Y-15406422D02*
X6868730Y-15387374D01*
X6868730Y-15387374D02*
X6887777Y-15377850D01*
X6887777Y-15377850D02*
X6925872Y-15377850D01*
X6925872Y-15377850D02*
X6944920Y-15387374D01*
X6944920Y-15387374D02*
X6954444Y-15406422D01*
X6954444Y-15406422D02*
X6954444Y-15425469D01*
X6954444Y-15425469D02*
X6859206Y-15444517D01*
X7030634Y-15501660D02*
X7049682Y-15511184D01*
X7049682Y-15511184D02*
X7087777Y-15511184D01*
X7087777Y-15511184D02*
X7106825Y-15501660D01*
X7106825Y-15501660D02*
X7116349Y-15482612D01*
X7116349Y-15482612D02*
X7116349Y-15473088D01*
X7116349Y-15473088D02*
X7106825Y-15454041D01*
X7106825Y-15454041D02*
X7087777Y-15444517D01*
X7087777Y-15444517D02*
X7059206Y-15444517D01*
X7059206Y-15444517D02*
X7040158Y-15434993D01*
X7040158Y-15434993D02*
X7030634Y-15415946D01*
X7030634Y-15415946D02*
X7030634Y-15406422D01*
X7030634Y-15406422D02*
X7040158Y-15387374D01*
X7040158Y-15387374D02*
X7059206Y-15377850D01*
X7059206Y-15377850D02*
X7087777Y-15377850D01*
X7087777Y-15377850D02*
X7106825Y-15387374D01*
X7183015Y-15587374D02*
X7192539Y-15577850D01*
X7192539Y-15577850D02*
X7211587Y-15549279D01*
X7211587Y-15549279D02*
X7221111Y-15530231D01*
X7221111Y-15530231D02*
X7230634Y-15501660D01*
X7230634Y-15501660D02*
X7240158Y-15454041D01*
X7240158Y-15454041D02*
X7240158Y-15415946D01*
X7240158Y-15415946D02*
X7230634Y-15368327D01*
X7230634Y-15368327D02*
X7221111Y-15339755D01*
X7221111Y-15339755D02*
X7211587Y-15320708D01*
X7211587Y-15320708D02*
X7192539Y-15292136D01*
X7192539Y-15292136D02*
X7183015Y-15282612D01*
X1927000Y-15783700D02*
X2027000Y-15683700D01*
X1927000Y-15583700D01*
X1827000Y-15683700D01*
X1927000Y-15783700D01*
X2278253Y-15594231D02*
X2287777Y-15584708D01*
X2287777Y-15584708D02*
X2306824Y-15575184D01*
X2306824Y-15575184D02*
X2354444Y-15575184D01*
X2354444Y-15575184D02*
X2373491Y-15584708D01*
X2373491Y-15584708D02*
X2383015Y-15594231D01*
X2383015Y-15594231D02*
X2392539Y-15613279D01*
X2392539Y-15613279D02*
X2392539Y-15632327D01*
X2392539Y-15632327D02*
X2383015Y-15660898D01*
X2383015Y-15660898D02*
X2268729Y-15775184D01*
X2268729Y-15775184D02*
X2392539Y-15775184D01*
X2478253Y-15756136D02*
X2487777Y-15765660D01*
X2487777Y-15765660D02*
X2478253Y-15775184D01*
X2478253Y-15775184D02*
X2468729Y-15765660D01*
X2468729Y-15765660D02*
X2478253Y-15756136D01*
X2478253Y-15756136D02*
X2478253Y-15775184D01*
X2554444Y-15575184D02*
X2687777Y-15575184D01*
X2687777Y-15575184D02*
X2602063Y-15775184D01*
X2859205Y-15575184D02*
X2763967Y-15575184D01*
X2763967Y-15575184D02*
X2754444Y-15670422D01*
X2754444Y-15670422D02*
X2763967Y-15660898D01*
X2763967Y-15660898D02*
X2783015Y-15651374D01*
X2783015Y-15651374D02*
X2830634Y-15651374D01*
X2830634Y-15651374D02*
X2849682Y-15660898D01*
X2849682Y-15660898D02*
X2859205Y-15670422D01*
X2859205Y-15670422D02*
X2868729Y-15689469D01*
X2868729Y-15689469D02*
X2868729Y-15737088D01*
X2868729Y-15737088D02*
X2859205Y-15756136D01*
X2859205Y-15756136D02*
X2849682Y-15765660D01*
X2849682Y-15765660D02*
X2830634Y-15775184D01*
X2830634Y-15775184D02*
X2783015Y-15775184D01*
X2783015Y-15775184D02*
X2763967Y-15765660D01*
X2763967Y-15765660D02*
X2754444Y-15756136D01*
X2992539Y-15575184D02*
X3011586Y-15575184D01*
X3011586Y-15575184D02*
X3030634Y-15584708D01*
X3030634Y-15584708D02*
X3040158Y-15594231D01*
X3040158Y-15594231D02*
X3049682Y-15613279D01*
X3049682Y-15613279D02*
X3059205Y-15651374D01*
X3059205Y-15651374D02*
X3059205Y-15698993D01*
X3059205Y-15698993D02*
X3049682Y-15737088D01*
X3049682Y-15737088D02*
X3040158Y-15756136D01*
X3040158Y-15756136D02*
X3030634Y-15765660D01*
X3030634Y-15765660D02*
X3011586Y-15775184D01*
X3011586Y-15775184D02*
X2992539Y-15775184D01*
X2992539Y-15775184D02*
X2973491Y-15765660D01*
X2973491Y-15765660D02*
X2963967Y-15756136D01*
X2963967Y-15756136D02*
X2954443Y-15737088D01*
X2954443Y-15737088D02*
X2944920Y-15698993D01*
X2944920Y-15698993D02*
X2944920Y-15651374D01*
X2944920Y-15651374D02*
X2954443Y-15613279D01*
X2954443Y-15613279D02*
X2963967Y-15594231D01*
X2963967Y-15594231D02*
X2973491Y-15584708D01*
X2973491Y-15584708D02*
X2992539Y-15575184D01*
X3144920Y-15775184D02*
X3144920Y-15641850D01*
X3144920Y-15660898D02*
X3154443Y-15651374D01*
X3154443Y-15651374D02*
X3173491Y-15641850D01*
X3173491Y-15641850D02*
X3202063Y-15641850D01*
X3202063Y-15641850D02*
X3221110Y-15651374D01*
X3221110Y-15651374D02*
X3230634Y-15670422D01*
X3230634Y-15670422D02*
X3230634Y-15775184D01*
X3230634Y-15670422D02*
X3240158Y-15651374D01*
X3240158Y-15651374D02*
X3259205Y-15641850D01*
X3259205Y-15641850D02*
X3287777Y-15641850D01*
X3287777Y-15641850D02*
X3306824Y-15651374D01*
X3306824Y-15651374D02*
X3316348Y-15670422D01*
X3316348Y-15670422D02*
X3316348Y-15775184D01*
X3411586Y-15775184D02*
X3411586Y-15641850D01*
X3411586Y-15660898D02*
X3421110Y-15651374D01*
X3421110Y-15651374D02*
X3440158Y-15641850D01*
X3440158Y-15641850D02*
X3468729Y-15641850D01*
X3468729Y-15641850D02*
X3487777Y-15651374D01*
X3487777Y-15651374D02*
X3497301Y-15670422D01*
X3497301Y-15670422D02*
X3497301Y-15775184D01*
X3497301Y-15670422D02*
X3506824Y-15651374D01*
X3506824Y-15651374D02*
X3525872Y-15641850D01*
X3525872Y-15641850D02*
X3554443Y-15641850D01*
X3554443Y-15641850D02*
X3573491Y-15651374D01*
X3573491Y-15651374D02*
X3583015Y-15670422D01*
X3583015Y-15670422D02*
X3583015Y-15775184D01*
X3973491Y-15565660D02*
X3802063Y-15822803D01*
X4230634Y-15575184D02*
X4249682Y-15575184D01*
X4249682Y-15575184D02*
X4268729Y-15584708D01*
X4268729Y-15584708D02*
X4278253Y-15594231D01*
X4278253Y-15594231D02*
X4287777Y-15613279D01*
X4287777Y-15613279D02*
X4297301Y-15651374D01*
X4297301Y-15651374D02*
X4297301Y-15698993D01*
X4297301Y-15698993D02*
X4287777Y-15737088D01*
X4287777Y-15737088D02*
X4278253Y-15756136D01*
X4278253Y-15756136D02*
X4268729Y-15765660D01*
X4268729Y-15765660D02*
X4249682Y-15775184D01*
X4249682Y-15775184D02*
X4230634Y-15775184D01*
X4230634Y-15775184D02*
X4211587Y-15765660D01*
X4211587Y-15765660D02*
X4202063Y-15756136D01*
X4202063Y-15756136D02*
X4192539Y-15737088D01*
X4192539Y-15737088D02*
X4183015Y-15698993D01*
X4183015Y-15698993D02*
X4183015Y-15651374D01*
X4183015Y-15651374D02*
X4192539Y-15613279D01*
X4192539Y-15613279D02*
X4202063Y-15594231D01*
X4202063Y-15594231D02*
X4211587Y-15584708D01*
X4211587Y-15584708D02*
X4230634Y-15575184D01*
X4383015Y-15756136D02*
X4392539Y-15765660D01*
X4392539Y-15765660D02*
X4383015Y-15775184D01*
X4383015Y-15775184D02*
X4373491Y-15765660D01*
X4373491Y-15765660D02*
X4383015Y-15756136D01*
X4383015Y-15756136D02*
X4383015Y-15775184D01*
X4583015Y-15775184D02*
X4468729Y-15775184D01*
X4525872Y-15775184D02*
X4525872Y-15575184D01*
X4525872Y-15575184D02*
X4506825Y-15603755D01*
X4506825Y-15603755D02*
X4487777Y-15622803D01*
X4487777Y-15622803D02*
X4468729Y-15632327D01*
X4706825Y-15575184D02*
X4725872Y-15575184D01*
X4725872Y-15575184D02*
X4744920Y-15584708D01*
X4744920Y-15584708D02*
X4754444Y-15594231D01*
X4754444Y-15594231D02*
X4763968Y-15613279D01*
X4763968Y-15613279D02*
X4773491Y-15651374D01*
X4773491Y-15651374D02*
X4773491Y-15698993D01*
X4773491Y-15698993D02*
X4763968Y-15737088D01*
X4763968Y-15737088D02*
X4754444Y-15756136D01*
X4754444Y-15756136D02*
X4744920Y-15765660D01*
X4744920Y-15765660D02*
X4725872Y-15775184D01*
X4725872Y-15775184D02*
X4706825Y-15775184D01*
X4706825Y-15775184D02*
X4687777Y-15765660D01*
X4687777Y-15765660D02*
X4678253Y-15756136D01*
X4678253Y-15756136D02*
X4668729Y-15737088D01*
X4668729Y-15737088D02*
X4659206Y-15698993D01*
X4659206Y-15698993D02*
X4659206Y-15651374D01*
X4659206Y-15651374D02*
X4668729Y-15613279D01*
X4668729Y-15613279D02*
X4678253Y-15594231D01*
X4678253Y-15594231D02*
X4687777Y-15584708D01*
X4687777Y-15584708D02*
X4706825Y-15575184D01*
X4887777Y-15660898D02*
X4868729Y-15651374D01*
X4868729Y-15651374D02*
X4859206Y-15641850D01*
X4859206Y-15641850D02*
X4849682Y-15622803D01*
X4849682Y-15622803D02*
X4849682Y-15613279D01*
X4849682Y-15613279D02*
X4859206Y-15594231D01*
X4859206Y-15594231D02*
X4868729Y-15584708D01*
X4868729Y-15584708D02*
X4887777Y-15575184D01*
X4887777Y-15575184D02*
X4925872Y-15575184D01*
X4925872Y-15575184D02*
X4944920Y-15584708D01*
X4944920Y-15584708D02*
X4954444Y-15594231D01*
X4954444Y-15594231D02*
X4963968Y-15613279D01*
X4963968Y-15613279D02*
X4963968Y-15622803D01*
X4963968Y-15622803D02*
X4954444Y-15641850D01*
X4954444Y-15641850D02*
X4944920Y-15651374D01*
X4944920Y-15651374D02*
X4925872Y-15660898D01*
X4925872Y-15660898D02*
X4887777Y-15660898D01*
X4887777Y-15660898D02*
X4868729Y-15670422D01*
X4868729Y-15670422D02*
X4859206Y-15679946D01*
X4859206Y-15679946D02*
X4849682Y-15698993D01*
X4849682Y-15698993D02*
X4849682Y-15737088D01*
X4849682Y-15737088D02*
X4859206Y-15756136D01*
X4859206Y-15756136D02*
X4868729Y-15765660D01*
X4868729Y-15765660D02*
X4887777Y-15775184D01*
X4887777Y-15775184D02*
X4925872Y-15775184D01*
X4925872Y-15775184D02*
X4944920Y-15765660D01*
X4944920Y-15765660D02*
X4954444Y-15756136D01*
X4954444Y-15756136D02*
X4963968Y-15737088D01*
X4963968Y-15737088D02*
X4963968Y-15698993D01*
X4963968Y-15698993D02*
X4954444Y-15679946D01*
X4954444Y-15679946D02*
X4944920Y-15670422D01*
X4944920Y-15670422D02*
X4925872Y-15660898D01*
X5030634Y-15575184D02*
X5154444Y-15575184D01*
X5154444Y-15575184D02*
X5087777Y-15651374D01*
X5087777Y-15651374D02*
X5116349Y-15651374D01*
X5116349Y-15651374D02*
X5135396Y-15660898D01*
X5135396Y-15660898D02*
X5144920Y-15670422D01*
X5144920Y-15670422D02*
X5154444Y-15689469D01*
X5154444Y-15689469D02*
X5154444Y-15737088D01*
X5154444Y-15737088D02*
X5144920Y-15756136D01*
X5144920Y-15756136D02*
X5135396Y-15765660D01*
X5135396Y-15765660D02*
X5116349Y-15775184D01*
X5116349Y-15775184D02*
X5059206Y-15775184D01*
X5059206Y-15775184D02*
X5040158Y-15765660D01*
X5040158Y-15765660D02*
X5030634Y-15756136D01*
X5230634Y-15575184D02*
X5230634Y-15613279D01*
X5306825Y-15575184D02*
X5306825Y-15613279D01*
X5602063Y-15851374D02*
X5592539Y-15841850D01*
X5592539Y-15841850D02*
X5573491Y-15813279D01*
X5573491Y-15813279D02*
X5563968Y-15794231D01*
X5563968Y-15794231D02*
X5554444Y-15765660D01*
X5554444Y-15765660D02*
X5544920Y-15718041D01*
X5544920Y-15718041D02*
X5544920Y-15679946D01*
X5544920Y-15679946D02*
X5554444Y-15632327D01*
X5554444Y-15632327D02*
X5563968Y-15603755D01*
X5563968Y-15603755D02*
X5573491Y-15584708D01*
X5573491Y-15584708D02*
X5592539Y-15556136D01*
X5592539Y-15556136D02*
X5602063Y-15546612D01*
X5668729Y-15594231D02*
X5678253Y-15584708D01*
X5678253Y-15584708D02*
X5697301Y-15575184D01*
X5697301Y-15575184D02*
X5744920Y-15575184D01*
X5744920Y-15575184D02*
X5763968Y-15584708D01*
X5763968Y-15584708D02*
X5773491Y-15594231D01*
X5773491Y-15594231D02*
X5783015Y-15613279D01*
X5783015Y-15613279D02*
X5783015Y-15632327D01*
X5783015Y-15632327D02*
X5773491Y-15660898D01*
X5773491Y-15660898D02*
X5659206Y-15775184D01*
X5659206Y-15775184D02*
X5783015Y-15775184D01*
X6021110Y-15775184D02*
X6021110Y-15575184D01*
X6106825Y-15775184D02*
X6106825Y-15670422D01*
X6106825Y-15670422D02*
X6097301Y-15651374D01*
X6097301Y-15651374D02*
X6078253Y-15641850D01*
X6078253Y-15641850D02*
X6049682Y-15641850D01*
X6049682Y-15641850D02*
X6030634Y-15651374D01*
X6030634Y-15651374D02*
X6021110Y-15660898D01*
X6230634Y-15775184D02*
X6211587Y-15765660D01*
X6211587Y-15765660D02*
X6202063Y-15756136D01*
X6202063Y-15756136D02*
X6192539Y-15737088D01*
X6192539Y-15737088D02*
X6192539Y-15679946D01*
X6192539Y-15679946D02*
X6202063Y-15660898D01*
X6202063Y-15660898D02*
X6211587Y-15651374D01*
X6211587Y-15651374D02*
X6230634Y-15641850D01*
X6230634Y-15641850D02*
X6259206Y-15641850D01*
X6259206Y-15641850D02*
X6278253Y-15651374D01*
X6278253Y-15651374D02*
X6287777Y-15660898D01*
X6287777Y-15660898D02*
X6297301Y-15679946D01*
X6297301Y-15679946D02*
X6297301Y-15737088D01*
X6297301Y-15737088D02*
X6287777Y-15756136D01*
X6287777Y-15756136D02*
X6278253Y-15765660D01*
X6278253Y-15765660D02*
X6259206Y-15775184D01*
X6259206Y-15775184D02*
X6230634Y-15775184D01*
X6411587Y-15775184D02*
X6392539Y-15765660D01*
X6392539Y-15765660D02*
X6383015Y-15746612D01*
X6383015Y-15746612D02*
X6383015Y-15575184D01*
X6563968Y-15765660D02*
X6544920Y-15775184D01*
X6544920Y-15775184D02*
X6506825Y-15775184D01*
X6506825Y-15775184D02*
X6487777Y-15765660D01*
X6487777Y-15765660D02*
X6478253Y-15746612D01*
X6478253Y-15746612D02*
X6478253Y-15670422D01*
X6478253Y-15670422D02*
X6487777Y-15651374D01*
X6487777Y-15651374D02*
X6506825Y-15641850D01*
X6506825Y-15641850D02*
X6544920Y-15641850D01*
X6544920Y-15641850D02*
X6563968Y-15651374D01*
X6563968Y-15651374D02*
X6573491Y-15670422D01*
X6573491Y-15670422D02*
X6573491Y-15689469D01*
X6573491Y-15689469D02*
X6478253Y-15708517D01*
X6649682Y-15765660D02*
X6668730Y-15775184D01*
X6668730Y-15775184D02*
X6706825Y-15775184D01*
X6706825Y-15775184D02*
X6725872Y-15765660D01*
X6725872Y-15765660D02*
X6735396Y-15746612D01*
X6735396Y-15746612D02*
X6735396Y-15737088D01*
X6735396Y-15737088D02*
X6725872Y-15718041D01*
X6725872Y-15718041D02*
X6706825Y-15708517D01*
X6706825Y-15708517D02*
X6678253Y-15708517D01*
X6678253Y-15708517D02*
X6659206Y-15698993D01*
X6659206Y-15698993D02*
X6649682Y-15679946D01*
X6649682Y-15679946D02*
X6649682Y-15670422D01*
X6649682Y-15670422D02*
X6659206Y-15651374D01*
X6659206Y-15651374D02*
X6678253Y-15641850D01*
X6678253Y-15641850D02*
X6706825Y-15641850D01*
X6706825Y-15641850D02*
X6725872Y-15651374D01*
X6802063Y-15851374D02*
X6811587Y-15841850D01*
X6811587Y-15841850D02*
X6830634Y-15813279D01*
X6830634Y-15813279D02*
X6840158Y-15794231D01*
X6840158Y-15794231D02*
X6849682Y-15765660D01*
X6849682Y-15765660D02*
X6859206Y-15718041D01*
X6859206Y-15718041D02*
X6859206Y-15679946D01*
X6859206Y-15679946D02*
X6849682Y-15632327D01*
X6849682Y-15632327D02*
X6840158Y-15603755D01*
X6840158Y-15603755D02*
X6830634Y-15584708D01*
X6830634Y-15584708D02*
X6811587Y-15556136D01*
X6811587Y-15556136D02*
X6802063Y-15546612D01*
M02*
