G04 #@! TF.GenerationSoftware,KiCad,Pcbnew,7.0.7*
G04 #@! TF.CreationDate,2024-05-21T19:06:15+02:00*
G04 #@! TF.ProjectId,PCB_IOT_SysIntel,5043425f-494f-4545-9f53-7973496e7465,rev?*
G04 #@! TF.SameCoordinates,Original*
G04 #@! TF.FileFunction,Soldermask,Top*
G04 #@! TF.FilePolarity,Negative*
%FSLAX46Y46*%
G04 Gerber Fmt 4.6, Leading zero omitted, Abs format (unit mm)*
G04 Created by KiCad (PCBNEW 7.0.7) date 2024-05-21 19:06:15*
%MOMM*%
%LPD*%
G01*
G04 APERTURE LIST*
G04 Aperture macros list*
%AMRoundRect*
0 Rectangle with rounded corners*
0 $1 Rounding radius*
0 $2 $3 $4 $5 $6 $7 $8 $9 X,Y pos of 4 corners*
0 Add a 4 corners polygon primitive as box body*
4,1,4,$2,$3,$4,$5,$6,$7,$8,$9,$2,$3,0*
0 Add four circle primitives for the rounded corners*
1,1,$1+$1,$2,$3*
1,1,$1+$1,$4,$5*
1,1,$1+$1,$6,$7*
1,1,$1+$1,$8,$9*
0 Add four rect primitives between the rounded corners*
20,1,$1+$1,$2,$3,$4,$5,0*
20,1,$1+$1,$4,$5,$6,$7,0*
20,1,$1+$1,$6,$7,$8,$9,0*
20,1,$1+$1,$8,$9,$2,$3,0*%
G04 Aperture macros list end*
%ADD10RoundRect,0.102000X0.695000X-0.695000X0.695000X0.695000X-0.695000X0.695000X-0.695000X-0.695000X0*%
%ADD11C,1.594000*%
%ADD12RoundRect,0.102000X-0.695000X0.695000X-0.695000X-0.695000X0.695000X-0.695000X0.695000X0.695000X0*%
%ADD13C,3.200000*%
%ADD14RoundRect,0.102000X-0.695000X-0.695000X0.695000X-0.695000X0.695000X0.695000X-0.695000X0.695000X0*%
%ADD15RoundRect,0.102000X-0.762000X-0.762000X0.762000X-0.762000X0.762000X0.762000X-0.762000X0.762000X0*%
%ADD16C,1.728000*%
%ADD17C,6.404000*%
%ADD18C,3.100000*%
%ADD19R,1.700000X1.700000*%
%ADD20O,1.700000X1.700000*%
%ADD21C,0.800000*%
G04 APERTURE END LIST*
D10*
X171831000Y-64609500D03*
D11*
X171831000Y-62069500D03*
D12*
X180467000Y-135415500D03*
D11*
X180467000Y-137955500D03*
D13*
X105664000Y-62865000D03*
D10*
X217678000Y-64609500D03*
D11*
X217678000Y-62069500D03*
D12*
X144907000Y-135415500D03*
D11*
X144907000Y-137955500D03*
D10*
X32766000Y-70739000D03*
D11*
X32766000Y-68199000D03*
D10*
X43434000Y-70705500D03*
D11*
X43434000Y-68165500D03*
D12*
X159131000Y-135382000D03*
D11*
X159131000Y-137922000D03*
D12*
X152019000Y-135415500D03*
D11*
X152019000Y-137955500D03*
D10*
X207391000Y-64643000D03*
D11*
X207391000Y-62103000D03*
D10*
X22098000Y-70705500D03*
D11*
X22098000Y-68165500D03*
D10*
X178943000Y-64609500D03*
D11*
X178943000Y-62069500D03*
D10*
X107442000Y-70705500D03*
D11*
X107442000Y-68165500D03*
D10*
X182499000Y-64609500D03*
D11*
X182499000Y-62069500D03*
D12*
X173355000Y-135415500D03*
D11*
X173355000Y-137955500D03*
D10*
X39878000Y-70739000D03*
D11*
X39878000Y-68199000D03*
D10*
X164719000Y-64609500D03*
D11*
X164719000Y-62069500D03*
D10*
X189611000Y-64609500D03*
D11*
X189611000Y-62069500D03*
D10*
X89662000Y-70739000D03*
D11*
X89662000Y-68199000D03*
D13*
X23876000Y-62865000D03*
D10*
X128397000Y-64389000D03*
D11*
X125857000Y-64389000D03*
X128397000Y-66929000D03*
X125857000Y-66929000D03*
X128397000Y-69469000D03*
X125857000Y-69469000D03*
X128397000Y-72009000D03*
X125857000Y-72009000D03*
X128397000Y-74549000D03*
X125857000Y-74549000D03*
X128397000Y-77089000D03*
X125857000Y-77089000D03*
X128397000Y-79629000D03*
X125857000Y-79629000D03*
X128397000Y-82169000D03*
X125857000Y-82169000D03*
X128397000Y-84709000D03*
X125857000Y-84709000D03*
X128397000Y-87249000D03*
X125857000Y-87249000D03*
X128397000Y-89789000D03*
X125857000Y-89789000D03*
X128397000Y-92329000D03*
X125857000Y-92329000D03*
X128397000Y-94869000D03*
X125857000Y-94869000D03*
X128397000Y-97409000D03*
X125857000Y-97409000D03*
X128397000Y-99949000D03*
X125857000Y-99949000D03*
X128397000Y-102489000D03*
X125857000Y-102489000D03*
X128397000Y-105029000D03*
X125857000Y-105029000D03*
X128397000Y-107569000D03*
X125857000Y-107569000D03*
X128397000Y-110109000D03*
X125857000Y-110109000D03*
X128397000Y-112649000D03*
X125857000Y-112649000D03*
X128397000Y-115189000D03*
X125857000Y-115189000D03*
X128397000Y-117729000D03*
X125857000Y-117729000D03*
X128397000Y-120269000D03*
X125857000Y-120269000D03*
X128397000Y-122809000D03*
X125857000Y-122809000D03*
X128397000Y-125349000D03*
X125857000Y-125349000D03*
X128397000Y-127889000D03*
X125857000Y-127889000D03*
X128397000Y-130429000D03*
X125857000Y-130429000D03*
X128397000Y-132969000D03*
X125857000Y-132969000D03*
X128397000Y-135509000D03*
X125857000Y-135509000D03*
X128397000Y-138049000D03*
X125857000Y-138049000D03*
D12*
X191135000Y-135382000D03*
D11*
X191135000Y-137922000D03*
D10*
X50546000Y-70739000D03*
D11*
X50546000Y-68199000D03*
D12*
X166243000Y-135415500D03*
D11*
X166243000Y-137955500D03*
D14*
X93726000Y-137922000D03*
D11*
X93726000Y-135382000D03*
X91186000Y-137922000D03*
X91186000Y-135382000D03*
X88646000Y-137922000D03*
X88646000Y-135382000D03*
X86106000Y-137922000D03*
X86106000Y-135382000D03*
X83566000Y-137922000D03*
X83566000Y-135382000D03*
X81026000Y-137922000D03*
X81026000Y-135382000D03*
X78486000Y-137922000D03*
X78486000Y-135382000D03*
X75946000Y-137922000D03*
X75946000Y-135382000D03*
X73406000Y-137922000D03*
X73406000Y-135382000D03*
X70866000Y-137922000D03*
X70866000Y-135382000D03*
X68326000Y-137922000D03*
X68326000Y-135382000D03*
X65786000Y-137922000D03*
X65786000Y-135382000D03*
X63246000Y-137922000D03*
X63246000Y-135382000D03*
X60706000Y-137922000D03*
X60706000Y-135382000D03*
X58166000Y-137922000D03*
X58166000Y-135382000D03*
X55626000Y-137922000D03*
X55626000Y-135382000D03*
X53086000Y-137922000D03*
X53086000Y-135382000D03*
X50546000Y-137922000D03*
X50546000Y-135382000D03*
X48006000Y-137922000D03*
X48006000Y-135382000D03*
X45466000Y-137922000D03*
X45466000Y-135382000D03*
X42926000Y-137922000D03*
X42926000Y-135382000D03*
X40386000Y-137922000D03*
X40386000Y-135382000D03*
X37846000Y-137922000D03*
X37846000Y-135382000D03*
X35306000Y-137922000D03*
X35306000Y-135382000D03*
X32766000Y-137922000D03*
X32766000Y-135382000D03*
D10*
X24892000Y-76708000D03*
D11*
X22352000Y-76708000D03*
X24892000Y-79248000D03*
X22352000Y-79248000D03*
X24892000Y-81788000D03*
X22352000Y-81788000D03*
X24892000Y-84328000D03*
X22352000Y-84328000D03*
X24892000Y-86868000D03*
X22352000Y-86868000D03*
X24892000Y-89408000D03*
X22352000Y-89408000D03*
X24892000Y-91948000D03*
X22352000Y-91948000D03*
X24892000Y-94488000D03*
X22352000Y-94488000D03*
X24892000Y-97028000D03*
X22352000Y-97028000D03*
X24892000Y-99568000D03*
X22352000Y-99568000D03*
X24892000Y-102108000D03*
X22352000Y-102108000D03*
X24892000Y-104648000D03*
X22352000Y-104648000D03*
X24892000Y-107188000D03*
X22352000Y-107188000D03*
X24892000Y-109728000D03*
X22352000Y-109728000D03*
X24892000Y-112268000D03*
X22352000Y-112268000D03*
X24892000Y-114808000D03*
X22352000Y-114808000D03*
X24892000Y-117348000D03*
X22352000Y-117348000D03*
X24892000Y-119888000D03*
X22352000Y-119888000D03*
X24892000Y-122428000D03*
X22352000Y-122428000D03*
X24892000Y-124968000D03*
X22352000Y-124968000D03*
X24892000Y-127508000D03*
X22352000Y-127508000D03*
X24892000Y-130048000D03*
X22352000Y-130048000D03*
X24892000Y-132588000D03*
X22352000Y-132588000D03*
X24892000Y-135128000D03*
X22352000Y-135128000D03*
X24892000Y-137668000D03*
X22352000Y-137668000D03*
D12*
X162687000Y-135415500D03*
D11*
X162687000Y-137955500D03*
D12*
X155575000Y-135415500D03*
D11*
X155575000Y-137955500D03*
D10*
X200279000Y-64643000D03*
D11*
X200279000Y-62103000D03*
D13*
X38608000Y-78486000D03*
D10*
X57658000Y-70705500D03*
D11*
X57658000Y-68165500D03*
D10*
X196723000Y-64643000D03*
D11*
X196723000Y-62103000D03*
D10*
X78994000Y-70739000D03*
D11*
X78994000Y-68199000D03*
D10*
X29210000Y-70739000D03*
D11*
X29210000Y-68199000D03*
D10*
X36322000Y-70739000D03*
D11*
X36322000Y-68199000D03*
D10*
X168275000Y-64609500D03*
D11*
X168275000Y-62069500D03*
D15*
X157016000Y-75946000D03*
D16*
X157016000Y-73406000D03*
X159556000Y-75946000D03*
X159556000Y-73406000D03*
X162096000Y-75946000D03*
X162096000Y-73406000D03*
X164636000Y-75946000D03*
X164636000Y-73406000D03*
X167176000Y-75946000D03*
X167176000Y-73406000D03*
X169716000Y-75946000D03*
X169716000Y-73406000D03*
X172256000Y-75946000D03*
X172256000Y-73406000D03*
X174796000Y-75946000D03*
X174796000Y-73406000D03*
X177336000Y-75946000D03*
X177336000Y-73406000D03*
X179876000Y-75946000D03*
X179876000Y-73406000D03*
X182416000Y-75946000D03*
X182416000Y-73406000D03*
X184956000Y-75946000D03*
X184956000Y-73406000D03*
X187496000Y-75946000D03*
X187496000Y-73406000D03*
X190036000Y-75946000D03*
X190036000Y-73406000D03*
X192576000Y-75946000D03*
X192576000Y-73406000D03*
X195116000Y-75946000D03*
X195116000Y-73406000D03*
X197656000Y-75946000D03*
X197656000Y-73406000D03*
X200196000Y-75946000D03*
X200196000Y-73406000D03*
X202736000Y-75946000D03*
X202736000Y-73406000D03*
X205276000Y-75946000D03*
X205276000Y-73406000D03*
X211376000Y-82069000D03*
X211376000Y-79529000D03*
X208836000Y-82069000D03*
X208836000Y-79529000D03*
D17*
X152146000Y-74676000D03*
X210146000Y-123676000D03*
D10*
X186055000Y-64609500D03*
D11*
X186055000Y-62069500D03*
D10*
X175387000Y-64609500D03*
D11*
X175387000Y-62069500D03*
D10*
X71882000Y-70705500D03*
D11*
X71882000Y-68165500D03*
D10*
X203835000Y-64609500D03*
D11*
X203835000Y-62069500D03*
D10*
X214757000Y-64609500D03*
D11*
X214757000Y-62069500D03*
D10*
X54102000Y-70739000D03*
D11*
X54102000Y-68199000D03*
D10*
X25654000Y-70739000D03*
D11*
X25654000Y-68199000D03*
D10*
X103886000Y-70739000D03*
D11*
X103886000Y-68199000D03*
D10*
X211836000Y-64609500D03*
D11*
X211836000Y-62069500D03*
D10*
X116332000Y-64389000D03*
D11*
X113792000Y-64389000D03*
X116332000Y-66929000D03*
X113792000Y-66929000D03*
X116332000Y-69469000D03*
X113792000Y-69469000D03*
X116332000Y-72009000D03*
X113792000Y-72009000D03*
X116332000Y-74549000D03*
X113792000Y-74549000D03*
X116332000Y-77089000D03*
X113792000Y-77089000D03*
X116332000Y-79629000D03*
X113792000Y-79629000D03*
X116332000Y-82169000D03*
X113792000Y-82169000D03*
X116332000Y-84709000D03*
X113792000Y-84709000D03*
X116332000Y-87249000D03*
X113792000Y-87249000D03*
X116332000Y-89789000D03*
X113792000Y-89789000D03*
X116332000Y-92329000D03*
X113792000Y-92329000D03*
X116332000Y-94869000D03*
X113792000Y-94869000D03*
X116332000Y-97409000D03*
X113792000Y-97409000D03*
X116332000Y-99949000D03*
X113792000Y-99949000D03*
X116332000Y-102489000D03*
X113792000Y-102489000D03*
X116332000Y-105029000D03*
X113792000Y-105029000D03*
X116332000Y-107569000D03*
X113792000Y-107569000D03*
X116332000Y-110109000D03*
X113792000Y-110109000D03*
X116332000Y-112649000D03*
X113792000Y-112649000D03*
X116332000Y-115189000D03*
X113792000Y-115189000D03*
X116332000Y-117729000D03*
X113792000Y-117729000D03*
X116332000Y-120269000D03*
X113792000Y-120269000D03*
X116332000Y-122809000D03*
X113792000Y-122809000D03*
X116332000Y-125349000D03*
X113792000Y-125349000D03*
X116332000Y-127889000D03*
X113792000Y-127889000D03*
X116332000Y-130429000D03*
X113792000Y-130429000D03*
X116332000Y-132969000D03*
X113792000Y-132969000D03*
X116332000Y-135509000D03*
X113792000Y-135509000D03*
X116332000Y-138049000D03*
X113792000Y-138049000D03*
D10*
X86106000Y-70705500D03*
D11*
X86106000Y-68165500D03*
D12*
X176911000Y-135415500D03*
D11*
X176911000Y-137955500D03*
D12*
X194691000Y-135415500D03*
D11*
X194691000Y-137955500D03*
D10*
X96774000Y-70705500D03*
D11*
X96774000Y-68165500D03*
D12*
X99441000Y-137668000D03*
D11*
X101981000Y-137668000D03*
X99441000Y-135128000D03*
X101981000Y-135128000D03*
X99441000Y-132588000D03*
X101981000Y-132588000D03*
X99441000Y-130048000D03*
X101981000Y-130048000D03*
X99441000Y-127508000D03*
X101981000Y-127508000D03*
X99441000Y-124968000D03*
X101981000Y-124968000D03*
X99441000Y-122428000D03*
X101981000Y-122428000D03*
X99441000Y-119888000D03*
X101981000Y-119888000D03*
X99441000Y-117348000D03*
X101981000Y-117348000D03*
X99441000Y-114808000D03*
X101981000Y-114808000D03*
X99441000Y-112268000D03*
X101981000Y-112268000D03*
X99441000Y-109728000D03*
X101981000Y-109728000D03*
X99441000Y-107188000D03*
X101981000Y-107188000D03*
X99441000Y-104648000D03*
X101981000Y-104648000D03*
X99441000Y-102108000D03*
X101981000Y-102108000D03*
X99441000Y-99568000D03*
X101981000Y-99568000D03*
X99441000Y-97028000D03*
X101981000Y-97028000D03*
X99441000Y-94488000D03*
X101981000Y-94488000D03*
X99441000Y-91948000D03*
X101981000Y-91948000D03*
X99441000Y-89408000D03*
X101981000Y-89408000D03*
X99441000Y-86868000D03*
X101981000Y-86868000D03*
X99441000Y-84328000D03*
X101981000Y-84328000D03*
X99441000Y-81788000D03*
X101981000Y-81788000D03*
X99441000Y-79248000D03*
X101981000Y-79248000D03*
X99441000Y-76708000D03*
X101981000Y-76708000D03*
D10*
X140462000Y-64389000D03*
D11*
X137922000Y-64389000D03*
X140462000Y-66929000D03*
X137922000Y-66929000D03*
X140462000Y-69469000D03*
X137922000Y-69469000D03*
X140462000Y-72009000D03*
X137922000Y-72009000D03*
X140462000Y-74549000D03*
X137922000Y-74549000D03*
X140462000Y-77089000D03*
X137922000Y-77089000D03*
X140462000Y-79629000D03*
X137922000Y-79629000D03*
X140462000Y-82169000D03*
X137922000Y-82169000D03*
X140462000Y-84709000D03*
X137922000Y-84709000D03*
X140462000Y-87249000D03*
X137922000Y-87249000D03*
X140462000Y-89789000D03*
X137922000Y-89789000D03*
X140462000Y-92329000D03*
X137922000Y-92329000D03*
X140462000Y-94869000D03*
X137922000Y-94869000D03*
X140462000Y-97409000D03*
X137922000Y-97409000D03*
X140462000Y-99949000D03*
X137922000Y-99949000D03*
X140462000Y-102489000D03*
X137922000Y-102489000D03*
X140462000Y-105029000D03*
X137922000Y-105029000D03*
X140462000Y-107569000D03*
X137922000Y-107569000D03*
X140462000Y-110109000D03*
X137922000Y-110109000D03*
X140462000Y-112649000D03*
X137922000Y-112649000D03*
X140462000Y-115189000D03*
X137922000Y-115189000D03*
X140462000Y-117729000D03*
X137922000Y-117729000D03*
X140462000Y-120269000D03*
X137922000Y-120269000D03*
X140462000Y-122809000D03*
X137922000Y-122809000D03*
X140462000Y-125349000D03*
X137922000Y-125349000D03*
X140462000Y-127889000D03*
X137922000Y-127889000D03*
X140462000Y-130429000D03*
X137922000Y-130429000D03*
X140462000Y-132969000D03*
X137922000Y-132969000D03*
X140462000Y-135509000D03*
X137922000Y-135509000D03*
X140462000Y-138049000D03*
X137922000Y-138049000D03*
D12*
X184023000Y-135415500D03*
D11*
X184023000Y-137955500D03*
D10*
X68326000Y-70739000D03*
D11*
X68326000Y-68199000D03*
D10*
X220599000Y-64609500D03*
D11*
X220599000Y-62069500D03*
D10*
X75438000Y-70739000D03*
D11*
X75438000Y-68199000D03*
D10*
X82550000Y-70705500D03*
D11*
X82550000Y-68165500D03*
D12*
X104902000Y-137668000D03*
D11*
X107442000Y-137668000D03*
X104902000Y-135128000D03*
X107442000Y-135128000D03*
X104902000Y-132588000D03*
X107442000Y-132588000D03*
X104902000Y-130048000D03*
X107442000Y-130048000D03*
X104902000Y-127508000D03*
X107442000Y-127508000D03*
X104902000Y-124968000D03*
X107442000Y-124968000D03*
X104902000Y-122428000D03*
X107442000Y-122428000D03*
X104902000Y-119888000D03*
X107442000Y-119888000D03*
X104902000Y-117348000D03*
X107442000Y-117348000D03*
X104902000Y-114808000D03*
X107442000Y-114808000D03*
X104902000Y-112268000D03*
X107442000Y-112268000D03*
X104902000Y-109728000D03*
X107442000Y-109728000D03*
X104902000Y-107188000D03*
X107442000Y-107188000D03*
X104902000Y-104648000D03*
X107442000Y-104648000D03*
X104902000Y-102108000D03*
X107442000Y-102108000D03*
X104902000Y-99568000D03*
X107442000Y-99568000D03*
X104902000Y-97028000D03*
X107442000Y-97028000D03*
X104902000Y-94488000D03*
X107442000Y-94488000D03*
X104902000Y-91948000D03*
X107442000Y-91948000D03*
X104902000Y-89408000D03*
X107442000Y-89408000D03*
X104902000Y-86868000D03*
X107442000Y-86868000D03*
X104902000Y-84328000D03*
X107442000Y-84328000D03*
X104902000Y-81788000D03*
X107442000Y-81788000D03*
X104902000Y-79248000D03*
X107442000Y-79248000D03*
X104902000Y-76708000D03*
X107442000Y-76708000D03*
D10*
X93218000Y-70739000D03*
D11*
X93218000Y-68199000D03*
D12*
X148463000Y-135415500D03*
D11*
X148463000Y-137955500D03*
D10*
X193167000Y-64643000D03*
D11*
X193167000Y-62103000D03*
D13*
X38608000Y-130048000D03*
D10*
X100330000Y-70739000D03*
D11*
X100330000Y-68199000D03*
D18*
X47215000Y-82521000D03*
X47215000Y-126521000D03*
X91215000Y-82521000D03*
X91215000Y-126521000D03*
D19*
X86995000Y-86791000D03*
D20*
X89535000Y-86791000D03*
X86995000Y-89331000D03*
X89535000Y-89331000D03*
X86995000Y-91871000D03*
X89535000Y-91871000D03*
X86995000Y-94411000D03*
X89535000Y-94411000D03*
X86995000Y-96951000D03*
X89535000Y-96951000D03*
X86995000Y-99491000D03*
X89535000Y-99491000D03*
X86995000Y-102031000D03*
X89535000Y-102031000D03*
X86995000Y-104571000D03*
X89535000Y-104571000D03*
X86995000Y-107111000D03*
X89535000Y-107111000D03*
X86995000Y-109651000D03*
X89535000Y-109651000D03*
X86995000Y-112191000D03*
X89535000Y-112191000D03*
X86995000Y-114731000D03*
X89535000Y-114731000D03*
X86995000Y-117271000D03*
X89535000Y-117271000D03*
X86995000Y-119811000D03*
X89535000Y-119811000D03*
X86995000Y-122351000D03*
X89535000Y-122351000D03*
D10*
X64770000Y-70739000D03*
D11*
X64770000Y-68199000D03*
D10*
X46990000Y-70739000D03*
D11*
X46990000Y-68199000D03*
D12*
X187579000Y-135382000D03*
D11*
X187579000Y-137922000D03*
D12*
X169799000Y-135382000D03*
D11*
X169799000Y-137922000D03*
D10*
X61214000Y-70739000D03*
D11*
X61214000Y-68199000D03*
D21*
X173355000Y-84201000D03*
X172212000Y-85598000D03*
X154305000Y-69723000D03*
X173355000Y-79375000D03*
X161671000Y-68834000D03*
X162560000Y-68834000D03*
X161671000Y-69723000D03*
X172212000Y-78232000D03*
X154305000Y-68834000D03*
X162560000Y-69723000D03*
X172212000Y-84201000D03*
X172212000Y-79375000D03*
X173355000Y-85598000D03*
X173355000Y-78232000D03*
X153416000Y-68834000D03*
X153416000Y-69723000D03*
X147574000Y-82550000D03*
X148844000Y-82550000D03*
X148844000Y-81026000D03*
X147574000Y-81026000D03*
M02*
