G04 #@! TF.GenerationSoftware,KiCad,Pcbnew,7.0.7*
G04 #@! TF.CreationDate,2024-05-21T18:04:19+02:00*
G04 #@! TF.ProjectId,PCB_IOT_SysIntel,5043425f-494f-4545-9f53-7973496e7465,rev?*
G04 #@! TF.SameCoordinates,Original*
G04 #@! TF.FileFunction,Profile,NP*
%FSLAX46Y46*%
G04 Gerber Fmt 4.6, Leading zero omitted, Abs format (unit mm)*
G04 Created by KiCad (PCBNEW 7.0.7) date 2024-05-21 18:04:19*
%MOMM*%
%LPD*%
G01*
G04 APERTURE LIST*
G04 #@! TA.AperFunction,Profile*
%ADD10C,0.100000*%
G04 #@! TD*
G04 APERTURE END LIST*
D10*
X199390000Y-139827000D02*
X199390000Y-128270000D01*
X111252000Y-139827000D02*
X199390000Y-139827000D01*
X155067000Y-128270000D02*
X155067000Y-119888000D01*
X199390000Y-128270000D02*
X155067000Y-128270000D01*
X213868000Y-60198000D02*
X110236000Y-60198000D01*
X110109000Y-106426000D02*
X111252000Y-106426000D01*
X109601000Y-60198000D02*
X110236000Y-60198000D01*
X206756000Y-127254000D02*
X206756000Y-114046000D01*
X110109000Y-82550000D02*
X110109000Y-77089000D01*
X213868000Y-127254000D02*
X213868000Y-125603000D01*
X111252000Y-121158000D02*
X111252000Y-126619000D01*
X20320000Y-60198000D02*
X20320000Y-139827000D01*
X192405000Y-119888000D02*
X155067000Y-119888000D01*
X213868000Y-73660000D02*
X213868000Y-72898000D01*
X206756000Y-127254000D02*
X213868000Y-127254000D01*
X110109000Y-134366000D02*
X111252000Y-134366000D01*
X197866000Y-114046000D02*
X197866000Y-103886000D01*
X206756000Y-114046000D02*
X203454000Y-114046000D01*
X20320000Y-139827000D02*
X110109000Y-139827000D01*
X111252000Y-126619000D02*
X110109000Y-126619000D01*
X222123000Y-72898000D02*
X222123000Y-60198000D01*
X213868000Y-60198000D02*
X222123000Y-60198000D01*
X111252000Y-77089000D02*
X111252000Y-82550000D01*
X111252000Y-111887000D02*
X110109000Y-111887000D01*
X196723000Y-103886000D02*
X192405000Y-103886000D01*
X110109000Y-67945000D02*
X110109000Y-62484000D01*
X192405000Y-103886000D02*
X192405000Y-119888000D01*
X213868000Y-73660000D02*
X213868000Y-124841000D01*
X169799000Y-86614000D02*
X185801000Y-86614000D01*
X185801000Y-102616000D01*
X169799000Y-102616000D01*
X169799000Y-86614000D01*
X110109000Y-139827000D02*
X110109000Y-134366000D01*
X110109000Y-62484000D02*
X111252000Y-62484000D01*
X196723000Y-103886000D02*
X197866000Y-103886000D01*
X213868000Y-125603000D02*
X213868000Y-124841000D01*
X109601000Y-60198000D02*
X20320000Y-60198000D01*
X111252000Y-106426000D02*
X111252000Y-111887000D01*
X111252000Y-91821000D02*
X111252000Y-97282000D01*
X110109000Y-91821000D02*
X111252000Y-91821000D01*
X110109000Y-126619000D02*
X110109000Y-121158000D01*
X197866000Y-114046000D02*
X203454000Y-114046000D01*
X111252000Y-82550000D02*
X110109000Y-82550000D01*
X111252000Y-62484000D02*
X111252000Y-67945000D01*
X111252000Y-134366000D02*
X111252000Y-139827000D01*
X110109000Y-97282000D02*
X110109000Y-91821000D01*
X149860000Y-87503000D02*
X154178000Y-87503000D01*
X154178000Y-110871000D01*
X149860000Y-110871000D01*
X149860000Y-87503000D01*
X110109000Y-121158000D02*
X111252000Y-121158000D01*
X111252000Y-67945000D02*
X110109000Y-67945000D01*
X222123000Y-72898000D02*
X213868000Y-72898000D01*
X110109000Y-77089000D02*
X111252000Y-77089000D01*
X111252000Y-97282000D02*
X110109000Y-97282000D01*
X110109000Y-111887000D02*
X110109000Y-106426000D01*
M02*
