M48
; DRILL file {KiCad 7.0.7} date Tue May 21 18:04:24 2024
; FORMAT={-:-/ absolute / metric / decimal}
; #@! TF.CreationDate,2024-05-21T18:04:24+02:00
; #@! TF.GenerationSoftware,Kicad,Pcbnew,7.0.7
; #@! TF.FileFunction,Plated,1,2,PTH
FMAT,2
METRIC
; #@! TA.AperFunction,Plated,PTH,ViaDrill
T1C0.400
; #@! TA.AperFunction,Plated,PTH,ComponentDrill
T2C1.000
; #@! TA.AperFunction,Plated,PTH,ComponentDrill
T3C1.016
; #@! TA.AperFunction,Plated,PTH,ComponentDrill
T4C1.040
; #@! TA.AperFunction,Plated,PTH,ComponentDrill
T5C2.750
%
G90
G05
T1
X147.574Y-81.026
X147.574Y-82.55
X148.844Y-81.026
X148.844Y-82.55
X153.416Y-68.834
X153.416Y-69.723
X154.305Y-68.834
X154.305Y-69.723
X161.671Y-68.834
X161.671Y-69.723
X162.56Y-68.834
X162.56Y-69.723
X172.212Y-78.232
X172.212Y-79.375
X172.212Y-84.201
X172.212Y-85.598
X173.355Y-78.232
X173.355Y-79.375
X173.355Y-84.201
X173.355Y-85.598
T2
X86.995Y-86.791
X86.995Y-89.331
X86.995Y-91.871
X86.995Y-94.411
X86.995Y-96.951
X86.995Y-99.491
X86.995Y-102.031
X86.995Y-104.571
X86.995Y-107.111
X86.995Y-109.651
X86.995Y-112.191
X86.995Y-114.731
X86.995Y-117.271
X86.995Y-119.811
X86.995Y-122.351
X89.535Y-86.791
X89.535Y-89.331
X89.535Y-91.871
X89.535Y-94.411
X89.535Y-96.951
X89.535Y-99.491
X89.535Y-102.031
X89.535Y-104.571
X89.535Y-107.111
X89.535Y-109.651
X89.535Y-112.191
X89.535Y-114.731
X89.535Y-117.271
X89.535Y-119.811
X89.535Y-122.351
T3
X157.016Y-73.406
X157.016Y-75.946
X159.556Y-73.406
X159.556Y-75.946
X162.096Y-73.406
X162.096Y-75.946
X164.636Y-73.406
X164.636Y-75.946
X167.176Y-73.406
X167.176Y-75.946
X169.716Y-73.406
X169.716Y-75.946
X172.256Y-73.406
X172.256Y-75.946
X174.796Y-73.406
X174.796Y-75.946
X177.336Y-73.406
X177.336Y-75.946
X179.876Y-73.406
X179.876Y-75.946
X182.416Y-73.406
X182.416Y-75.946
X184.956Y-73.406
X184.956Y-75.946
X187.496Y-73.406
X187.496Y-75.946
X190.036Y-73.406
X190.036Y-75.946
X192.576Y-73.406
X192.576Y-75.946
X195.116Y-73.406
X195.116Y-75.946
X197.656Y-73.406
X197.656Y-75.946
X200.196Y-73.406
X200.196Y-75.946
X202.736Y-73.406
X202.736Y-75.946
X205.276Y-73.406
X205.276Y-75.946
X208.836Y-79.529
X208.836Y-82.069
X211.376Y-79.529
X211.376Y-82.069
T4
X22.098Y-68.165
X22.098Y-70.706
X22.352Y-76.708
X22.352Y-79.248
X22.352Y-81.788
X22.352Y-84.328
X22.352Y-86.868
X22.352Y-89.408
X22.352Y-91.948
X22.352Y-94.488
X22.352Y-97.028
X22.352Y-99.568
X22.352Y-102.108
X22.352Y-104.648
X22.352Y-107.188
X22.352Y-109.728
X22.352Y-112.268
X22.352Y-114.808
X22.352Y-117.348
X22.352Y-119.888
X22.352Y-122.428
X22.352Y-124.968
X22.352Y-127.508
X22.352Y-130.048
X22.352Y-132.588
X22.352Y-135.128
X22.352Y-137.668
X24.892Y-76.708
X24.892Y-79.248
X24.892Y-81.788
X24.892Y-84.328
X24.892Y-86.868
X24.892Y-89.408
X24.892Y-91.948
X24.892Y-94.488
X24.892Y-97.028
X24.892Y-99.568
X24.892Y-102.108
X24.892Y-104.648
X24.892Y-107.188
X24.892Y-109.728
X24.892Y-112.268
X24.892Y-114.808
X24.892Y-117.348
X24.892Y-119.888
X24.892Y-122.428
X24.892Y-124.968
X24.892Y-127.508
X24.892Y-130.048
X24.892Y-132.588
X24.892Y-135.128
X24.892Y-137.668
X25.654Y-68.199
X25.654Y-70.739
X29.21Y-68.199
X29.21Y-70.739
X32.766Y-68.199
X32.766Y-70.739
X32.766Y-135.382
X32.766Y-137.922
X35.306Y-135.382
X35.306Y-137.922
X36.322Y-68.199
X36.322Y-70.739
X37.846Y-135.382
X37.846Y-137.922
X39.878Y-68.199
X39.878Y-70.739
X40.386Y-135.382
X40.386Y-137.922
X42.926Y-135.382
X42.926Y-137.922
X43.434Y-68.165
X43.434Y-70.706
X45.466Y-135.382
X45.466Y-137.922
X46.99Y-68.199
X46.99Y-70.739
X48.006Y-135.382
X48.006Y-137.922
X50.546Y-68.199
X50.546Y-70.739
X50.546Y-135.382
X50.546Y-137.922
X53.086Y-135.382
X53.086Y-137.922
X54.102Y-68.199
X54.102Y-70.739
X55.626Y-135.382
X55.626Y-137.922
X57.658Y-68.165
X57.658Y-70.706
X58.166Y-135.382
X58.166Y-137.922
X60.706Y-135.382
X60.706Y-137.922
X61.214Y-68.199
X61.214Y-70.739
X63.246Y-135.382
X63.246Y-137.922
X64.77Y-68.199
X64.77Y-70.739
X65.786Y-135.382
X65.786Y-137.922
X68.326Y-68.199
X68.326Y-70.739
X68.326Y-135.382
X68.326Y-137.922
X70.866Y-135.382
X70.866Y-137.922
X71.882Y-68.165
X71.882Y-70.706
X73.406Y-135.382
X73.406Y-137.922
X75.438Y-68.199
X75.438Y-70.739
X75.946Y-135.382
X75.946Y-137.922
X78.486Y-135.382
X78.486Y-137.922
X78.994Y-68.199
X78.994Y-70.739
X81.026Y-135.382
X81.026Y-137.922
X82.55Y-68.165
X82.55Y-70.706
X83.566Y-135.382
X83.566Y-137.922
X86.106Y-68.165
X86.106Y-70.706
X86.106Y-135.382
X86.106Y-137.922
X88.646Y-135.382
X88.646Y-137.922
X89.662Y-68.199
X89.662Y-70.739
X91.186Y-135.382
X91.186Y-137.922
X93.218Y-68.199
X93.218Y-70.739
X93.726Y-135.382
X93.726Y-137.922
X96.774Y-68.165
X96.774Y-70.706
X99.441Y-76.708
X99.441Y-79.248
X99.441Y-81.788
X99.441Y-84.328
X99.441Y-86.868
X99.441Y-89.408
X99.441Y-91.948
X99.441Y-94.488
X99.441Y-97.028
X99.441Y-99.568
X99.441Y-102.108
X99.441Y-104.648
X99.441Y-107.188
X99.441Y-109.728
X99.441Y-112.268
X99.441Y-114.808
X99.441Y-117.348
X99.441Y-119.888
X99.441Y-122.428
X99.441Y-124.968
X99.441Y-127.508
X99.441Y-130.048
X99.441Y-132.588
X99.441Y-135.128
X99.441Y-137.668
X100.33Y-68.199
X100.33Y-70.739
X101.981Y-76.708
X101.981Y-79.248
X101.981Y-81.788
X101.981Y-84.328
X101.981Y-86.868
X101.981Y-89.408
X101.981Y-91.948
X101.981Y-94.488
X101.981Y-97.028
X101.981Y-99.568
X101.981Y-102.108
X101.981Y-104.648
X101.981Y-107.188
X101.981Y-109.728
X101.981Y-112.268
X101.981Y-114.808
X101.981Y-117.348
X101.981Y-119.888
X101.981Y-122.428
X101.981Y-124.968
X101.981Y-127.508
X101.981Y-130.048
X101.981Y-132.588
X101.981Y-135.128
X101.981Y-137.668
X103.886Y-68.199
X103.886Y-70.739
X104.902Y-76.708
X104.902Y-79.248
X104.902Y-81.788
X104.902Y-84.328
X104.902Y-86.868
X104.902Y-89.408
X104.902Y-91.948
X104.902Y-94.488
X104.902Y-97.028
X104.902Y-99.568
X104.902Y-102.108
X104.902Y-104.648
X104.902Y-107.188
X104.902Y-109.728
X104.902Y-112.268
X104.902Y-114.808
X104.902Y-117.348
X104.902Y-119.888
X104.902Y-122.428
X104.902Y-124.968
X104.902Y-127.508
X104.902Y-130.048
X104.902Y-132.588
X104.902Y-135.128
X104.902Y-137.668
X107.442Y-68.165
X107.442Y-70.706
X107.442Y-76.708
X107.442Y-79.248
X107.442Y-81.788
X107.442Y-84.328
X107.442Y-86.868
X107.442Y-89.408
X107.442Y-91.948
X107.442Y-94.488
X107.442Y-97.028
X107.442Y-99.568
X107.442Y-102.108
X107.442Y-104.648
X107.442Y-107.188
X107.442Y-109.728
X107.442Y-112.268
X107.442Y-114.808
X107.442Y-117.348
X107.442Y-119.888
X107.442Y-122.428
X107.442Y-124.968
X107.442Y-127.508
X107.442Y-130.048
X107.442Y-132.588
X107.442Y-135.128
X107.442Y-137.668
X113.792Y-64.389
X113.792Y-66.929
X113.792Y-69.469
X113.792Y-72.009
X113.792Y-74.549
X113.792Y-77.089
X113.792Y-79.629
X113.792Y-82.169
X113.792Y-84.709
X113.792Y-87.249
X113.792Y-89.789
X113.792Y-92.329
X113.792Y-94.869
X113.792Y-97.409
X113.792Y-99.949
X113.792Y-102.489
X113.792Y-105.029
X113.792Y-107.569
X113.792Y-110.109
X113.792Y-112.649
X113.792Y-115.189
X113.792Y-117.729
X113.792Y-120.269
X113.792Y-122.809
X113.792Y-125.349
X113.792Y-127.889
X113.792Y-130.429
X113.792Y-132.969
X113.792Y-135.509
X113.792Y-138.049
X116.332Y-64.389
X116.332Y-66.929
X116.332Y-69.469
X116.332Y-72.009
X116.332Y-74.549
X116.332Y-77.089
X116.332Y-79.629
X116.332Y-82.169
X116.332Y-84.709
X116.332Y-87.249
X116.332Y-89.789
X116.332Y-92.329
X116.332Y-94.869
X116.332Y-97.409
X116.332Y-99.949
X116.332Y-102.489
X116.332Y-105.029
X116.332Y-107.569
X116.332Y-110.109
X116.332Y-112.649
X116.332Y-115.189
X116.332Y-117.729
X116.332Y-120.269
X116.332Y-122.809
X116.332Y-125.349
X116.332Y-127.889
X116.332Y-130.429
X116.332Y-132.969
X116.332Y-135.509
X116.332Y-138.049
X125.857Y-64.389
X125.857Y-66.929
X125.857Y-69.469
X125.857Y-72.009
X125.857Y-74.549
X125.857Y-77.089
X125.857Y-79.629
X125.857Y-82.169
X125.857Y-84.709
X125.857Y-87.249
X125.857Y-89.789
X125.857Y-92.329
X125.857Y-94.869
X125.857Y-97.409
X125.857Y-99.949
X125.857Y-102.489
X125.857Y-105.029
X125.857Y-107.569
X125.857Y-110.109
X125.857Y-112.649
X125.857Y-115.189
X125.857Y-117.729
X125.857Y-120.269
X125.857Y-122.809
X125.857Y-125.349
X125.857Y-127.889
X125.857Y-130.429
X125.857Y-132.969
X125.857Y-135.509
X125.857Y-138.049
X128.397Y-64.389
X128.397Y-66.929
X128.397Y-69.469
X128.397Y-72.009
X128.397Y-74.549
X128.397Y-77.089
X128.397Y-79.629
X128.397Y-82.169
X128.397Y-84.709
X128.397Y-87.249
X128.397Y-89.789
X128.397Y-92.329
X128.397Y-94.869
X128.397Y-97.409
X128.397Y-99.949
X128.397Y-102.489
X128.397Y-105.029
X128.397Y-107.569
X128.397Y-110.109
X128.397Y-112.649
X128.397Y-115.189
X128.397Y-117.729
X128.397Y-120.269
X128.397Y-122.809
X128.397Y-125.349
X128.397Y-127.889
X128.397Y-130.429
X128.397Y-132.969
X128.397Y-135.509
X128.397Y-138.049
X137.922Y-64.389
X137.922Y-66.929
X137.922Y-69.469
X137.922Y-72.009
X137.922Y-74.549
X137.922Y-77.089
X137.922Y-79.629
X137.922Y-82.169
X137.922Y-84.709
X137.922Y-87.249
X137.922Y-89.789
X137.922Y-92.329
X137.922Y-94.869
X137.922Y-97.409
X137.922Y-99.949
X137.922Y-102.489
X137.922Y-105.029
X137.922Y-107.569
X137.922Y-110.109
X137.922Y-112.649
X137.922Y-115.189
X137.922Y-117.729
X137.922Y-120.269
X137.922Y-122.809
X137.922Y-125.349
X137.922Y-127.889
X137.922Y-130.429
X137.922Y-132.969
X137.922Y-135.509
X137.922Y-138.049
X140.462Y-64.389
X140.462Y-66.929
X140.462Y-69.469
X140.462Y-72.009
X140.462Y-74.549
X140.462Y-77.089
X140.462Y-79.629
X140.462Y-82.169
X140.462Y-84.709
X140.462Y-87.249
X140.462Y-89.789
X140.462Y-92.329
X140.462Y-94.869
X140.462Y-97.409
X140.462Y-99.949
X140.462Y-102.489
X140.462Y-105.029
X140.462Y-107.569
X140.462Y-110.109
X140.462Y-112.649
X140.462Y-115.189
X140.462Y-117.729
X140.462Y-120.269
X140.462Y-122.809
X140.462Y-125.349
X140.462Y-127.889
X140.462Y-130.429
X140.462Y-132.969
X140.462Y-135.509
X140.462Y-138.049
X144.907Y-135.415
X144.907Y-137.956
X148.463Y-135.415
X148.463Y-137.956
X152.019Y-135.415
X152.019Y-137.956
X155.575Y-135.415
X155.575Y-137.956
X159.131Y-135.382
X159.131Y-137.922
X162.687Y-135.415
X162.687Y-137.956
X164.719Y-62.069
X164.719Y-64.609
X166.243Y-135.415
X166.243Y-137.956
X168.275Y-62.069
X168.275Y-64.609
X169.799Y-135.382
X169.799Y-137.922
X171.831Y-62.069
X171.831Y-64.609
X173.355Y-135.415
X173.355Y-137.956
X175.387Y-62.069
X175.387Y-64.609
X176.911Y-135.415
X176.911Y-137.956
X178.943Y-62.069
X178.943Y-64.609
X180.467Y-135.415
X180.467Y-137.956
X182.499Y-62.069
X182.499Y-64.609
X184.023Y-135.415
X184.023Y-137.956
X186.055Y-62.069
X186.055Y-64.609
X187.579Y-135.382
X187.579Y-137.922
X189.611Y-62.069
X189.611Y-64.609
X191.135Y-135.382
X191.135Y-137.922
X193.167Y-62.103
X193.167Y-64.643
X194.691Y-135.415
X194.691Y-137.956
X196.723Y-62.103
X196.723Y-64.643
X200.279Y-62.103
X200.279Y-64.643
X203.835Y-62.069
X203.835Y-64.609
X207.391Y-62.103
X207.391Y-64.643
X211.836Y-62.069
X211.836Y-64.609
X214.757Y-62.069
X214.757Y-64.609
X217.678Y-62.069
X217.678Y-64.609
X220.599Y-62.069
X220.599Y-64.609
T5
X152.146Y-74.676
X210.146Y-123.676
T0
M30
